# Blender v2.74 (sub 0) OBJ File: ''
# www.blender.org
o LORES_Cube.002
v -0.346834 0.346834 -0.409748
v -0.500000 0.423229 -0.423229
v -0.346834 0.409748 -0.346834
v -0.346834 0.409748 0.346834
v -0.500000 -0.423229 0.423229
v -0.500000 0.423229 0.423229
v -0.346834 0.346834 0.409748
v -0.346834 -0.346834 0.409748
v -0.423229 -0.500000 0.423229
v -0.423229 -0.423229 0.500000
v -0.500000 -0.423229 0.423229
v -0.500000 0.423229 0.423229
v -0.423229 0.423229 0.500000
v -0.423229 0.500000 0.423229
v -0.500000 -0.423229 -0.423229
v -0.423229 -0.423229 -0.500000
v -0.423229 -0.500000 -0.423229
v -0.500000 0.423229 -0.423229
v -0.423229 0.500000 -0.423229
v -0.423229 0.423229 -0.500000
v 0.500000 -0.423229 0.423229
v 0.423229 -0.423229 0.500000
v 0.423229 -0.500000 0.423229
v 0.500000 0.423229 0.423229
v 0.423229 0.500000 0.423229
v 0.423229 0.423229 0.500000
v 0.423229 -0.423229 -0.500000
v 0.500000 -0.423229 -0.423229
v 0.423229 -0.500000 -0.423229
v 0.423229 0.423229 -0.500000
v 0.423229 0.500000 -0.423229
v 0.500000 0.423229 -0.423229
v -0.346834 -0.346834 -0.409748
v -0.500000 -0.423229 -0.423229
v -0.346834 -0.409748 -0.346834
v -0.346834 -0.409748 0.346834
v 0.346834 0.409748 -0.346834
v 0.346834 0.346834 -0.409748
v 0.409748 0.346834 -0.346834
v 0.409748 -0.346834 -0.346834
v 0.346834 -0.346834 -0.409748
v 0.346834 -0.409748 -0.346834
v 0.346834 0.409748 0.346834
v 0.409748 0.346834 0.346834
v 0.346834 0.346834 0.409748
v 0.346834 -0.346834 0.409748
v 0.409748 -0.346834 0.346834
v 0.346834 -0.409748 0.346834
v -0.409748 -0.346834 -0.346834
v -0.409748 0.346834 -0.346834
v -0.409748 0.346834 0.346834
v -0.409748 -0.346834 0.346834
vt 0.030416 0.030232
vt 0.365771 0.030232
vt 0.335504 0.060316
vt 0.060682 0.060316
vt 0.000000 0.000000
vt 0.637200 0.333333
vt 0.637201 0.666667
vt 0.590515 0.636583
vt 0.590515 0.363417
vt 0.899722 0.000000
vt 0.921229 0.030232
vt 0.878215 0.030232
vt 0.878215 0.363566
vt 0.921229 0.363566
vt 0.899722 0.393798
vt 0.964243 0.363566
vt 0.942736 0.393798
vt 0.942736 0.000000
vt 0.964243 0.030232
vt 0.921229 0.424030
vt 0.878215 0.424030
vt 0.921229 0.757364
vt 0.899722 0.787596
vt 0.878215 0.757363
vt 0.964243 0.424030
vt 0.964243 0.757363
vt 0.942736 0.787596
vt 0.030416 0.363566
vt 0.365771 0.363566
vt 0.365771 0.393798
vt 0.030416 0.393798
vt 0.365771 0.757364
vt 0.365771 0.424030
vt 0.396186 0.424030
vt 0.396186 0.757364
vt 0.396186 0.030232
vt 0.396187 0.363566
vt 0.030416 0.757364
vt 0.365771 0.787596
vt 0.030416 0.787596
vt 0.030416 0.000000
vt 0.365771 0.000000
vt 0.030416 0.424030
vt 0.000000 0.757364
vt 0.000000 0.424030
vt 0.000000 0.363566
vt 0.000000 0.030232
vt 0.060682 0.454114
vt 0.060682 0.727280
vt 0.725955 0.666667
vt 0.725956 1.000000
vt 0.690199 0.969916
vt 0.690199 0.696751
vt 0.964243 0.666667
vt 0.964243 0.333333
vt 1.000000 0.363417
vt 1.000000 0.636583
vt 0.335504 0.727280
vt 0.654442 0.666667
vt 0.654442 1.000000
vt 0.618685 0.969916
vt 0.618685 0.696751
vt 0.582928 0.666667
vt 0.582929 1.000000
vt 0.536243 0.969916
vt 0.536243 0.696751
vt 0.761712 0.666667
vt 0.761712 1.000000
vt 0.725956 0.969916
vt 0.725956 0.696751
vt 0.335504 0.333482
vt 0.878215 0.333333
vt 0.878215 0.666667
vt 0.831529 0.636583
vt 0.831529 0.363417
vt 0.335504 0.454114
vt 0.878215 0.000000
vt 0.831529 0.303249
vt 0.831529 0.030084
vt 0.797469 0.666667
vt 0.797469 1.000000
vt 0.761712 0.969916
vt 0.761712 0.696751
vt 0.060682 0.333482
vt 1.000000 0.000000
vt 1.000000 0.333333
vt 0.964243 0.303249
vt 0.964243 0.030084
vt 0.536243 0.666667
vt 0.536243 1.000000
vt 0.489558 0.969916
vt 0.489558 0.696751
vt 0.396187 1.000000
vt 0.396187 0.666667
vt 0.442872 0.696751
vt 0.442872 0.969916
vt 0.690199 0.666667
vt 0.690199 1.000000
vt 0.654442 0.969916
vt 0.654442 0.696751
vt 0.489558 0.666667
vt 0.489558 1.000000
vt 0.396187 0.333333
vt 0.396187 0.000000
vt 0.442872 0.030084
vt 0.442872 0.303249
vt 0.637201 0.363417
vt 0.637201 0.636583
vt 0.396187 0.636583
vt 0.396187 0.363417
vt 0.637201 0.303249
vt 0.637201 0.030084
vn -0.763300 0.646100 0.000000
vn 0.000000 0.000000 1.000000
vn -0.763300 0.000000 0.646100
vn -0.577400 -0.577400 0.577400
vn -0.577400 0.577400 0.577400
vn -0.577400 -0.577400 -0.577400
vn -0.577400 0.577400 -0.577400
vn 0.577400 -0.577400 0.577400
vn 0.577400 0.577400 0.577400
vn 0.577400 -0.577400 -0.577400
vn 0.577400 0.577400 -0.577400
vn -0.707100 0.000000 0.707100
vn -0.707100 0.707100 0.000000
vn -0.707100 0.000000 -0.707100
vn -0.707100 -0.707100 0.000000
vn 0.000000 0.707100 -0.707100
vn 0.707100 0.000000 -0.707100
vn 0.000000 -0.707100 -0.707100
vn 0.707100 0.707100 0.000000
vn 0.707100 0.000000 0.707100
vn 0.707100 -0.707100 0.000000
vn 0.000000 0.707100 0.707100
vn 0.000000 -0.707100 0.707100
vn -0.763300 -0.646100 0.000000
vn -0.646100 0.763300 0.000000
vn 0.000000 0.763300 0.646100
vn 0.000000 -0.646100 0.763300
vn 0.000000 -0.763300 0.646100
vn 0.646100 0.000000 0.763300
vn 0.646100 0.763300 0.000000
vn 0.000000 0.646100 0.763300
vn 0.646100 0.000000 -0.763300
vn 0.763300 -0.646100 0.000000
vn 0.763300 0.000000 -0.646100
vn 0.646100 -0.763300 0.000000
vn 0.763300 0.646100 0.000000
vn 0.000000 0.763300 -0.646100
vn 0.000000 -0.646100 -0.763300
vn 0.763300 0.000000 0.646100
vn -0.763300 0.000000 -0.646100
vn 0.000000 0.646100 -0.763300
vn 0.000000 -0.763300 -0.646100
vn -0.646100 -0.763300 0.000000
vn -0.646100 0.000000 -0.763300
vn -0.646100 0.000000 0.763300
vn 0.000000 -1.000000 0.000000
vn 1.000000 0.000000 0.000000
vn 0.000000 1.000000 0.000000
vn 0.000000 0.000000 -1.000000
vn -1.000000 0.000000 0.000000
usemtl Material.003
s off
f 25/1/1 31/2/1 37/3/1 43/4/1
f 12/5/2 18/5/2 2/5/2 6/5/2
f 18/5/2 15/5/2 34/5/2 2/5/2
f 22/6/3 26/7/3 45/8/3 46/9/3
f 15/5/2 11/5/2 5/5/2 34/5/2
f 9/10/4 10/11/4 11/12/4
f 12/13/5 13/14/5 14/15/5
f 15/14/6 16/16/6 17/17/6
f 18/11/7 19/18/7 20/19/7
f 21/20/8 22/21/8 23/15/8
f 24/22/9 25/23/9 26/24/9
f 27/25/10 28/20/10 29/17/10
f 30/26/11 31/27/11 32/22/11
f 10/11/12 13/14/12 12/13/12 11/12/12
f 14/28/13 19/29/13 18/30/13 12/31/13
f 20/19/14 16/16/14 15/14/14 18/11/14
f 17/32/15 9/33/15 11/34/15 15/35/15
f 19/29/16 31/2/16 30/36/16 20/37/16
f 32/22/17 28/20/17 27/25/17 30/26/17
f 29/38/18 17/32/18 16/39/18 27/40/18
f 31/2/19 25/1/19 24/41/19 32/42/19
f 26/24/20 22/21/20 21/20/20 24/22/20
f 23/43/21 29/38/21 28/44/21 21/45/21
f 25/1/22 14/28/22 13/46/22 26/47/22
f 9/33/23 23/43/23 22/31/23 10/30/23
f 29/38/24 23/43/24 48/48/24 42/49/24
f 34/50/25 5/51/25 52/52/25 49/53/25
f 10/54/26 22/55/26 46/56/26 8/57/26
f 11/5/2 12/5/2 6/5/2 5/5/2
f 17/32/27 29/38/27 42/49/27 35/58/27
f 26/59/28 13/60/28 7/61/28 45/62/28
f 28/63/29 32/64/29 39/65/29 40/66/29
f 21/67/30 28/68/30 40/69/30 47/70/30
f 31/2/31 19/29/31 3/71/31 37/3/31
f 24/72/32 21/73/32 47/74/32 44/75/32
f 9/33/33 17/32/33 35/58/33 36/76/33
f 16/77/34 20/72/34 1/78/34 33/79/34
f 32/80/35 24/81/35 44/82/35 39/83/35
f 19/29/36 14/28/36 4/84/36 3/71/36
f 27/85/37 16/86/37 33/87/37 41/88/37
f 23/43/38 9/33/38 36/76/38 48/48/38
f 13/89/39 10/90/39 8/91/39 7/92/39
f 30/93/40 27/94/40 41/95/40 38/96/40
f 14/28/41 25/1/41 43/4/41 4/84/41
f 20/64/42 30/63/42 38/62/42 1/61/42
f 6/97/43 2/98/43 50/99/43 51/100/43
f 5/101/44 6/102/44 51/96/44 52/95/44
f 2/103/45 34/104/45 49/105/45 50/106/45
usemtl Material.004
f 36/76/46 35/58/46 42/49/46 48/48/46
f 39/107/47 44/75/47 47/74/47 40/108/47
f 43/4/48 37/3/48 3/71/48 4/84/48
f 45/8/2 7/109/2 8/110/2 46/9/2
f 1/78/49 38/111/49 41/112/49 33/79/49
f 51/111/50 50/106/50 49/105/50 52/112/50
