# Blender v2.74 (sub 0) OBJ File: ''
# www.blender.org
o Cylinder
v 0.000000 0.050000 -0.500000
v 0.000000 0.050000 0.500000
v 0.009755 0.049039 -0.500000
v 0.009755 0.049039 0.500000
v 0.019134 0.046194 -0.500000
v 0.019134 0.046194 0.500000
v 0.027779 0.041574 -0.500000
v 0.027779 0.041573 0.500000
v 0.035355 0.035355 -0.500000
v 0.035355 0.035355 0.500000
v 0.041573 0.027779 -0.500000
v 0.041573 0.027778 0.500000
v 0.046194 0.019134 -0.500000
v 0.046194 0.019134 0.500000
v 0.049039 0.009755 -0.500000
v 0.049039 0.009754 0.500000
v 0.050000 0.000000 -0.500000
v 0.050000 -0.000000 0.500000
v 0.049039 -0.009754 -0.500000
v 0.049039 -0.009755 0.500000
v 0.046194 -0.019134 -0.500000
v 0.046194 -0.019134 0.500000
v 0.041573 -0.027778 -0.500000
v 0.041573 -0.027779 0.500000
v 0.035355 -0.035355 -0.500000
v 0.035355 -0.035355 0.500000
v 0.027779 -0.041573 -0.500000
v 0.027779 -0.041574 0.500000
v 0.019134 -0.046194 -0.500000
v 0.019134 -0.046194 0.500000
v 0.009755 -0.049039 -0.500000
v 0.009755 -0.049039 0.500000
v -0.000000 -0.050000 -0.500000
v -0.000000 -0.050000 0.500000
v -0.009755 -0.049039 -0.500000
v -0.009755 -0.049039 0.500000
v -0.019134 -0.046194 -0.500000
v -0.019134 -0.046194 0.500000
v -0.027779 -0.041573 -0.500000
v -0.027779 -0.041573 0.500000
v -0.035355 -0.035355 -0.500000
v -0.035355 -0.035355 0.500000
v -0.041574 -0.027778 -0.500000
v -0.041574 -0.027779 0.500000
v -0.046194 -0.019134 -0.500000
v -0.046194 -0.019134 0.500000
v -0.049039 -0.009754 -0.500000
v -0.049039 -0.009754 0.500000
v -0.050000 0.000000 -0.500000
v -0.050000 0.000000 0.500000
v -0.049039 0.009755 -0.500000
v -0.049039 0.009755 0.500000
v -0.046194 0.019134 -0.500000
v -0.046194 0.019134 0.500000
v -0.041573 0.027779 -0.500000
v -0.041573 0.027779 0.500000
v -0.035355 0.035355 -0.500000
v -0.035355 0.035355 0.500000
v -0.027778 0.041574 -0.500000
v -0.027778 0.041573 0.500000
v -0.019134 0.046194 -0.500000
v -0.019134 0.046194 0.500000
v -0.009754 0.049039 -0.500000
v -0.009754 0.049039 0.500000
v 0.000000 0.050000 -0.500000
v 0.000000 0.050000 0.500000
v 0.009755 0.049039 -0.500000
v 0.009755 0.049039 0.500000
v 0.019134 0.046194 -0.500000
v 0.019134 0.046194 0.500000
v 0.027779 0.041574 -0.500000
v 0.027779 0.041573 0.500000
v 0.035355 0.035355 -0.500000
v 0.035355 0.035355 0.500000
v 0.041573 0.027779 -0.500000
v 0.041573 0.027778 0.500000
v 0.046194 0.019134 -0.500000
v 0.046194 0.019134 0.500000
v 0.049039 0.009755 -0.500000
v 0.049039 0.009754 0.500000
v 0.050000 0.000000 -0.500000
v 0.050000 -0.000000 0.500000
v 0.049039 -0.009754 -0.500000
v 0.049039 -0.009755 0.500000
v 0.046194 -0.019134 -0.500000
v 0.046194 -0.019134 0.500000
v 0.041573 -0.027778 -0.500000
v 0.041573 -0.027779 0.500000
v 0.035355 -0.035355 -0.500000
v 0.035355 -0.035355 0.500000
v 0.027779 -0.041573 -0.500000
v 0.027779 -0.041574 0.500000
v 0.019134 -0.046194 -0.500000
v 0.019134 -0.046194 0.500000
v 0.009755 -0.049039 -0.500000
v 0.009755 -0.049039 0.500000
v -0.000000 -0.050000 -0.500000
v -0.000000 -0.050000 0.500000
v -0.009755 -0.049039 -0.500000
v -0.009755 -0.049039 0.500000
v -0.019134 -0.046194 -0.500000
v -0.019134 -0.046194 0.500000
v -0.027779 -0.041573 -0.500000
v -0.027779 -0.041573 0.500000
v -0.035355 -0.035355 -0.500000
v -0.035355 -0.035355 0.500000
v -0.041574 -0.027778 -0.500000
v -0.041574 -0.027779 0.500000
v -0.046194 -0.019134 -0.500000
v -0.046194 -0.019134 0.500000
v -0.049039 -0.009754 -0.500000
v -0.049039 -0.009754 0.500000
v -0.050000 0.000000 -0.500000
v -0.050000 0.000000 0.500000
v -0.049039 0.009755 -0.500000
v -0.049039 0.009755 0.500000
v -0.046194 0.019134 -0.500000
v -0.046194 0.019134 0.500000
v -0.041573 0.027779 -0.500000
v -0.041573 0.027779 0.500000
v -0.035355 0.035355 -0.500000
v -0.035355 0.035355 0.500000
v -0.027778 0.041574 -0.500000
v -0.027778 0.041573 0.500000
v -0.019134 0.046194 -0.500000
v -0.019134 0.046194 0.500000
v -0.009754 0.049039 -0.500000
v -0.009754 0.049039 0.500000
v 0.000000 0.017667 -0.548081
v 0.003447 0.017327 -0.548081
v 0.006761 0.016322 -0.548081
v 0.009815 0.014689 -0.548081
v 0.012492 0.012492 -0.548081
v 0.014689 0.009815 -0.548081
v 0.016322 0.006761 -0.548081
v 0.017327 0.003447 -0.548081
v 0.017667 0.000000 -0.548081
v 0.017327 -0.003447 -0.548081
v 0.016322 -0.006761 -0.548081
v 0.014689 -0.009815 -0.548081
v 0.012492 -0.012492 -0.548081
v 0.009815 -0.014689 -0.548081
v 0.006761 -0.016322 -0.548081
v 0.003447 -0.017327 -0.548081
v 0.000000 -0.017667 -0.548081
v -0.003447 -0.017327 -0.548081
v -0.006761 -0.016322 -0.548081
v -0.009815 -0.014689 -0.548081
v -0.012492 -0.012492 -0.548081
v -0.014689 -0.009815 -0.548081
v -0.016322 -0.006761 -0.548081
v -0.017327 -0.003447 -0.548081
v -0.017667 0.000000 -0.548081
v -0.017327 0.003447 -0.548081
v -0.016322 0.006761 -0.548081
v -0.014689 0.009815 -0.548081
v -0.012492 0.012492 -0.548081
v -0.009815 0.014689 -0.548081
v -0.006761 0.016322 -0.548081
v -0.003447 0.017327 -0.548081
v 0.006122 0.030780 0.546766
v -0.000000 0.031383 0.546766
v 0.012010 0.028994 0.546766
v 0.017435 0.026094 0.546766
v 0.022191 0.022191 0.546766
v 0.026094 0.017435 0.546766
v 0.028994 0.012010 0.546766
v 0.030780 0.006122 0.546766
v 0.031383 -0.000000 0.546766
v 0.030780 -0.006122 0.546766
v 0.028994 -0.012010 0.546766
v 0.026094 -0.017435 0.546766
v 0.022191 -0.022191 0.546766
v 0.017435 -0.026094 0.546766
v 0.012010 -0.028994 0.546766
v 0.006122 -0.030780 0.546766
v -0.000000 -0.031383 0.546766
v -0.006122 -0.030780 0.546766
v -0.012010 -0.028994 0.546766
v -0.017435 -0.026094 0.546766
v -0.022191 -0.022191 0.546766
v -0.026094 -0.017435 0.546766
v -0.028994 -0.012010 0.546766
v -0.030780 -0.006122 0.546766
v -0.031383 0.000000 0.546766
v -0.030780 0.006122 0.546766
v -0.028994 0.012010 0.546766
v -0.026094 0.017435 0.546766
v -0.022191 0.022191 0.546766
v -0.017435 0.026094 0.546766
v -0.012010 0.028994 0.546766
v -0.006122 0.030780 0.546766
vt 0.713963 0.333333
vt 0.685115 0.333333
vt 0.685115 0.000000
vt 0.713963 0.000000
vt 0.656822 0.333333
vt 0.656822 0.000000
vt 0.630170 0.333333
vt 0.630170 0.000000
vt 0.606185 0.333333
vt 0.606185 0.000000
vt 0.585786 0.333333
vt 0.585786 0.000000
vt 0.792893 1.000000
vt 0.768907 1.000000
vt 0.768907 0.666667
vt 0.792893 0.666667
vt 0.742256 1.000000
vt 0.742256 0.666667
vt 0.713963 1.000000
vt 0.713963 0.666667
vt 0.685115 1.000000
vt 0.685115 0.666667
vt 0.656822 1.000000
vt 0.656822 0.666667
vt 0.630170 1.000000
vt 0.630170 0.666667
vt 0.606185 1.000000
vt 0.606185 0.666667
vt 0.585786 1.000000
vt 0.585786 0.666667
vt 1.000000 0.666667
vt 0.976014 0.666667
vt 0.976014 0.333333
vt 1.000000 0.333333
vt 0.949362 0.666667
vt 0.949362 0.333333
vt 0.921069 0.666667
vt 0.921069 0.333333
vt 0.892222 0.666667
vt 0.892222 0.333333
vt 0.863929 0.666667
vt 0.863929 0.333333
vt 0.837277 0.666667
vt 0.837277 0.333333
vt 0.813291 0.666667
vt 0.813291 0.333333
vt 0.207107 0.663456
vt 0.227505 0.663457
vt 0.227505 0.996790
vt 0.207107 0.996790
vt 0.251491 0.663457
vt 0.251491 0.996790
vt 0.278143 0.663457
vt 0.278143 0.996790
vt 0.306436 0.663457
vt 0.306436 0.996790
vt 0.335283 0.663457
vt 0.335283 0.996790
vt 0.363576 0.663457
vt 0.363576 0.996790
vt 0.390228 0.663457
vt 0.390228 0.996790
vt 0.414214 0.663457
vt 0.414214 0.996790
vt 0.792893 0.333333
vt 0.792893 0.000000
vt 0.813291 0.000000
vt 0.768907 0.333333
vt 0.768907 0.000000
vt 0.000000 0.149528
vt 0.005628 0.117483
vt 0.016667 0.087298
vt 0.032694 0.060132
vt 0.053092 0.037029
vt 0.077078 0.018877
vt 0.103730 0.006374
vt 0.132023 0.000000
vt 0.160870 0.000000
vt 0.189163 0.006374
vt 0.215815 0.018877
vt 0.239801 0.037029
vt 0.260199 0.060132
vt 0.276226 0.087298
vt 0.287265 0.117483
vt 0.292893 0.149528
vt 0.292893 0.182200
vt 0.287265 0.214245
vt 0.276226 0.244430
vt 0.260199 0.271596
vt 0.239801 0.294699
vt 0.215815 0.312851
vt 0.189163 0.325354
vt 0.160870 0.331728
vt 0.132023 0.331728
vt 0.103730 0.325354
vt 0.077078 0.312851
vt 0.053092 0.294699
vt 0.032694 0.271596
vt 0.016667 0.244430
vt 0.005628 0.214245
vt 0.000000 0.182200
vt 0.742256 0.333333
vt 0.742256 0.000000
vt 0.396623 0.657082
vt 0.369971 0.644579
vt 0.345986 0.626428
vt 0.325587 0.603325
vt 0.309561 0.576159
vt 0.298521 0.545973
vt 0.292893 0.513929
vt 0.292893 0.481256
vt 0.298521 0.449212
vt 0.309560 0.419026
vt 0.325587 0.391860
vt 0.345985 0.368757
vt 0.369971 0.350606
vt 0.396623 0.338102
vt 0.424916 0.331728
vt 0.453763 0.331728
vt 0.482057 0.338102
vt 0.508708 0.350606
vt 0.532694 0.368757
vt 0.553092 0.391860
vt 0.569119 0.419026
vt 0.580159 0.449212
vt 0.585786 0.481256
vt 0.585786 0.513929
vt 0.580158 0.545973
vt 0.569119 0.576159
vt 0.553092 0.603325
vt 0.532694 0.626427
vt 0.508708 0.644579
vt 0.482057 0.657082
vt 0.453763 0.663456
vt 0.424916 0.663456
vt 0.816879 0.666667
vt 0.816879 1.000000
vt 0.843531 0.666667
vt 0.843531 1.000000
vt 0.871824 0.666667
vt 0.871824 1.000000
vt 0.900671 0.666667
vt 0.900671 1.000000
vt 0.928964 0.666667
vt 0.928964 1.000000
vt 0.955616 0.666667
vt 0.955616 1.000000
vt 0.979602 0.666667
vt 0.979602 1.000000
vt 1.000000 1.000000
vt 0.837277 0.000000
vt 0.863929 0.000000
vt 0.892222 0.000000
vt 0.921069 0.000000
vt 0.949362 0.000000
vt 0.976014 0.000000
vt 1.000000 0.000000
vt 0.000000 0.996790
vt 0.000000 0.663457
vt 0.020398 0.663457
vt 0.020398 0.996790
vt 0.044384 0.663457
vt 0.044384 0.996790
vt 0.071036 0.663456
vt 0.071036 0.996790
vt 0.099329 0.663457
vt 0.099329 0.996790
vt 0.128176 0.663457
vt 0.128176 0.996790
vt 0.156469 0.663457
vt 0.156470 0.996790
vt 0.183121 0.663457
vt 0.183121 0.996790
vt 0.309560 0.087298
vt 0.325587 0.060132
vt 0.367943 0.099501
vt 0.357884 0.116552
vt 0.239801 0.626428
vt 0.215815 0.644579
vt 0.170957 0.549528
vt 0.179432 0.543114
vt 0.121936 0.549528
vt 0.113461 0.543114
vt 0.106254 0.534951
vt 0.100591 0.525352
vt 0.096691 0.514687
vt 0.094702 0.503365
vt 0.094702 0.491820
vt 0.096691 0.480498
vt 0.100591 0.469832
vt 0.106254 0.460234
vt 0.113461 0.452071
vt 0.121936 0.445657
vt 0.131353 0.441239
vt 0.141350 0.438987
vt 0.151543 0.438987
vt 0.161540 0.441239
vt 0.170957 0.445657
vt 0.179432 0.452071
vt 0.186639 0.460234
vt 0.192302 0.469832
vt 0.196202 0.480498
vt 0.198191 0.491820
vt 0.198191 0.503365
vt 0.196202 0.514687
vt 0.192302 0.525352
vt 0.186639 0.534951
vt 0.161540 0.553945
vt 0.151543 0.556198
vt 0.141350 0.556198
vt 0.131353 0.553945
vt 0.005628 0.545973
vt 0.000000 0.513929
vt 0.189163 0.338102
vt 0.215815 0.350605
vt 0.160870 0.663457
vt 0.132023 0.663457
vt 0.260199 0.391860
vt 0.276226 0.419026
vt 0.077078 0.644579
vt 0.053092 0.626428
vt 0.005628 0.449212
vt 0.016667 0.419026
vt 0.053092 0.368757
vt 0.077078 0.350606
vt 0.276226 0.576159
vt 0.260199 0.603325
vt 0.032694 0.603325
vt 0.016667 0.576159
vt 0.189163 0.657082
vt 0.239801 0.368757
vt 0.000000 0.481256
vt 0.103730 0.657082
vt 0.287265 0.449212
vt 0.032694 0.391860
vt 0.287265 0.545973
vt 0.103730 0.338102
vt 0.430287 0.269969
vt 0.412528 0.265968
vt 0.395801 0.258121
vt 0.380746 0.246728
vt 0.367943 0.232227
vt 0.357884 0.215176
vt 0.350955 0.196230
vt 0.347422 0.176118
vt 0.347422 0.155611
vt 0.350955 0.135498
vt 0.380746 0.085001
vt 0.395800 0.073608
vt 0.412528 0.065760
vt 0.430287 0.061759
vt 0.448393 0.061759
vt 0.466151 0.065760
vt 0.482879 0.073608
vt 0.497934 0.085001
vt 0.510737 0.099501
vt 0.520796 0.116552
vt 0.527725 0.135498
vt 0.531257 0.155611
vt 0.531257 0.176118
vt 0.527725 0.196230
vt 0.520796 0.215176
vt 0.510737 0.232227
vt 0.497934 0.246728
vt 0.482879 0.258121
vt 0.466151 0.265968
vt 0.448393 0.269969
vt 0.569119 0.087298
vt 0.580159 0.117483
vt 0.508708 0.312851
vt 0.482057 0.325354
vt 0.508708 0.018877
vt 0.532694 0.037029
vt 0.325587 0.271596
vt 0.309561 0.244430
vt 0.424916 0.000000
vt 0.453763 0.000000
vt 0.569119 0.244430
vt 0.553092 0.271596
vt 0.396623 0.325354
vt 0.369971 0.312851
vt 0.345985 0.037029
vt 0.369971 0.018877
vt 0.585786 0.149528
vt 0.585786 0.182200
vt 0.298521 0.117483
vt 0.553092 0.060132
vt 0.298521 0.214245
vt 0.532694 0.294699
vt 0.482057 0.006374
vt 0.345986 0.294699
vt 0.396623 0.006374
vt 0.580158 0.214245
vn -0.098000 -0.995200 -0.000000
vn -0.290300 -0.956900 -0.000000
vn -0.471400 -0.881900 -0.000000
vn -0.634400 -0.773000 -0.000000
vn -0.773000 -0.634400 -0.000000
vn -0.881900 -0.471400 -0.000000
vn -0.956900 -0.290300 -0.000000
vn -0.995200 -0.098000 -0.000000
vn -0.995200 0.098000 0.000000
vn -0.956900 0.290300 0.000000
vn -0.881900 0.471400 0.000000
vn -0.773000 0.634400 0.000000
vn -0.634400 0.773000 0.000000
vn -0.471400 0.881900 0.000000
vn -0.290300 0.956900 0.000000
vn -0.098000 0.995200 0.000000
vn 0.098000 0.995200 0.000000
vn 0.290300 0.956900 0.000000
vn 0.471400 0.881900 0.000000
vn 0.634400 0.773000 0.000000
vn 0.773000 0.634400 0.000000
vn 0.881900 0.471400 0.000000
vn 0.956900 0.290300 0.000000
vn 0.995200 0.098000 0.000000
vn 0.995200 -0.098000 -0.000000
vn 0.956900 -0.290300 -0.000000
vn 0.881900 -0.471400 -0.000000
vn 0.773000 -0.634400 -0.000000
vn 0.634400 -0.773000 -0.000000
vn 0.471400 -0.881900 -0.000000
vn 0.000000 0.000000 -1.000000
vn 0.098000 -0.995200 -0.000000
vn 0.290300 -0.956900 -0.000000
vn 0.000000 0.000000 1.000000
vn -0.889700 -0.269900 0.368300
vn -0.732900 0.391800 -0.556200
vn 0.642400 0.527200 -0.556200
vn 0.081500 -0.827100 -0.556200
vn -0.391800 0.732900 -0.556200
vn -0.391800 -0.732900 -0.556200
vn 0.081500 0.827100 -0.556200
vn 0.827100 0.081500 -0.556200
vn -0.732900 -0.391800 -0.556200
vn 0.732900 -0.391800 -0.556200
vn -0.827100 0.081500 -0.556200
vn 0.391800 0.732900 -0.556200
vn 0.391800 -0.732900 -0.556200
vn -0.642400 0.527200 -0.556200
vn -0.081500 -0.827100 -0.556200
vn 0.732900 0.391800 -0.556200
vn -0.241200 0.795300 -0.556200
vn -0.527200 -0.642400 -0.556200
vn 0.827100 -0.081500 -0.556200
vn -0.795300 -0.241200 -0.556200
vn 0.642400 -0.527200 -0.556200
vn -0.795300 0.241200 -0.556200
vn 0.527200 0.642400 -0.556200
vn 0.241200 -0.795300 -0.556200
vn -0.527200 0.642400 -0.556200
vn -0.241200 -0.795300 -0.556200
vn 0.795300 0.241200 -0.556200
vn -0.081500 0.827100 -0.556200
vn -0.642400 -0.527200 -0.556200
vn 0.795300 -0.241200 -0.556200
vn -0.827100 -0.081500 -0.556200
vn 0.241200 0.795300 -0.556200
vn 0.527200 -0.642400 -0.556200
vn 0.718700 -0.589800 0.368300
vn -0.889700 0.269900 0.368300
vn 0.589800 0.718700 0.368300
vn 0.269900 -0.889700 0.368300
vn -0.589800 0.718700 0.368300
vn -0.269900 -0.889700 0.368300
vn 0.889700 0.269900 0.368300
vn -0.091100 0.925200 0.368300
vn -0.718700 -0.589800 0.368300
vn 0.889700 -0.269900 0.368300
vn -0.925200 -0.091100 0.368300
vn 0.269900 0.889700 0.368300
vn 0.589800 -0.718700 0.368300
vn -0.819900 0.438300 0.368300
vn 0.718700 0.589800 0.368300
vn 0.091100 -0.925200 0.368300
vn -0.438300 0.819900 0.368300
vn -0.438300 -0.819900 0.368300
vn 0.091100 0.925200 0.368300
vn 0.925200 0.091100 0.368300
vn -0.819900 -0.438300 0.368300
vn 0.819900 -0.438300 0.368300
vn -0.925200 0.091100 0.368300
vn 0.438300 0.819900 0.368300
vn 0.438300 -0.819900 0.368300
vn -0.718700 0.589800 0.368300
vn -0.091100 -0.925200 0.368300
vn 0.819900 0.438300 0.368300
vn -0.269900 0.889700 0.368300
vn -0.589800 -0.718700 0.368300
vn 0.925200 -0.091100 0.368300
usemtl Material.001
s off
f 1/1/1 3/2/1 4/3/1 2/4/1
f 3/2/2 5/5/2 6/6/2 4/3/2
f 5/5/3 7/7/3 8/8/3 6/6/3
f 7/7/4 9/9/4 10/10/4 8/8/4
f 9/9/5 11/11/5 12/12/5 10/10/5
f 11/13/6 13/14/6 14/15/6 12/16/6
f 13/14/7 15/17/7 16/18/7 14/15/7
f 15/17/8 17/19/8 18/20/8 16/18/8
f 17/19/9 19/21/9 20/22/9 18/20/9
f 19/21/10 21/23/10 22/24/10 20/22/10
f 21/23/11 23/25/11 24/26/11 22/24/11
f 23/25/12 25/27/12 26/28/12 24/26/12
f 25/27/13 27/29/13 28/30/13 26/28/13
f 27/31/14 29/32/14 30/33/14 28/34/14
f 29/32/15 31/35/15 32/36/15 30/33/15
f 31/35/16 33/37/16 34/38/16 32/36/16
f 33/37/17 35/39/17 36/40/17 34/38/17
f 35/39/18 37/41/18 38/42/18 36/40/18
f 37/41/19 39/43/19 40/44/19 38/42/19
f 39/43/20 41/45/20 42/46/20 40/44/20
f 41/47/21 43/48/21 44/49/21 42/50/21
f 43/48/22 45/51/22 46/52/22 44/49/22
f 45/51/23 47/53/23 48/54/23 46/52/23
f 47/53/24 49/55/24 50/56/24 48/54/24
f 49/55/25 51/57/25 52/58/25 50/56/25
f 51/57/26 53/59/26 54/60/26 52/58/26
f 53/59/27 55/61/27 56/62/27 54/60/27
f 55/61/28 57/63/28 58/64/28 56/62/28
f 57/46/29 59/65/29 60/66/29 58/67/29
f 59/65/30 61/68/30 62/69/30 60/66/30
f 4/70/31 6/71/31 8/72/31 10/73/31 12/74/31 14/75/31 16/76/31 18/77/31 20/78/31 22/79/31 24/80/31 26/81/31 28/82/31 30/83/31 32/84/31 34/85/31 36/86/31 38/87/31 40/88/31 42/89/31 44/90/31 46/91/31 48/92/31 50/93/31 52/94/31 54/95/31 56/96/31 58/97/31 60/98/31 62/99/31 64/100/31 2/101/31
f 63/102/32 1/1/32 2/4/32 64/103/32
f 61/68/33 63/102/33 64/103/33 62/69/33
f 1/104/34 63/105/34 61/106/34 59/107/34 57/108/34 55/109/34 53/110/34 51/111/34 49/112/34 47/113/34 45/114/34 43/115/34 41/116/34 39/117/34 37/118/34 35/119/34 33/120/34 31/121/34 29/122/34 27/123/34 25/124/34 23/125/34 21/126/34 19/127/34 17/128/34 15/129/34 13/130/34 11/131/34 9/132/34 7/133/34 5/134/34 3/135/34
f 65/1/17 66/20/17 68/22/17 67/2/17
f 67/2/18 68/22/18 70/24/18 69/5/18
f 69/5/19 70/24/19 72/26/19 71/7/19
f 71/7/20 72/26/20 74/28/20 73/9/20
f 73/9/21 74/28/21 76/30/21 75/11/21
f 75/13/22 76/16/22 78/136/22 77/137/22
f 77/137/23 78/136/23 80/138/23 79/139/23
f 79/139/24 80/138/24 82/140/24 81/141/24
f 81/141/25 82/140/25 84/142/25 83/143/25
f 83/143/26 84/142/26 86/144/26 85/145/26
f 85/145/27 86/144/27 88/146/27 87/147/27
f 87/147/28 88/146/28 90/148/28 89/149/28
f 89/149/29 90/148/29 92/31/29 91/150/29
f 91/46/30 92/67/30 94/151/30 93/44/30
f 93/44/33 94/151/33 96/152/33 95/42/33
f 95/42/32 96/152/32 98/153/32 97/40/32
f 97/40/1 98/153/1 100/154/1 99/38/1
f 99/38/2 100/154/2 102/155/2 101/36/2
f 101/36/3 102/155/3 104/156/3 103/33/3
f 103/33/4 104/156/4 106/157/4 105/34/4
f 105/158/5 106/159/5 108/160/5 107/161/5
f 107/161/6 108/160/6 110/162/6 109/163/6
f 109/163/7 110/162/7 112/164/7 111/165/7
f 111/165/8 112/164/8 114/166/8 113/167/8
f 113/167/9 114/166/9 116/168/9 115/169/9
f 115/169/10 116/168/10 118/170/10 117/171/10
f 117/171/11 118/170/11 120/172/11 119/173/11
f 119/173/12 120/172/12 122/47/12 121/50/12
f 121/46/13 122/45/13 124/16/13 123/65/13
f 123/65/14 124/16/14 126/15/14 125/68/14
f 112/174/35 110/175/35 183/176/35 184/177/35
f 127/102/16 128/18/16 66/20/16 65/1/16
f 125/68/15 126/15/15 128/18/15 127/102/15
f 117/178/36 119/179/36 156/180/36 155/181/36
f 129/182/31 130/183/31 131/184/31 132/185/31 133/186/31 134/187/31 135/188/31 136/189/31 137/190/31 138/191/31 139/192/31 140/193/31 141/194/31 142/195/31 143/196/31 144/197/31 145/198/31 146/199/31 147/200/31 148/201/31 149/202/31 150/203/31 151/204/31 152/205/31 153/206/31 154/207/31 155/181/31 156/180/31 157/208/31 158/209/31 159/210/31 160/211/31
f 73/212/37 75/213/37 134/187/37 133/186/37
f 95/214/38 97/215/38 145/198/38 144/197/38
f 123/216/39 125/217/39 159/210/39 158/209/39
f 101/218/40 103/219/40 148/201/40 147/200/40
f 65/220/41 67/221/41 130/183/41 129/182/41
f 79/222/42 81/223/42 137/190/42 136/189/42
f 107/111/43 109/110/43 151/204/43 150/203/43
f 85/224/44 87/225/44 140/193/44 139/192/44
f 113/226/45 115/227/45 154/207/45 153/206/45
f 69/228/46 71/229/46 132/185/46 131/184/46
f 91/94/47 93/93/47 143/196/47 142/195/47
f 119/179/48 121/230/48 157/208/48 156/180/48
f 97/215/49 99/231/49 146/199/49 145/198/49
f 75/213/50 77/232/50 135/188/50 134/187/50
f 125/217/51 127/233/51 160/211/51 159/210/51
f 103/219/52 105/234/52 149/202/52 148/201/52
f 81/223/53 83/235/53 138/191/53 137/190/53
f 109/110/54 111/236/54 152/205/54 151/204/54
f 87/225/55 89/237/55 141/194/55 140/193/55
f 115/227/56 117/178/56 155/181/56 154/207/56
f 71/229/57 73/212/57 133/186/57 132/185/57
f 93/93/58 95/214/58 144/197/58 143/196/58
f 121/230/59 123/216/59 158/209/59 157/208/59
f 99/231/60 101/218/60 147/200/60 146/199/60
f 77/232/61 79/222/61 136/189/61 135/188/61
f 127/233/62 65/220/62 129/182/62 160/211/62
f 105/234/63 107/111/63 150/203/63 149/202/63
f 83/235/64 85/224/64 139/192/64 138/191/64
f 111/236/65 113/226/65 153/206/65 152/205/65
f 67/221/66 69/228/66 131/184/66 130/183/66
f 89/237/67 91/94/67 142/195/67 141/194/67
f 161/238/34 162/239/34 192/240/34 191/241/34 190/242/34 189/243/34 188/244/34 187/245/34 186/246/34 185/247/34 184/177/34 183/176/34 182/248/34 181/249/34 180/250/34 179/251/34 178/252/34 177/253/34 176/254/34 175/255/34 174/256/34 173/257/34 172/258/34 171/259/34 170/260/34 169/261/34 168/262/34 167/263/34 166/264/34 165/265/34 164/266/34 163/267/34
f 90/268/68 88/269/68 172/258/68 173/257/68
f 118/86/69 116/85/69 186/246/69 187/245/69
f 74/270/70 72/271/70 164/266/70 165/265/70
f 96/272/71 94/273/71 175/255/71 176/254/71
f 124/274/72 122/275/72 189/243/72 190/242/72
f 102/276/73 100/277/73 178/252/73 179/251/73
f 80/278/74 78/279/74 167/263/74 168/262/74
f 66/280/75 128/281/75 192/240/75 162/239/75
f 108/282/76 106/283/76 181/249/76 182/248/76
f 86/284/77 84/285/77 170/260/77 171/259/77
f 114/286/78 112/174/78 184/177/78 185/247/78
f 70/119/79 68/118/79 161/238/79 163/267/79
f 92/287/80 90/268/80 173/257/80 174/256/80
f 120/288/81 118/86/81 187/245/81 188/244/81
f 76/289/82 74/270/82 165/265/82 166/264/82
f 98/290/83 96/272/83 176/254/83 177/253/83
f 126/291/84 124/274/84 190/242/84 191/241/84
f 104/292/85 102/276/85 179/251/85 180/250/85
f 68/118/86 66/280/86 162/239/86 161/238/86
f 82/293/87 80/278/87 168/262/87 169/261/87
f 110/175/88 108/282/88 182/248/88 183/176/88
f 88/269/89 86/284/89 171/259/89 172/258/89
f 116/85/90 114/286/90 185/247/90 186/246/90
f 72/271/91 70/119/91 163/267/91 164/266/91
f 94/273/92 92/287/92 174/256/92 175/255/92
f 122/275/93 120/288/93 188/244/93 189/243/93
f 100/277/94 98/290/94 177/253/94 178/252/94
f 78/279/95 76/289/95 166/264/95 167/263/95
f 128/281/96 126/291/96 191/241/96 192/240/96
f 106/283/97 104/292/97 180/250/97 181/249/97
f 84/285/98 82/293/98 169/261/98 170/260/98
