# Blender v2.66 (sub 1) OBJ File: ''
# www.blender.org
o Plane
v 0.000000 -0.250000 -19.999998
v 0.000000 0.250000 -19.999998
v 14.142135 -0.250000 -14.142135
v 14.142135 0.250000 -14.142135
v 19.999998 -0.250000 0.000001
v 19.999998 0.250000 0.000001
v 14.142135 -0.250000 14.142135
v 14.142135 0.250000 14.142135
v -0.000002 -0.250000 19.999998
v -0.000002 0.250000 19.999998
v -14.142137 -0.250000 14.142132
v -14.142137 0.250000 14.142132
v -19.999998 -0.250000 -0.000000
v -19.999998 0.250000 -0.000000
v -14.142137 -0.250000 -14.142132
v -14.142137 0.250000 -14.142132
vt 1.000000 0.674142
vt 0.987101 0.674181
vt 0.985889 0.279278
vt 0.998789 0.279239
vt 0.985033 0.000040
vt 0.985033 0.953380
vt 0.972134 0.953420
vt 0.971277 0.674181
vt 0.984176 0.674142
vt 0.970066 0.279278
vt 0.982965 0.279239
vt 0.982108 0.000000
vt 0.969209 0.953380
vt 0.956310 0.953420
vt 0.968352 0.674142
vt 0.674145 0.000000
vt 0.953385 0.279240
vt 0.279240 0.000000
vt 0.967141 0.279239
vt 0.954241 0.279278
vt 0.966284 0.000000
vt 0.955453 0.674181
vt 0.000000 1.232625
vt 0.279240 0.953385
vt 0.000000 1.627530
vt 0.997932 0.000000
vt 0.969209 0.000040
vt 0.953385 0.674145
vt 0.674145 0.953385
vt 0.000000 0.674145
vt 0.000000 0.279240
vt 0.953385 0.000040
vt 0.953385 1.232625
vt 0.953385 1.627530
vt 0.674145 1.906770
vt 0.279240 1.906770
vn 0.382683 0.000000 -0.923880
vn 0.923880 0.000000 -0.382683
vn 0.923880 0.000000 0.382683
vn 0.382683 0.000000 0.923880
vn -0.382684 0.000000 0.923879
vn -0.923880 0.000000 0.382683
vn -0.000000 1.000000 0.000000
vn -0.382683 -0.000000 -0.923879
vn -0.923880 -0.000000 -0.382683
vn 0.000000 -1.000000 -0.000000
usemtl Material.003
s off
f 1/1/1 2/2/1 4/3/1
f 3/4/2 4/3/2 6/5/2
f 5/6/3 6/7/3 8/8/3
f 7/9/4 8/8/4 10/10/4
f 9/11/5 10/10/5 11/12/5
f 11/13/6 12/14/6 13/15/6
f 4/16/7 2/17/7 6/18/7
f 15/19/8 16/20/8 1/21/8
f 13/15/9 14/22/9 15/19/9
f 1/23/10 3/24/10 15/25/10
f 3/4/1 1/1/1 4/3/1
f 5/26/2 3/4/2 6/5/2
f 7/9/3 5/6/3 8/8/3
f 9/11/4 7/9/4 10/10/4
f 10/10/5 12/27/5 11/12/5
f 12/14/6 14/22/6 13/15/6
f 2/17/7 16/28/7 6/18/7
f 16/28/7 14/29/7 6/18/7
f 14/29/7 12/24/7 6/18/7
f 12/24/7 10/30/7 8/31/7
f 6/18/7 12/24/7 8/31/7
f 16/20/8 2/32/8 1/21/8
f 14/22/9 16/20/9 15/19/9
f 3/24/10 5/29/10 15/25/10
f 5/29/10 7/33/10 15/25/10
f 7/33/10 9/34/10 15/25/10
f 9/34/10 11/35/10 13/36/10
f 15/25/10 9/34/10 13/36/10
