# Blender v2.74 (sub 0) OBJ File: 'desertfloor.blend'
# www.blender.org
o Cylinder.001_Cylinder.002
v -53.365063 -0.984327 -53.365063
v -53.365063 11.015673 -53.365063
v 53.365067 -0.984327 -53.365059
v 53.365067 11.015673 -53.365059
v 53.365059 -0.984327 53.365067
v 53.365059 11.015673 53.365067
v -53.365063 -0.984327 53.365063
v -53.365063 11.015673 53.365063
v -46.831768 -0.984327 -49.095860
v -49.095860 -0.984327 -46.831768
v -50.696812 -0.984327 -50.696812
v -49.095860 11.015673 -46.831768
v -46.831772 11.015673 -49.095856
v -50.696812 11.015673 -50.696812
v 49.095860 -0.984327 -46.831768
v 46.831776 -0.984327 -49.095860
v 50.696815 -0.984327 -50.696808
v 46.831776 11.015673 -49.095860
v 49.095860 11.015673 -46.831768
v 50.696812 11.015673 -50.696804
v 46.831764 -0.984327 49.095863
v 49.095856 -0.984327 46.831779
v 50.696808 -0.984327 50.696815
v 49.095856 11.015673 46.831779
v 46.831764 11.015673 49.095863
v 50.696804 11.015673 50.696812
v -49.095860 -0.984327 46.831768
v -46.831772 -0.984327 49.095856
v -50.696812 -0.984327 50.696812
v -46.831768 11.015673 49.095860
v -49.095860 11.015673 46.831768
v -50.696812 11.015673 50.696812
v -0.000004 -0.984327 49.095860
v -0.000004 11.015673 49.095860
v 23.415882 11.015673 49.095860
v 23.415880 -0.984327 49.095863
v -23.415886 -0.984327 49.095856
v -23.415886 11.015673 49.095856
v -49.095856 -0.984327 -0.000002
v -49.095860 11.015673 0.000000
v -49.095856 11.015673 23.415884
v -49.095860 -0.984327 23.415882
v -49.095856 -0.984327 -23.415886
v -49.095856 11.015673 -23.415884
v 0.000002 -0.984327 -49.095856
v 0.000004 11.015673 -49.095856
v -23.415880 11.015673 -49.095856
v -23.415882 -0.984327 -49.095860
v 23.415886 -0.984327 -49.095856
v 23.415888 11.015673 -49.095856
v 49.095856 -0.984327 0.000006
v 49.095856 11.015673 0.000006
v 49.095856 11.015673 -23.415878
v 49.095856 -0.984327 -23.415878
v 49.095856 -0.984327 23.415892
v 49.095852 11.015673 23.415890
vt 1.000000 0.000000
vt 1.000000 1.000000
vt 0.000000 1.000000
vt 0.625000 1.000000
vt 0.000000 0.000000
vt 0.500000 1.000000
vt 0.821394 0.883022
vt 0.328990 0.030154
vt 0.933013 0.250000
vt 0.671010 0.030154
vt 0.000020 0.040467
vt 0.054469 0.004335
vt 0.250523 0.002948
vt 0.043613 0.999979
vt 0.003138 0.938742
vt 0.000021 0.719151
vt 0.000021 0.043614
vt 0.061261 0.003138
vt 0.280851 0.000021
vt 0.625000 0.000000
vt 0.007596 0.586824
vt 0.178606 0.883022
vt 0.066987 0.250000
vt 0.992404 0.586824
vt 0.937687 0.000020
vt 0.974981 0.015468
vt 0.999980 0.040467
vt 0.642643 0.000176
vt 0.446583 0.001562
vt 0.022203 0.017968
vt 0.003311 0.061027
vt 0.018490 0.024893
vt 0.043612 0.000021
vt 0.002214 0.280397
vt 0.001117 0.499766
vt 0.018613 0.974979
vt 0.938971 0.003312
vt 0.975106 0.018491
vt 0.999979 0.043614
vt 0.719597 0.002215
vt 0.500225 0.001118
vt 0.025023 0.018612
vn 0.000000 0.000000 -1.000000
vn 1.000000 0.000000 0.000000
vn -0.000000 0.000000 1.000000
vn -1.000000 0.000000 0.000000
vn 0.000000 -1.000000 -0.000000
vn 0.000000 1.000000 0.000000
vn 0.707100 0.000000 0.707100
vn -0.707100 0.000000 0.707100
vn -0.707100 0.000000 -0.707100
vn 0.707100 0.000000 -0.707100
usemtl Material.003
s off
f 2/1/1 4/2/1 3/3/1
f 4/1/2 6/2/2 5/3/2
f 6/1/3 8/2/3 7/3/3
f 8/1/4 2/2/4 1/3/4
f 41/4/2 31/3/2 27/5/2
f 3/6/5 5/7/5 51/8/5
f 7/7/5 28/9/5 37/10/5
f 39/8/5 1/7/5 43/10/5
f 2/11/6 13/12/6 47/13/6
f 8/11/6 31/12/6 41/13/6
f 4/14/6 19/15/6 53/16/6
f 35/4/1 25/3/1 21/5/1
f 6/17/6 25/18/6 35/19/6
f 45/8/5 3/7/5 49/10/5
f 53/4/4 19/3/4 15/5/4
f 9/5/5 10/1/5 11/2/5
f 12/5/6 13/1/6 14/2/6
f 15/5/5 16/1/5 17/2/5
f 18/5/6 19/1/6 20/2/6
f 21/5/5 22/1/5 23/2/5
f 24/5/6 25/1/6 26/2/6
f 27/5/5 28/1/5 29/2/5
f 30/5/6 31/1/6 32/2/6
f 13/1/7 12/2/7 10/3/7
f 16/1/8 15/2/8 19/3/8
f 22/1/9 21/2/9 25/3/9
f 28/1/10 27/2/10 31/3/10
f 47/4/3 13/3/3 9/5/3
f 38/4/1 34/3/1 33/5/1
f 34/4/1 35/3/1 36/5/1
f 30/4/1 38/3/1 37/5/1
f 44/5/2 40/20/2 39/4/2
f 40/4/2 41/3/2 42/5/2
f 12/4/2 44/3/2 43/5/2
f 49/20/3 50/4/3 46/3/3
f 45/20/3 46/4/3 47/3/3
f 18/5/3 50/20/3 49/4/3
f 56/4/4 52/3/4 51/5/4
f 52/4/4 53/3/4 54/5/4
f 24/5/4 56/20/4 55/4/4
f 1/5/1 2/1/1 3/3/1
f 3/5/2 4/1/2 5/3/2
f 5/5/3 6/1/3 7/3/3
f 7/5/4 8/1/4 1/3/4
f 42/20/2 41/4/2 27/5/2
f 15/21/5 17/22/5 3/6/5
f 3/6/5 54/23/5 15/21/5
f 5/7/5 22/9/5 55/10/5
f 3/6/5 51/8/5 54/23/5
f 55/10/5 51/8/5 5/7/5
f 5/7/5 23/24/5 22/9/5
f 21/21/5 23/22/5 5/6/5
f 7/7/5 37/10/5 33/8/5
f 36/23/5 21/21/5 5/6/5
f 5/6/5 33/8/5 36/23/5
f 7/7/5 29/24/5 28/9/5
f 33/8/5 5/6/5 7/7/5
f 27/21/5 29/22/5 7/6/5
f 7/6/5 39/8/5 42/23/5
f 42/23/5 27/21/5 7/6/5
f 10/9/5 1/7/5 11/24/5
f 1/7/5 10/9/5 43/10/5
f 1/7/5 39/8/5 7/6/5
f 18/25/6 20/26/6 4/27/6
f 4/27/6 50/28/6 18/25/6
f 2/11/6 47/13/6 46/29/6
f 2/11/6 14/30/6 13/12/6
f 46/29/6 4/27/6 2/11/6
f 4/27/6 46/29/6 50/28/6
f 12/25/6 14/26/6 2/27/6
f 2/27/6 44/28/6 12/25/6
f 8/11/6 41/13/6 40/29/6
f 8/11/6 32/30/6 31/12/6
f 40/29/6 2/27/6 8/11/6
f 2/27/6 40/29/6 44/28/6
f 24/31/6 26/32/6 6/33/6
f 6/33/6 56/34/6 24/31/6
f 4/14/6 53/16/6 52/35/6
f 4/14/6 20/36/6 19/15/6
f 52/35/6 6/33/6 4/14/6
f 6/33/6 52/35/6 56/34/6
f 36/20/1 35/4/1 21/5/1
f 30/37/6 32/38/6 8/39/6
f 8/39/6 38/40/6 30/37/6
f 6/17/6 35/19/6 34/41/6
f 6/17/6 26/42/6 25/18/6
f 34/41/6 8/39/6 6/17/6
f 8/39/6 34/41/6 38/40/6
f 9/21/5 11/22/5 1/6/5
f 1/6/5 45/8/5 48/23/5
f 48/23/5 9/21/5 1/6/5
f 16/9/5 3/7/5 17/24/5
f 3/7/5 16/9/5 49/10/5
f 3/7/5 45/8/5 1/6/5
f 54/20/4 53/4/4 15/5/4
f 9/5/7 13/1/7 10/3/7
f 18/5/8 16/1/8 19/3/8
f 24/5/9 22/1/9 25/3/9
f 30/5/10 28/1/10 31/3/10
f 48/20/3 47/4/3 9/5/3
f 37/20/1 38/4/1 33/5/1
f 33/20/1 34/4/1 36/5/1
f 28/20/1 30/4/1 37/5/1
f 43/3/2 44/5/2 39/4/2
f 39/20/2 40/4/2 42/5/2
f 10/20/2 12/4/2 43/5/2
f 45/5/3 49/20/3 46/3/3
f 48/5/3 45/20/3 47/3/3
f 16/3/3 18/5/3 49/4/3
f 55/20/4 56/4/4 51/5/4
f 51/20/4 52/4/4 54/5/4
f 22/3/4 24/5/4 55/4/4
o Cylinder_Cylinder.001
v 41.559570 -66.309082 1.631348
v 41.559570 -64.309082 1.631348
v 42.559570 -66.309082 2.631348
v 42.559570 -64.309082 2.631348
v 41.559570 -66.309082 3.631348
v 41.559570 -64.309082 3.631348
v 40.559570 -66.309082 2.631348
v 40.559570 -64.309082 2.631348
vn 0.707100 0.000000 -0.707100
vn 0.707100 0.000000 0.707100
vn 0.000000 1.000000 0.000000
vn -0.707100 0.000000 -0.707100
vn -0.707100 0.000000 0.707100
vn 0.000000 -1.000000 0.000000
usemtl None
s off
f 58//11 60//11 59//11
f 60//12 62//12 61//12
f 58//13 64//13 62//13
f 64//14 58//14 57//14
f 62//15 64//15 63//15
f 59//16 61//16 63//16
f 57//11 58//11 59//11
f 59//12 60//12 61//12
f 60//13 58//13 62//13
f 63//14 64//14 57//14
f 61//15 62//15 63//15
f 57//16 59//16 63//16
