# Blender v2.66 (sub 1) OBJ File: 'supertree.blend'
# www.blender.org
o Plane.001
v -0.010281 4.820008 1.586744
v 1.198460 5.094720 1.421546
v -0.506984 5.744484 0.515040
v -1.518619 5.075309 0.869618
v 2.275119 5.050014 0.908165
v 2.383012 5.528438 0.175247
v 0.696960 5.967922 -0.001670
v -0.878053 5.648656 -0.768036
v -1.942304 4.458051 -0.106690
v -1.465243 4.361320 1.209694
v 1.448324 4.223286 1.571296
v 3.072629 4.818025 -0.137693
v 2.029640 5.499318 -1.133787
v 0.732537 5.521542 -1.452822
v -1.040996 5.105260 -1.103544
v -1.101032 3.782327 0.770194
v 1.908416 3.737845 0.871663
v 2.548981 4.311191 -0.765993
v 0.375869 4.598364 -1.559706
v -1.250287 3.963498 -0.482855
v 0.040018 3.489345 0.962333
v 1.597928 3.591514 0.116212
v 1.054218 3.682505 -0.653099
v 0.041769 4.003518 -1.039130
v 0.512314 0.000000 0.512314
v -0.512314 0.000000 0.512314
v 0.512314 0.000000 -0.512314
v -0.512314 0.000000 -0.512314
v 0.505653 1.483132 0.264172
v 0.104229 1.483132 0.264172
v 0.505653 1.483132 -0.137252
v 0.104229 1.483132 -0.137252
v 0.692578 2.471668 0.151680
v 0.493750 2.471668 0.151680
v 0.692578 2.471668 -0.047148
v 0.493750 2.471668 -0.047148
v 0.822830 2.883558 0.188912
v 0.644335 2.883558 0.188912
v 0.822830 2.883558 0.010418
v 0.644335 2.883558 0.010418
v 1.754628 3.435805 0.108738
v 1.654747 3.435805 0.108738
v 1.754628 3.435805 0.008857
v 1.654747 3.435805 0.008857
v 0.644335 2.883558 0.099665
v 1.654747 3.435805 0.058798
v 1.149541 3.159682 0.148825
v 1.149541 3.159682 0.009637
v 1.149541 3.159682 0.079231
v -0.363365 3.193765 0.060087
v -0.363365 3.193765 0.031333
v -0.341588 3.253330 0.065471
v -0.341588 3.253330 0.039658
v -0.341588 3.253330 0.052565
v -0.625741 3.765805 0.098167
v -0.625741 3.765805 0.069414
v -0.603964 3.825371 0.103551
v -0.603964 3.825371 0.077738
v -0.603964 3.825371 0.090645
v 1.741030 3.749238 0.097406
v 1.663813 3.749238 0.097406
v 1.741030 3.749238 0.020189
v 1.663813 3.749238 0.020189
v 1.663813 3.749238 0.058798
vt 0.441977 0.213654
vt 0.527061 0.101411
vt 0.580685 0.292750
vt 0.419813 0.386305
vt 0.799199 0.679553
vt 0.825922 0.551599
vt 0.891382 0.705486
vt 0.630018 0.257194
vt 0.653528 0.167817
vt 0.716587 0.264097
vt 0.884309 1.043435
vt 0.814825 1.043238
vt 0.799348 0.915130
vt 0.630018 0.170373
vt 0.593136 0.000000
vt 0.405032 0.029168
vt 0.500726 0.389240
vt 0.294279 0.315899
vt 0.294325 0.175034
vt 0.870205 0.791773
vt 0.914552 0.862058
vt 0.873994 0.395250
vt 0.969653 0.552856
vt 0.799564 0.389240
vt 0.709447 0.075739
vt 0.784400 0.129544
vt 0.807572 0.791773
vt 0.673288 0.389240
vt 0.784570 0.312199
vt 0.146238 0.872474
vt 0.106544 0.685919
vt 0.204884 0.724547
vt 0.085922 0.853432
vt 0.937707 0.431479
vt 0.799199 0.800183
vt 0.273211 0.091367
vt 0.273854 0.242868
vt 0.192321 0.064517
vt 0.037181 0.000000
vt 0.000335 0.067665
vt 0.107018 0.546868
vt 0.229838 0.490441
vt 0.205289 0.963547
vt 0.261407 0.892103
vt 0.174131 0.428880
vt 0.074313 0.203164
vt 0.294279 0.366623
vt 0.231651 0.490441
vt 0.130959 0.120467
vt 0.070478 0.321538
vt 0.000000 0.315129
vt 0.294279 0.648621
vt 0.262991 0.757707
vt 0.654421 0.902742
vt 0.546758 0.901707
vt 0.546532 0.793305
vt 0.903658 0.275898
vt 0.945447 0.283930
vt 0.893834 0.385261
vt 0.893333 0.106568
vt 1.000000 0.127072
vt 0.784570 0.086228
vt 0.893333 0.085894
vt 0.854003 0.243129
vt 0.561320 0.389240
vt 0.670018 0.389427
vt 0.625327 0.545651
vt 0.413467 0.799175
vt 0.304809 0.799108
vt 0.414033 0.638976
vt 0.009469 0.590123
vt 0.000000 0.590257
vt 0.001616 0.490460
vt 0.667912 0.545724
vt 0.665911 0.650115
vt 0.371464 0.638950
vt 0.433956 0.533624
vt 0.811392 0.243260
vt 0.823650 0.346553
vt 0.007430 0.646656
vt 0.014813 0.646551
vt 0.005391 0.703188
vt 0.687004 0.650151
vt 0.681890 0.693984
vt 0.412871 0.533611
vt 0.447904 0.489554
vt 0.844755 0.346489
vt 0.838776 0.389181
vt 0.039827 0.490444
vt 0.045121 0.490442
vt 0.044968 0.523576
vt 0.085922 0.587830
vt 0.067495 0.584333
vt 0.085864 0.492398
vt 0.700825 0.694017
vt 0.735247 0.723201
vt 0.428976 0.489542
vt 0.546532 0.431210
vt 0.000046 0.646760
vt 0.000093 0.703263
vt 0.018937 0.589990
vt 0.051793 0.490529
vt 0.053160 0.490441
vt 0.053150 0.553056
vt 0.322110 0.456477
vt 0.002986 0.490441
vt 0.576722 0.732520
vt 0.018937 0.490817
vt 0.039827 0.490441
vt 0.019173 0.587813
vt 0.053479 0.547282
vt 0.056524 0.547412
vt 0.054159 0.553878
vt 0.324439 0.450104
vt 0.294279 0.395613
vt 0.050426 0.490617
vt 0.051782 0.553144
vt 0.574411 0.726176
vt 0.548842 0.793305
vt 0.053679 0.490441
vt 0.056724 0.490571
vt 0.047975 0.531770
vt 0.039827 0.531786
vt 0.047980 0.527673
vt 0.050415 0.490441
vt 0.056893 0.490473
vt 0.067495 0.490441
vt 0.066394 0.523736
vt 0.788603 0.752417
vt 0.799199 0.752436
vt 0.797613 0.785632
vt 0.535940 0.431204
vt 0.536852 0.397949
vt 0.654195 0.794340
vt 0.914533 0.389240
vt 0.000247 0.490479
vt 0.010689 0.703113
vt 0.819829 0.389240
vt 0.040875 0.523577
vt 0.075552 0.490441
vt 0.482458 0.460373
vt 0.022194 0.587758
vt 0.056893 0.553994
vt 0.055526 0.553936
vt 0.296608 0.389240
vt 0.050415 0.553232
vt 0.546532 0.786961
vt 0.039837 0.523593
vt 0.047985 0.523577
vt 0.049061 0.523574
vt 0.058198 0.523761
vt 0.789421 0.785618
vt 0.545041 0.397954
vn 0.058062 0.859911 0.507131
vn 0.176399 0.865483 0.468852
vn 0.089535 0.193563 0.976994
vn 0.732679 0.515492 0.444353
vn -0.782849 0.479539 -0.396473
vn -0.075846 0.737367 0.671221
vn -0.212831 0.688903 0.692904
vn -0.527489 0.844839 0.089454
vn 0.295722 0.779422 0.552313
vn 0.087874 0.952709 -0.290903
vn 0.260160 0.961209 -0.091613
vn -0.190049 0.981603 -0.018349
vn -0.050011 0.954261 -0.294761
vn -0.933693 0.094681 0.345330
vn -0.763618 0.641399 -0.074133
vn -0.130558 -0.472617 0.871544
vn -0.131684 -0.345931 0.928973
vn -0.342998 0.382907 0.857749
vn 0.744120 -0.209146 0.634463
vn 0.743887 -0.245306 0.621657
vn 0.423526 0.270030 0.864702
vn 0.721455 0.103401 -0.684697
vn 0.659722 0.725973 -0.194241
vn -0.234435 0.200700 -0.951189
vn -0.285015 0.563993 -0.775035
vn -0.288722 -0.687449 0.666374
vn -0.740629 -0.634250 0.221799
vn 0.132790 -0.771286 0.622482
vn 0.686626 -0.726874 0.014092
vn 0.239117 0.020013 -0.970785
vn 0.321854 -0.148760 -0.935030
vn -0.608663 -0.289928 -0.738560
vn -0.403638 -0.378761 -0.832836
vn -0.133119 -0.970782 -0.199653
vn -0.229310 -0.966833 -0.112475
vn -0.596837 -0.801114 -0.044737
vn 0.000964 -0.992998 -0.118129
vn 0.137032 -0.981489 0.133795
vn 0.341660 -0.874260 -0.344872
vn 0.559759 -0.825683 -0.070124
vn 0.064562 -0.677480 -0.732702
vn 0.199107 -0.610983 -0.766196
vn -0.139790 -0.910073 -0.390162
vn -0.326220 -0.512122 -0.794551
vn 0.000000 -1.000000 0.000000
vn -0.930377 0.366604 0.000000
vn -0.923392 0.383858 0.000000
vn 0.999990 0.004492 -0.000000
vn 0.000000 0.165016 0.986291
vn 0.000000 0.245168 -0.969481
vn 0.351166 0.936313 -0.000000
vn 0.000000 0.113066 0.993587
vn 0.000000 0.090772 -0.995872
vn 0.982587 -0.185801 0.000000
vn -0.479597 0.877489 0.000000
vn 0.000000 -0.090025 0.995940
vn 0.000000 0.138415 -0.990374
vn 0.953462 -0.301512 0.000000
vn -0.999582 0.028913 0.000000
vn 0.509850 -0.860263 0.000000
vn 0.000000 0.143670 0.989626
vn 0.000000 -0.002826 -0.999996
vn -0.479598 0.877489 0.000000
vn 0.908950 0.416905 -0.000000
vn 0.019838 0.131271 -0.991148
vn -0.138465 -0.038830 0.989606
vn -0.644300 -0.764773 -0.000000
vn -0.939201 0.343368 0.000000
vn 0.087947 0.106271 -0.990440
vn -0.028798 -0.079539 0.996416
vn -0.908950 -0.416905 -0.000000
vn 0.000000 1.000000 -0.000000
vn 0.999060 0.043344 -0.000000
vn 0.000000 0.036131 0.999347
vn 0.000000 0.036131 -0.999347
vn 0.000000 -0.090025 0.995939
vn -0.000000 0.143671 0.989626
vn 0.000001 0.143670 0.989626
usemtl Material
s off
f 7/1/1 3/2/1 2/3/1
f 7/1/2 2/3/2 6/4/2
f 2/5/3 1/6/3 11/7/3
f 6/8/4 5/9/4 12/10/4
f 8/11/5 15/12/5 9/13/5
f 2/3/6 3/2/6 1/14/6
f 3/2/7 4/15/7 1/14/7
f 4/15/8 3/2/8 8/16/8
f 6/4/9 2/3/9 5/17/9
f 7/1/10 13/18/10 14/19/10
f 7/1/11 6/4/11 13/18/11
f 3/2/12 7/1/12 8/16/12
f 7/1/13 14/19/13 8/16/13
f 10/20/14 4/21/14 9/13/14
f 4/21/15 8/11/15 9/13/15
f 11/7/16 10/22/16 21/23/16
f 11/7/17 1/6/17 10/22/17
f 1/6/18 4/24/18 10/22/18
f 12/10/19 11/25/19 17/26/19
f 12/10/20 5/9/20 11/25/20
f 5/27/21 2/5/21 11/7/21
f 13/28/22 12/10/22 18/29/22
f 13/28/23 6/8/23 12/10/23
f 15/30/24 14/31/24 19/32/24
f 15/30/25 8/33/25 14/31/25
f 10/22/26 16/34/26 21/23/26
f 10/20/27 9/13/27 16/35/27
f 11/36/28 21/37/28 17/38/28
f 12/39/29 17/38/29 18/40/29
f 14/31/30 13/41/30 19/32/30
f 13/41/31 18/42/31 19/32/31
f 9/43/32 15/30/32 20/44/32
f 15/30/33 19/32/33 20/44/33
f 21/37/34 20/45/34 23/46/34
f 21/37/35 16/47/35 20/45/35
f 16/47/36 9/48/36 20/45/36
f 22/49/37 21/37/37 23/46/37
f 22/49/38 17/38/38 21/37/38
f 23/46/39 18/40/39 22/49/39
f 18/40/40 17/38/40 22/49/40
f 24/50/41 19/51/41 23/46/41
f 19/32/42 18/42/42 23/52/42
f 20/45/43 24/50/43 23/46/43
f 20/44/44 19/32/44 24/53/44
f 26/54/45 28/55/45 27/56/45
f 32/57/46 30/58/46 36/59/46
f 28/60/47 26/61/47 30/58/47
f 25/62/48 27/63/48 31/64/48
f 26/65/49 25/66/49 30/67/49
f 27/68/50 28/69/50 31/70/50
f 45/71/51 40/72/51 54/73/51
f 30/67/52 29/74/52 34/75/52
f 31/70/53 32/76/53 35/77/53
f 29/78/54 31/64/54 33/79/54
f 49/80/55 47/81/55 46/82/55
f 34/75/56 33/83/56 38/84/56
f 35/77/57 36/85/57 39/86/57
f 33/79/58 35/87/58 39/88/58
f 44/89/59 46/90/59 64/91/59
f 37/92/60 39/93/60 41/94/60
f 38/84/61 37/95/61 47/96/61
f 39/86/62 40/97/62 43/98/62
f 48/99/55 49/80/55 44/100/55
f 40/72/63 45/71/63 48/99/63
f 45/71/63 38/101/63 49/80/63
f 54/102/64 53/103/64 58/104/64
f 40/97/65 36/85/65 51/105/65
f 38/101/51 45/71/51 52/106/51
f 34/75/66 38/84/66 52/107/66
f 36/108/67 34/109/67 51/110/67
f 56/111/68 55/112/68 58/113/68
f 53/114/69 51/105/69 56/115/69
f 52/116/64 54/102/64 59/117/64
f 50/118/70 52/107/70 57/119/70
f 51/120/71 50/121/71 55/112/71
f 61/122/72 60/123/72 64/124/72
f 46/90/59 42/125/59 64/91/59
f 41/126/73 43/127/73 62/128/73
f 42/129/74 41/130/74 60/131/74
f 43/98/75 44/132/75 63/133/75
f 25/134/45 26/54/45 27/56/45
f 30/58/46 34/135/46 36/59/46
f 32/57/47 28/60/47 30/58/47
f 29/78/48 25/62/48 31/64/48
f 25/66/49 29/74/49 30/67/49
f 28/69/50 32/76/50 31/70/50
f 40/72/51 53/136/51 54/73/51
f 29/74/52 33/83/52 34/75/52
f 32/76/53 36/85/53 35/77/53
f 31/64/54 35/87/54 33/79/54
f 47/81/55 42/137/55 46/82/55
f 33/83/76 37/95/76 38/84/76
f 36/85/57 40/97/57 39/86/57
f 37/138/58 33/79/58 39/88/58
f 63/139/59 44/89/59 64/91/59
f 39/93/60 43/140/60 41/94/60
f 37/95/77 41/130/77 42/129/77
f 47/96/78 37/95/78 42/129/78
f 40/97/62 48/141/62 43/98/62
f 48/141/62 44/132/62 43/98/62
f 49/80/55 46/82/55 44/100/55
f 45/71/55 49/80/55 48/99/55
f 38/101/63 47/81/63 49/80/63
f 59/117/64 54/102/64 58/104/64
f 53/114/65 40/97/65 51/105/65
f 45/71/51 54/73/51 52/106/51
f 50/118/66 34/75/66 52/107/66
f 34/109/67 50/142/67 51/110/67
f 55/112/68 57/143/68 59/144/68
f 58/113/68 55/112/68 59/144/68
f 58/145/69 53/114/69 56/115/69
f 57/146/64 52/116/64 59/117/64
f 55/147/70 50/118/70 57/119/70
f 56/111/71 51/120/71 55/112/71
f 60/123/72 62/148/72 64/124/72
f 62/148/72 63/149/72 64/124/72
f 42/125/59 61/150/59 64/91/59
f 60/151/73 41/126/73 62/128/73
f 61/152/74 42/129/74 60/131/74
f 62/153/75 43/98/75 63/133/75
