# Blender v2.66 (sub 1) OBJ File: 'woodcube.blend'
# www.blender.org
o Cube
v 0.500000 0.500000 -0.500000
v 0.500000 -0.499999 -0.500000
v -0.500000 -0.499999 -0.500000
v -0.500000 0.500000 -0.500000
v 0.500000 0.499999 0.500000
v 0.499999 -0.500000 0.500000
v -0.500000 -0.500000 0.500000
v -0.500000 0.499999 0.500000
v 0.500000 -0.322337 -0.500000
v -0.500000 -0.322336 -0.500000
v 0.499999 -0.322337 0.500000
v -0.500000 -0.322337 0.500000
v 0.500000 0.331657 0.500000
v 0.500000 0.331658 -0.500000
v -0.500000 0.331657 0.500000
v -0.500000 0.331658 -0.500000
v 0.447105 0.297064 0.447105
v 0.447105 0.297065 -0.447105
v -0.447105 0.297064 0.447105
v -0.447105 0.297065 -0.447105
v -0.158203 0.500000 -0.500000
v -0.158203 -0.499999 -0.500000
v -0.158203 0.499999 0.500000
v -0.158203 -0.500000 0.500000
v -0.141467 0.297065 -0.447105
v -0.141467 0.297064 0.447105
v -0.141467 -0.287744 0.447105
v -0.141467 -0.287743 -0.447105
v -0.158203 0.331658 -0.500000
v -0.158203 0.331657 0.500000
v -0.141467 0.297064 0.447105
v -0.141467 0.297065 -0.447105
v 0.447105 -0.287744 -0.447105
v -0.447105 -0.287743 -0.447105
v 0.447105 -0.287744 0.447105
v -0.447105 -0.287744 0.447105
v -0.158203 -0.322336 -0.500000
v -0.158203 -0.322337 0.500000
v -0.141467 -0.287744 0.447105
v -0.141467 -0.287743 -0.447105
v 0.447105 -0.287744 -0.447105
v -0.447105 -0.287743 -0.447105
v 0.447105 -0.287744 0.447105
v -0.447105 -0.287744 0.447105
v -0.447105 0.297065 -0.447105
v -0.447105 0.297064 0.447105
v 0.447105 0.297065 -0.447105
v 0.447105 0.297064 0.447105
v 0.170898 -0.322337 0.500000
v 0.152819 -0.287744 0.447105
v 0.152819 0.297064 0.447105
v 0.152819 -0.287744 0.447105
v 0.170898 0.331657 0.500000
v 0.152819 0.297064 0.447105
v 0.170898 0.500000 -0.500000
v 0.170898 -0.499999 -0.500000
v 0.170898 0.499999 0.500000
v 0.170898 -0.500000 0.500000
v 0.170898 -0.322336 -0.500000
v 0.152819 -0.287744 -0.447105
v 0.152819 0.297065 -0.447105
v 0.152819 -0.287744 -0.447105
v 0.170898 0.331658 -0.500000
v 0.152819 0.297065 -0.447105
v 0.447105 0.146325 -0.447105
v -0.447105 0.146325 0.447105
v 0.447105 0.146325 0.447105
v -0.447105 0.146326 -0.447105
v -0.141467 0.146326 -0.447105
v -0.141467 0.146325 0.447105
v 0.152819 0.146326 -0.447105
v 0.152819 0.146325 0.447105
v 0.500000 0.331657 0.184357
v -0.500000 0.331658 0.184357
v 0.447105 0.297064 0.164854
v -0.447105 0.297065 0.164854
v 0.447105 -0.287744 -0.141126
v -0.447105 -0.287744 -0.141126
v -0.447105 0.297065 -0.141125
v 0.447105 0.297065 -0.141125
v -0.467439 0.146325 0.164854
v -0.467439 -0.070709 0.164854
v -0.467439 -0.070709 -0.141126
v -0.467439 0.146325 -0.141125
v -0.447105 -0.070709 -0.447105
v 0.447105 -0.070710 0.447105
v -0.447105 -0.070709 0.447105
v 0.447105 -0.070709 -0.447105
v 0.500000 -0.322337 0.184357
v -0.500000 -0.322337 0.184357
v 0.447105 -0.287744 0.164854
v -0.447105 -0.287744 0.164854
v 0.500000 0.499999 0.184357
v 0.499999 -0.500000 0.184357
v -0.500000 -0.500000 0.184357
v -0.500000 0.500000 0.184357
v -0.447105 0.146325 0.164854
v 0.447105 0.146325 0.164854
v -0.447105 -0.070709 0.164854
v 0.447105 -0.070710 0.164854
v 0.152819 -0.070709 -0.447105
v -0.141467 -0.070709 -0.447105
v 0.152819 -0.070710 0.447105
v -0.141467 -0.070710 0.447105
v -0.158203 -0.500000 0.184357
v -0.158203 0.500000 0.184357
v 0.170898 -0.500000 0.184357
v 0.170898 0.500000 0.184357
v 0.447105 -0.287744 0.164854
v -0.447105 -0.287744 0.164854
v -0.447105 0.297065 0.164854
v 0.447105 0.297064 0.164854
v 0.474149 0.146325 0.164854
v 0.474149 -0.070710 0.164854
v 0.474149 -0.070709 -0.141126
v 0.474149 0.146325 -0.141125
v -0.141467 0.146326 -0.447105
v -0.141467 0.146326 -0.472397
v 0.152819 0.146326 -0.472397
v 0.152819 -0.070709 -0.472398
v -0.141467 -0.070709 -0.472398
v 0.170898 0.500000 -0.157821
v -0.158203 0.500000 -0.157821
v 0.447105 -0.070709 -0.141126
v -0.447105 -0.070709 -0.141126
v -0.447105 0.297065 -0.141125
v 0.447105 0.297065 -0.141125
v -0.500000 0.331658 -0.157821
v 0.500000 0.331658 -0.157821
v -0.500000 -0.500000 -0.157822
v 0.500000 0.500000 -0.157821
v 0.500000 -0.500000 -0.157822
v -0.500000 0.500000 -0.157821
v -0.447105 -0.287744 -0.141126
v 0.447105 -0.287744 -0.141126
v -0.500000 -0.322337 -0.157822
v 0.500000 -0.322337 -0.157822
v 0.447105 0.146325 -0.141125
v -0.447105 0.146325 -0.141125
v 0.170898 -0.500000 -0.157822
v -0.158203 -0.500000 -0.157822
v -0.141467 -0.070710 0.470369
v 0.152819 -0.070710 0.470369
v 0.152819 0.146325 0.470369
v -0.141467 0.146325 0.470369
vt 0.803924 0.842025
vt 0.877367 0.841800
vt 0.804241 0.945451
vt 0.730506 0.546964
vt 0.730799 0.642475
vt 0.679496 0.547120
vt 0.553798 0.878255
vt 0.553481 0.981680
vt 0.480038 0.981455
vt 0.752939 0.243694
vt 0.753232 0.339205
vt 0.679789 0.339431
vt 0.803619 0.742441
vt 0.877061 0.742216
vt 0.554104 0.778671
vt 0.480661 0.778445
vt 0.803313 0.642857
vt 0.876756 0.642632
vt 0.554409 0.679086
vt 0.679472 0.842407
vt 0.730481 0.842250
vt 0.679789 0.945832
vt 0.803948 0.546738
vt 0.804241 0.642250
vt 0.678250 0.878636
vt 0.677933 0.982062
vt 0.626924 0.981906
vt 0.877391 0.243312
vt 0.877684 0.338823
vt 0.826675 0.338980
vt 0.679167 0.742823
vt 0.730176 0.742666
vt 0.678556 0.779052
vt 0.627547 0.778896
vt 0.678861 0.643239
vt 0.729870 0.643082
vt 0.678861 0.679468
vt 0.877391 0.546513
vt 0.877684 0.642024
vt 0.730188 0.443422
vt 0.679179 0.443579
vt 0.730798 0.945676
vt 0.826382 0.243468
vt 0.627241 0.878480
vt 0.752622 0.140153
vt 0.679496 0.243919
vt 0.627852 0.679312
vt 0.877074 0.139771
vt 0.877074 0.442972
vt 0.803631 0.443197
vt 0.729870 0.339881
vt 0.678861 0.340038
vt 0.876756 0.339431
vt 0.803313 0.339656
vt 0.876756 0.036230
vt 0.826065 0.139927
vt 0.825747 0.036386
vt 0.752304 0.036611
vt 0.679179 0.140378
vt 0.877684 0.945225
vt 0.679789 0.642632
vt 0.480355 0.878029
vt 0.480966 0.678861
vt 0.678861 0.036837
vt 0.878367 0.223769
vt 0.938487 0.223585
vt 0.938842 0.339246
vt 0.999317 0.223769
vt 0.998962 0.339431
vt 0.999672 0.571012
vt 1.000000 0.677823
vt 0.939880 0.678007
vt 0.223059 0.446597
vt 0.222731 0.339786
vt 0.338720 0.446242
vt 0.996136 0.909763
vt 0.995808 1.016575
vt 0.939170 0.909589
vt 0.116344 0.223285
vt 0.116700 0.339076
vt 0.001038 0.339431
vt 0.451834 0.339089
vt 0.340469 0.339431
vt 0.457897 0.321171
vt 0.340113 0.455221
vt 0.358313 0.357385
vt 0.563200 0.340114
vt 0.678861 0.340469
vt 0.660907 0.358313
vt 0.938514 0.571012
vt 0.938842 0.677823
vt 0.878395 0.571196
vt 0.678506 0.222602
vt 0.678861 0.338392
vt 0.660589 0.217007
vt 0.479355 0.901767
vt 0.479000 1.017428
vt 0.422389 0.901592
vt 0.000000 0.000000
vt 0.562162 0.000355
vt 0.677823 0.000000
vt 0.556553 0.018272
vt 0.397107 0.910442
vt 0.397434 1.017254
vt 0.340469 1.017428
vt 0.881522 0.900913
vt 0.938487 0.900738
vt 0.881876 1.016575
vt 0.450796 0.678165
vt 0.339431 0.677823
vt 0.357385 0.659979
vt 0.678151 0.572050
vt 0.677823 0.678861
vt 0.660272 0.565395
vt 0.339758 0.107849
vt 0.339431 0.001038
vt 0.357385 0.018883
vt 0.878026 0.112404
vt 0.938146 0.112219
vt 0.999658 0.112404
vt 0.939539 0.112219
vt 0.111693 0.446938
vt 0.111365 0.340127
vt 0.227710 0.222944
vt 0.228065 0.338734
vt 0.563200 0.338747
vt 0.557481 0.320865
vt 0.451834 0.339772
vt 0.457897 0.357690
vt 0.479696 0.790401
vt 0.422731 0.790227
vt 0.450796 0.000697
vt 0.881180 0.789548
vt 0.938146 0.789373
vt 0.562162 0.678506
vt 0.659979 0.660907
vt 0.456969 0.660284
vt 0.877684 0.001038
vt 0.937804 0.000854
vt 1.000000 0.001038
vt 0.000328 0.447280
vt 0.000000 0.340469
vt 0.339075 0.222602
vt 0.339431 0.338392
vt 0.480038 0.679036
vt 0.423072 0.678861
vt 0.456969 0.018577
vt 0.880838 0.678182
vt 0.937804 0.678007
vt 0.147814 0.851941
vt 0.147589 0.778498
vt 0.156373 0.851914
vt 0.678506 0.456259
vt 0.660589 0.461854
vt 0.223414 0.562387
vt 0.339075 0.562032
vt 0.115661 0.000683
vt 0.115989 0.107495
vt 0.000328 0.107849
vt 0.339758 0.571012
vt 0.209171 0.778671
vt 0.209396 0.852113
vt 0.201298 0.778695
vt 0.938159 0.455221
vt 0.878039 0.455406
vt 0.340114 0.223640
vt 0.357678 0.114394
vt 0.396751 0.794652
vt 0.340141 0.910617
vt 0.999317 0.455221
vt 0.939553 0.571196
vt 0.996491 0.793973
vt 0.939525 0.793798
vt 0.678151 0.106811
vt 0.660272 0.113466
vt 0.112048 0.562729
vt 0.227027 0.000342
vt 0.227355 0.107153
vt 0.000683 0.563071
vt 0.338392 0.000000
vt 0.338720 0.106811
vt 0.167681 0.782402
vt 0.167998 0.678861
vt 0.174879 0.678882
vt 0.412883 0.782430
vt 0.412565 0.678889
vt 0.421717 0.678861
vt 0.358313 0.321476
vt 0.357678 0.564467
vt 0.191922 0.679087
vt 0.265364 0.678861
vt 0.265670 0.778445
vt 0.996846 0.678182
vt 0.937804 0.339431
vt 0.877684 0.339615
vt 0.073986 0.852140
vt 0.073760 0.778697
vt 0.082319 0.778671
vt 0.406586 0.678861
vt 0.406903 0.782402
vt 0.397434 0.678889
vt 0.001038 0.678861
vt 0.112404 0.678520
vt 0.223769 0.678178
vt 0.339430 0.677823
vt 0.339113 0.678861
vt 0.339430 0.782402
vt 0.265670 0.679087
vt 0.939197 0.455406
vt 0.183057 0.778445
vt 0.183363 0.678861
vt 0.191922 0.678888
vt 0.396396 0.678861
vt 0.339786 0.794827
vt 0.191922 0.778500
vt 0.191696 0.851943
vt 0.182545 0.851914
vt 0.073443 0.678861
vt 0.073760 0.782402
vt 0.000318 0.782628
vt 0.000683 0.223640
vt 0.156691 0.882032
vt 0.156373 0.778491
vt 0.163254 0.778470
vt 0.164246 0.678861
vt 0.164551 0.778445
vt 0.156373 0.678885
vt 0.147814 0.778472
vt 0.147509 0.678888
vt 0.156373 0.778445
vt 0.183057 0.678885
vt 0.182752 0.778470
vt 0.174879 0.778445
vt 0.265445 0.778671
vt 0.265670 0.852113
vt 0.257798 0.852138
vt 0.089426 0.778671
vt 0.089651 0.852113
vt 0.082770 0.852135
vt 0.192147 0.852142
vt 0.191922 0.778699
vt 0.201073 0.778671
vt 0.147509 0.679087
vt 0.147203 0.778671
vt 0.074066 0.678861
vt 0.181760 0.778470
vt 0.181986 0.851912
vt 0.175105 0.851934
vt 0.878722 0.339431
vt 0.939197 0.223585
vt 0.338392 0.339431
vt 0.938842 1.016400
vt 0.357995 0.460926
vt 0.557481 0.357996
vt 0.878722 0.678007
vt 0.660907 0.320548
vt 0.422034 1.017254
vt 0.659979 0.017954
vt 0.556553 0.660590
vt 0.939880 0.000854
vt 0.156148 0.778472
vt 0.000000 0.001038
vt 0.201524 0.852138
vt 0.357995 0.217935
vt 0.174562 0.782423
vt 0.422034 0.782402
vt 0.192227 0.778671
vt 0.082545 0.852113
vt 0.397752 0.782430
vt 0.265988 0.782628
vt 0.938842 0.339615
vt 0.191616 0.778472
vt 0.339431 0.679036
vt 0.182770 0.778472
vt 0.000000 0.679087
vt 0.163572 0.882011
vt 0.156679 0.778470
vt 0.156068 0.678861
vt 0.175185 0.678861
vt 0.257572 0.778695
vt 0.082545 0.778692
vt 0.201298 0.852113
vt 0.073760 0.778445
vt 0.174879 0.778491
vn 0.000000 0.000001 -1.000000
vn -1.000000 0.000000 -0.000000
vn -0.000000 -0.000001 1.000000
vn 1.000000 -0.000001 0.000000
vn 1.000000 -0.000000 -0.000000
vn -0.000000 -1.000000 -0.000001
vn 0.000000 1.000000 0.000001
vn -0.000000 -0.836912 -0.547337
vn 0.547337 0.836913 0.000001
vn 0.000000 0.836913 -0.547336
vn -0.547337 -0.836912 -0.000001
vn -0.000000 -0.000000 1.000000
vn 0.000000 0.000000 0.000000
vn -0.000000 -0.836913 0.547335
vn 0.000000 0.836912 0.547337
vn -0.547336 0.836913 0.000000
vn 0.547336 -0.836913 -0.000001
vn -0.000000 -0.836913 0.547336
vn 0.547337 0.836912 0.000001
vn -1.000000 0.000001 0.000000
vn -0.547336 -0.836913 -0.000001
vn -0.547337 -0.836913 -0.000001
vn -0.000001 -1.000000 -0.000001
vn -0.547336 0.836913 0.000001
vn 0.000001 1.000000 0.000001
usemtl Woood
s off
f 102/1/1 28/2/1 85/3/1
f 97/4/2 66/5/2 111/6/2
f 104/7/3 87/8/3 36/9/3
f 100/10/4 86/11/4 35/12/4
f 101/13/1 62/14/1 28/2/1
f 103/15/3 104/7/3 52/16/3
f 88/17/1 33/18/1 101/13/1
f 86/19/3 103/15/3 52/16/3
f 25/20/1 69/21/1 45/22/1
f 99/23/2 87/24/2 97/4/2
f 26/25/3 46/26/3 66/27/3
f 112/28/4 48/29/4 67/30/4
f 61/31/1 71/32/1 69/21/1
f 51/33/3 26/25/3 72/34/3
f 47/35/1 65/36/1 61/31/1
f 48/37/3 51/33/3 72/34/3
f 110/38/2 36/39/2 99/23/2
f 139/40/2 97/4/2 79/41/2
f 65/36/1 88/17/1 71/32/1
f 69/21/1 102/1/1 68/42/1
f 98/43/5 67/30/5 86/11/5
f 70/44/3 66/27/3 87/8/3
f 124/45/5 100/10/5 109/46/5
f 67/47/3 72/34/3 103/15/3
f 80/48/5 112/28/5 98/43/5
f 78/49/2 110/38/2 125/50/2
f 68/51/2 139/40/2 45/52/2
f 34/53/2 78/49/2 85/54/2
f 47/55/5 80/48/5 138/56/5
f 65/57/5 138/56/5 124/45/5
f 85/54/2 125/50/2 68/51/2
f 88/58/5 124/45/5 77/59/5
f 28/2/1 34/60/1 85/3/1
f 66/5/2 46/61/2 111/6/2
f 27/62/3 104/7/3 36/9/3
f 109/46/5 100/10/5 35/12/5
f 102/1/1 101/13/1 28/2/1
f 104/7/3 27/62/3 52/16/3
f 33/18/1 62/14/1 101/13/1
f 35/63/3 86/19/3 52/16/3
f 69/21/1 68/42/1 45/22/1
f 87/24/2 66/5/2 97/4/2
f 70/44/3 26/25/3 66/27/3
f 98/43/5 112/28/5 67/30/5
f 25/20/1 61/31/1 69/21/1
f 26/25/3 70/44/3 72/34/3
f 65/36/1 71/32/1 61/31/1
f 67/47/3 48/37/3 72/34/3
f 36/39/2 87/24/2 99/23/2
f 97/4/2 111/6/2 79/41/2
f 88/17/1 101/13/1 71/32/1
f 102/1/1 85/3/1 68/42/1
f 100/10/5 98/43/5 86/11/5
f 104/7/3 70/44/3 87/8/3
f 77/59/5 124/45/5 109/46/5
f 86/19/3 67/47/3 103/15/3
f 138/56/5 80/48/5 98/43/5
f 110/38/2 99/23/2 125/50/2
f 139/40/2 79/41/2 45/52/2
f 78/49/2 125/50/2 85/54/2
f 65/57/5 47/55/5 138/56/5
f 88/58/5 65/57/5 124/45/5
f 125/50/2 139/40/2 68/51/2
f 33/64/5 88/58/5 77/59/5
usemtl Irooon
f 37/65/1 22/66/1 3/67/1
f 38/68/3 12/69/3 7/67/3
f 89/70/4 11/71/4 6/72/4
f 105/73/6 24/74/6 95/75/6
f 74/76/2 15/77/2 96/78/2
f 123/79/7 21/80/7 4/81/7
f 63/82/8 14/83/8 64/84/8
f 137/85/9 9/83/9 41/86/9
f 37/87/10 10/88/10 42/89/10
f 95/90/2 7/91/2 90/92/2
f 128/93/11 16/94/11 126/95/11
f 23/96/12 8/97/12 30/98/12
f 40/99/13 42/99/13 34/99/13
f 50/99/13 43/99/13 35/99/13
f 30/100/14 15/101/14 31/102/14
f 93/103/4 5/104/4 13/105/4
f 126/99/13 20/99/13 45/99/13
f 21/106/1 29/107/1 4/108/1
f 49/109/15 11/110/15 43/111/15
f 90/112/16 12/113/16 92/114/16
f 73/115/17 13/116/17 17/117/17
f 64/99/13 18/99/13 47/99/13
f 31/99/13 19/99/13 46/99/13
f 75/99/13 17/99/13 48/99/13
f 135/99/13 41/99/13 33/99/13
f 92/99/13 44/99/13 36/99/13
f 59/118/1 56/119/1 22/66/1
f 49/120/3 38/68/3 58/121/3
f 107/122/6 58/123/6 105/73/6
f 122/124/7 55/125/7 21/80/7
f 16/94/8 29/126/8 32/127/8
f 59/128/10 37/87/10 60/129/10
f 57/130/12 23/96/12 53/131/12
f 60/99/13 40/99/13 28/99/13
f 44/99/13 39/99/13 27/99/13
f 53/132/14 30/100/14 31/102/14
f 55/133/1 63/134/1 29/107/1
f 12/113/15 38/135/15 44/136/15
f 20/99/13 32/99/13 25/99/13
f 54/99/13 31/99/13 26/99/13
f 29/126/8 63/82/8 32/127/8
f 39/99/13 50/99/13 52/99/13
f 38/135/15 49/109/15 50/137/15
f 32/99/13 64/99/13 61/99/13
f 9/138/1 2/139/1 56/119/1
f 11/140/3 49/120/3 58/121/3
f 94/141/6 6/142/6 107/122/6
f 131/143/7 1/144/7 55/125/7
f 9/83/10 59/128/10 41/86/10
f 5/145/12 57/130/12 13/146/12
f 41/99/13 60/99/13 62/99/13
f 13/116/18 53/132/18 54/147/18
f 1/148/1 14/149/1 55/133/1
f 17/99/13 54/99/13 51/99/13
f 102/150/2 69/151/2 121/152/2
f 136/153/16 90/112/16 134/154/16
f 141/155/6 105/73/6 130/156/6
f 134/99/13 92/99/13 110/99/13
f 23/157/7 106/158/7 96/159/7
f 19/99/13 76/99/13 111/99/13
f 11/110/19 89/160/19 43/111/19
f 70/161/2 104/162/2 145/163/2
f 130/164/20 95/90/20 136/165/20
f 129/166/17 73/115/17 75/167/17
f 43/99/13 91/99/13 109/99/13
f 131/168/4 93/103/4 73/169/4
f 137/170/4 89/70/4 94/171/4
f 127/99/13 75/99/13 112/99/13
f 128/172/2 74/76/2 133/173/2
f 15/101/21 74/174/21 76/175/21
f 140/176/6 107/122/6 141/155/6
f 57/177/7 108/178/7 106/158/7
f 132/179/6 94/141/6 140/176/6
f 5/180/7 93/181/7 108/178/7
f 97/182/7 139/183/7 84/184/7
f 138/185/7 98/186/7 113/187/7
f 14/83/17 129/166/17 18/188/17
f 89/160/19 137/85/19 91/189/19
f 119/190/1 120/191/1 121/192/1
f 16/193/2 128/172/2 4/72/2
f 3/194/2 130/164/2 10/195/2
f 71/196/5 101/197/5 120/198/5
f 100/199/6 124/200/6 114/201/6
f 2/202/6 132/179/6 56/203/6
f 18/99/13 127/99/13 80/99/13
f 22/204/6 141/155/6 3/205/6
f 83/206/2 82/207/2 84/208/2
f 93/181/7 131/143/7 122/124/7
f 9/69/5 137/170/5 132/209/5
f 69/210/7 71/211/7 119/212/7
f 1/213/4 131/168/4 129/214/4
f 56/203/6 140/176/6 22/204/6
f 91/99/13 135/99/13 77/99/13
f 74/174/11 128/93/11 126/95/11
f 42/99/13 134/99/13 78/99/13
f 108/178/7 122/124/7 123/79/7
f 98/215/3 100/216/3 114/217/3
f 116/218/5 113/219/5 114/220/5
f 106/158/7 123/79/7 133/221/7
f 10/88/16 136/153/16 134/154/16
f 76/99/13 126/99/13 79/99/13
f 125/222/6 99/223/6 82/224/6
f 104/225/6 103/226/6 142/227/6
f 101/228/6 102/229/6 120/230/6
f 72/231/7 70/232/7 145/233/7
f 103/234/5 72/235/5 144/236/5
f 139/237/1 125/238/1 83/239/1
f 124/240/1 138/241/1 116/242/1
f 144/243/3 145/244/3 143/245/3
f 99/246/3 97/247/3 81/248/3
f 10/249/1 37/65/1 3/67/1
f 24/250/3 38/68/3 7/67/3
f 94/171/4 89/70/4 6/72/4
f 24/74/6 7/251/6 95/75/6
f 15/77/2 8/252/2 96/78/2
f 133/221/7 123/79/7 4/81/7
f 14/83/8 18/188/8 64/84/8
f 135/253/9 137/85/9 41/86/9
f 40/254/10 37/87/10 42/89/10
f 7/91/2 12/255/2 90/92/2
f 16/94/22 20/256/22 126/95/22
f 8/97/12 15/257/12 30/98/12
f 28/99/13 40/99/13 34/99/13
f 52/99/13 50/99/13 35/99/13
f 15/101/14 19/258/14 31/102/14
f 73/169/4 93/103/4 13/105/4
f 79/99/13 126/99/13 45/99/13
f 29/107/1 16/252/1 4/108/1
f 50/137/15 49/109/15 43/111/15
f 12/113/16 44/136/16 92/114/16
f 75/167/17 73/115/17 17/117/17
f 61/99/13 64/99/13 47/99/13
f 26/99/13 31/99/13 46/99/13
f 112/99/13 75/99/13 48/99/13
f 77/99/13 135/99/13 33/99/13
f 110/99/13 92/99/13 36/99/13
f 37/65/1 59/118/1 22/66/1
f 38/68/3 24/250/3 58/121/3
f 58/123/6 24/74/6 105/73/6
f 123/79/7 122/124/7 21/80/7
f 20/256/8 16/94/8 32/127/8
f 37/87/10 40/254/10 60/129/10
f 23/96/12 30/98/12 53/131/12
f 62/99/13 60/99/13 28/99/13
f 36/99/13 44/99/13 27/99/13
f 54/147/18 53/132/18 31/102/18
f 21/106/1 55/133/1 29/107/1
f 38/135/15 39/259/15 44/136/15
f 45/99/13 20/99/13 25/99/13
f 51/99/13 54/99/13 26/99/13
f 63/82/8 64/84/8 32/127/8
f 27/99/13 39/99/13 52/99/13
f 39/259/15 38/135/15 50/137/15
f 25/99/13 32/99/13 61/99/13
f 59/118/1 9/138/1 56/119/1
f 6/260/3 11/140/3 58/121/3
f 6/142/23 58/123/23 107/122/23
f 122/124/7 131/143/7 55/125/7
f 59/128/10 60/129/10 41/86/10
f 57/130/12 53/131/12 13/146/12
f 33/99/13 41/99/13 62/99/13
f 17/117/14 13/116/14 54/147/14
f 14/149/1 63/134/1 55/133/1
f 48/99/13 17/99/13 51/99/13
f 69/151/2 118/261/2 121/152/2
f 90/112/24 92/114/24 134/154/24
f 105/73/6 95/75/6 130/156/6
f 78/99/13 134/99/13 110/99/13
f 8/262/7 23/157/7 96/159/7
f 46/99/13 19/99/13 111/99/13
f 89/160/19 91/189/19 43/111/19
f 104/162/2 142/263/2 145/163/2
f 95/90/2 90/92/2 136/165/2
f 127/264/17 129/166/17 75/167/17
f 35/99/13 43/99/13 109/99/13
f 129/214/4 131/168/4 73/169/4
f 132/209/5 137/170/5 94/171/5
f 80/99/13 127/99/13 112/99/13
f 74/76/2 96/78/2 133/173/2
f 19/258/22 15/101/22 76/175/22
f 107/122/6 105/73/6 141/155/6
f 23/157/7 57/177/7 106/158/7
f 94/141/6 107/122/6 140/176/6
f 57/177/7 5/180/7 108/178/7
f 81/265/7 97/182/7 84/184/7
f 116/266/25 138/185/25 113/187/25
f 129/166/17 127/264/17 18/188/17
f 137/85/9 135/253/9 91/189/9
f 118/267/1 119/190/1 121/192/1
f 128/172/2 133/173/2 4/72/2
f 130/164/20 136/165/20 10/195/20
f 119/268/5 71/196/5 120/198/5
f 124/200/6 115/269/6 114/201/6
f 132/179/6 140/176/6 56/203/6
f 47/99/13 18/99/13 80/99/13
f 141/155/6 130/156/6 3/205/6
f 82/207/2 81/270/2 84/208/2
f 108/178/7 93/181/7 122/124/7
f 2/271/5 9/69/5 132/209/5
f 118/272/7 69/210/7 119/212/7
f 14/273/5 1/213/5 129/214/5
f 140/176/6 141/155/6 22/204/6
f 109/99/13 91/99/13 77/99/13
f 76/175/21 74/174/21 126/95/21
f 34/99/13 42/99/13 78/99/13
f 106/158/7 108/178/7 123/79/7
f 113/274/3 98/215/3 114/217/3
f 115/275/5 116/218/5 114/220/5
f 96/159/7 106/158/7 133/221/7
f 42/89/16 10/88/16 134/154/16
f 111/99/13 76/99/13 79/99/13
f 83/276/6 125/222/6 82/224/6
f 103/226/6 143/277/6 142/227/6
f 102/229/6 121/278/6 120/230/6
f 144/279/7 72/231/7 145/233/7
f 143/280/5 103/234/5 144/236/5
f 84/281/1 139/237/1 83/239/1
f 115/282/1 124/240/1 116/242/1
f 145/244/3 142/283/3 143/245/3
f 82/284/3 99/246/3 81/248/3
f 69 117
