# Blender v2.66 (sub 1) OBJ File: ''
# www.blender.org
o Cube_Cube.001
v -1.000000 -1.000000 1.000000
v -1.000000 -1.000000 -1.000000
v 1.000000 -1.000000 -1.000000
v 1.000000 -1.000000 1.000000
v -1.000000 1.000000 1.000000
v -1.000000 1.000000 -1.000000
v 1.000000 1.000000 -1.000000
v 1.000000 1.000000 1.000000
v -1.000000 0.000000 -1.000000
v -1.000000 0.000000 1.000000
v 1.000000 0.000000 -1.000000
v 1.000000 0.000000 1.000000
v 0.000000 1.000000 0.000000
v 0.000000 -1.000000 0.000000
v 0.000000 0.000000 -1.000000
v 0.000000 0.000000 1.000000
v 0.000000 1.000000 1.000000
v 0.000000 -1.000000 1.000000
v 1.000000 0.000000 0.000000
v -1.000000 0.000000 0.000000
v 0.000000 1.000000 -1.000000
v 0.000000 -1.000000 -1.000000
v 1.000000 -1.000000 0.000000
v 1.000000 1.000000 0.000000
v -1.000000 -1.000000 0.000000
v -1.000000 1.000000 0.000000
vt 0.500510 0.666157
vt 0.334353 0.666667
vt 0.333843 0.500510
vt 0.667176 0.500510
vt 0.666667 0.334353
vt 0.832824 0.333843
vt 0.167176 0.332824
vt 0.166667 0.166667
vt 0.332824 0.166157
vt 0.667176 0.167177
vt 0.833333 0.166667
vt 0.833843 0.332824
vt 0.333333 0.665647
vt 0.167176 0.666157
vt 0.332824 0.499490
vt 0.666667 0.001020
vt 0.832824 0.000510
vt 0.667686 0.666667
vt 0.833333 0.500000
vt 0.001020 0.333333
vt 0.000510 0.167176
vt 0.500000 0.500000
vt 0.333333 0.332314
vt 0.667686 0.333333
vt 0.166667 0.500000
vt 0.833843 0.666157
vt 0.499490 0.332824
vt 0.333843 0.166157
vt 0.666667 0.665647
vt 0.998980 0.000000
vt 0.999490 0.166157
vt 0.500000 0.166667
vt 0.666157 0.499490
vt 0.333333 0.334353
vt 0.998981 0.333333
vt 1.000000 0.332314
vt 0.001019 0.666667
vt 0.332314 0.333333
vt 0.999490 0.499490
vt 0.665647 0.333333
vt 0.666157 0.167176
vt 0.499490 0.333843
vt 0.000510 0.500510
vt 0.166157 0.333843
vt 1.000000 0.665647
vt 0.334353 0.000000
vt 0.166157 0.000510
vt 0.332314 0.000000
vt 0.000000 0.001020
vt 0.000000 0.334353
vt 0.500510 0.000510
vn 1.000000 -0.000000 0.000000
vn 0.000000 0.000000 1.000000
vn 0.000000 -1.000000 0.000000
vn 0.000000 1.000000 0.000000
vn -1.000000 0.000000 0.000000
vn 0.000000 0.000000 -1.000000
usemtl rED
s off
f 24/1/1 8/2/1 12/3/1
f 17/4/2 5/5/2 10/6/2
f 18/7/3 14/8/3 23/9/3
f 17/10/4 13/11/4 26/12/4
f 5/13/5 26/14/5 10/15/5
f 8/16/4 24/17/4 13/11/4
f 8/18/2 17/4/2 16/19/2
f 1/20/3 25/21/3 14/8/3
f 19/22/1 24/1/1 12/3/1
f 16/19/2 17/4/2 10/6/2
f 4/23/3 18/7/3 23/9/3
f 5/24/4 17/10/4 26/12/4
f 26/14/5 20/25/5 10/15/5
f 17/10/4 8/16/4 13/11/4
f 12/26/2 8/18/2 16/19/2
f 18/7/3 1/20/3 14/8/3
usemtl yELLOW
f 21/27/6 7/23/6 11/28/6
f 7/29/1 24/1/1 19/22/1
f 24/17/4 7/30/4 21/31/4
f 15/32/6 21/27/6 11/28/6
f 11/33/1 7/29/1 19/22/1
f 13/11/4 24/17/4 21/31/4
usemtl Green
f 19/22/1 12/3/1 4/34/1
f 16/19/2 10/6/2 1/35/2
f 13/11/4 21/31/4 6/36/4
f 26/14/5 6/37/5 20/25/5
f 10/15/5 20/25/5 1/38/5
f 12/26/2 16/19/2 18/39/2
f 6/40/6 21/27/6 9/41/6
f 23/42/1 19/22/1 4/34/1
f 18/39/2 16/19/2 1/35/2
f 26/12/4 13/11/4 6/36/4
f 6/37/5 9/43/5 20/25/5
f 20/25/5 25/44/5 1/38/5
f 4/45/2 12/26/2 18/39/2
f 21/27/6 15/32/6 9/41/6
usemtl Browm
f 20/25/5 9/43/5 25/44/5
f 15/32/6 11/28/6 3/46/6
f 14/8/3 22/47/3 3/48/3
f 9/41/6 15/32/6 2/16/6
f 11/33/1 19/22/1 23/42/1
f 25/21/3 2/49/3 22/47/3
f 9/43/5 2/50/5 25/44/5
f 22/51/6 15/32/6 3/46/6
f 23/9/3 14/8/3 3/48/3
f 15/32/6 22/51/6 2/16/6
f 3/40/1 11/33/1 23/42/1
f 14/8/3 25/21/3 22/47/3
