# Blender v2.74 (sub 0) OBJ File: 'railgun.blend'
# www.blender.org
o LowRes_Cube.004
v -0.038697 -0.002533 0.808128
v -0.050459 -0.009839 -0.902843
v 0.031014 -0.011021 -0.902492
v 0.034771 -0.005401 0.809796
v -0.100000 0.148899 0.802678
v -0.100000 0.153103 -0.902795
v 0.100000 0.153103 -0.902795
v 0.100000 0.148899 0.802678
v -0.100000 0.153103 0.545756
v -0.053978 -0.004798 0.445231
v 0.100000 0.153103 0.545756
v 0.048547 -0.005733 0.444347
v -0.042530 0.435369 0.796053
v 0.061441 0.437107 0.801951
v -0.042530 0.439573 0.539131
v 0.061441 0.441311 0.545029
v -0.100000 0.321805 0.545756
v 0.100000 0.321805 0.545756
v 0.100000 0.317601 0.802678
v -0.100000 0.317601 0.802678
v -0.042530 0.439573 -0.945459
v 0.061441 0.441311 -0.939561
v -0.100000 0.321805 -0.938834
v 0.100000 0.321805 -0.938834
v -0.048753 -0.004023 0.569312
v 0.100000 0.151666 0.633603
v -0.100000 0.151666 0.633603
v 0.043837 -0.005620 0.569301
v 0.061441 0.439873 0.632875
v -0.042530 0.438136 0.626978
v 0.100000 0.320367 0.633603
v -0.100000 0.320367 0.633603
v -0.040753 -0.002838 0.759315
v 0.100000 0.149465 0.768120
v -0.100000 0.149465 0.768120
v 0.036624 -0.005446 0.760640
v 0.061441 0.437672 0.767393
v -0.042530 0.435934 0.761495
v 0.100000 0.318166 0.768120
v -0.100000 0.318166 0.768120
v 0.043837 -0.005620 0.569301
v 0.036624 -0.005446 0.760640
v -0.029485 -0.178830 0.722725
v 0.016123 -0.179616 0.722719
v -0.025544 -0.178246 0.816316
v 0.012570 -0.179531 0.816969
v -0.100000 0.153103 0.100727
v 0.043160 -0.007358 0.030566
v -0.052897 -0.006346 0.031071
v 0.100000 0.153103 0.100727
v -0.038397 -0.057016 0.359852
v 0.031449 -0.057654 0.359250
v 0.027779 -0.058760 0.077358
v -0.037661 -0.058071 0.077701
vt 0.216173 0.510140
vt 0.220221 0.255790
vt 0.332171 0.262771
vt 0.865646 0.249687
vt 0.646909 0.249687
vt 0.722356 0.000000
vt 0.208462 0.442361
vt 0.212131 0.681267
vt 0.206094 0.681193
vt 0.646909 0.234783
vt 0.428171 0.234787
vt 0.495218 0.004360
vt 0.825944 0.616859
vt 0.828744 0.492019
vt 0.917864 0.492106
vt 1.000000 0.249945
vt 1.000000 0.492019
vt 0.879418 0.491841
vt 0.390172 0.512105
vt 0.381818 0.265867
vt 0.397273 0.266202
vt 0.123926 0.435735
vt 0.177542 0.435885
vt 0.167251 0.680716
vt 0.914790 0.124114
vt 0.914790 0.248224
vt 0.899723 0.242509
vt 0.825944 0.491738
vt 0.646909 0.491879
vt 0.646909 0.249829
vt 0.762966 0.932076
vt 0.876701 0.931417
vt 0.876725 0.943301
vt 0.646909 0.491503
vt 0.604737 0.673358
vt 0.491024 0.670699
vt 0.178860 0.179508
vt 0.182081 0.000502
vt 0.192653 0.002716
vt 0.418014 0.760498
vt 0.422161 0.759695
vt 0.428171 0.925735
vt 0.428171 0.930007
vt 0.428171 0.673358
vt 0.646909 0.673360
vt 0.428171 0.491507
vt 0.189432 0.181722
vt 0.416857 0.506937
vt 0.421004 0.506134
vt 0.825944 0.491879
vt 0.825944 0.733978
vt 0.664044 0.664412
vt 0.397338 0.931705
vt 0.219011 0.929692
vt 0.213001 0.763652
vt 0.000000 0.179006
vt 0.763038 0.734637
vt 0.400714 0.510063
vt 0.401870 0.763624
vt 0.188114 0.438099
vt 0.205622 0.185113
vt 0.391328 0.765665
vt 0.407881 0.929664
vt 0.208842 0.006107
vt 0.762991 0.943960
vt 0.876763 0.961500
vt 0.961474 0.999723
vt 0.876772 0.999723
vt 0.903593 0.733979
vt 0.420939 0.266716
vt 0.182596 0.680905
vt 0.646939 0.549585
vt 0.652839 0.547100
vt 0.652839 0.640825
vt 0.763028 0.962158
vt 0.876772 0.966175
vt 0.213001 0.006978
vt 0.204303 0.441490
vt 0.209781 0.185984
vt 0.424024 0.926538
vt 0.000000 0.000000
vt 0.646957 0.496630
vt 0.658276 0.491879
vt 0.658276 0.547100
vt 0.213001 0.947397
vt 0.201427 0.947255
vt 0.416513 0.000000
vt 0.762966 1.000000
vt 0.661678 1.000000
vt 0.686790 0.733978
vt 0.003024 0.435395
vt 0.117719 0.683410
vt 0.879418 0.249767
vt 0.825944 0.491762
vt 0.896993 0.733145
vt 0.825944 0.715563
vt 0.825944 0.636342
vt 0.336715 0.511501
vt 0.865646 0.207717
vt 0.865669 0.128497
vt 0.899723 0.124114
vt 0.339008 0.182186
vt 0.372830 0.184295
vt 0.157646 0.760748
vt 0.865646 0.124114
vt 0.865646 0.000000
vt 0.937463 0.019767
vt 0.811462 0.001800
vt 0.575569 0.000000
vt 0.931007 0.616859
vt 0.899781 0.130403
vt 0.825944 0.249687
vt 0.646909 0.930009
vt 0.661678 0.538556
vt 0.003220 0.000000
vt 0.876772 0.733978
vt 0.945316 0.733978
vt 0.427019 0.266848
vt 0.646909 0.638588
vt 0.763038 0.966834
vt 0.646909 0.542796
vt 0.428171 0.000253
vt 0.736683 0.733978
vt 0.006025 0.689484
vt 0.896993 0.616859
vt 0.899723 0.208665
vt 0.123902 0.762583
vt 0.937463 0.104321
vn -0.956800 -0.290900 -0.001400
vn 0.000000 -0.001800 -1.000000
vn 0.921100 -0.387800 0.035100
vn 0.000000 0.036000 0.999400
vn -0.014500 -0.999900 0.003700
vn 0.000000 1.000000 0.000000
vn -0.951700 -0.304100 0.042000
vn 0.951300 -0.308200 0.000000
vn -0.009100 -1.000000 0.000600
vn 0.000000 -1.000000 0.000000
vn -0.017600 0.999700 0.016400
vn -0.056400 -0.012100 0.998300
vn 0.951700 0.307100 0.005000
vn -0.898500 0.438900 0.007200
vn 0.000000 0.000000 -1.000000
vn 0.000000 0.000000 1.000000
vn 1.000000 0.000000 0.000000
vn -1.000000 0.000000 0.000000
vn 0.000000 -0.056200 -0.998400
vn -0.898700 0.438600 0.000000
vn 0.951700 0.307100 0.000000
vn -0.016700 0.999900 0.000000
vn -0.005900 0.308600 0.951200
vn -0.943800 -0.327900 0.041800
vn 0.942500 -0.334300 -0.005500
vn -0.932100 -0.362200 -0.005900
vn -0.033800 -0.999400 0.007700
vn 0.925600 -0.378400 -0.006200
vn -0.017200 -0.999800 0.007000
vn 0.991500 -0.124900 0.037500
vn -0.996500 -0.072600 0.042400
vn -0.011500 -0.660300 -0.750900
vn 0.942600 -0.333900 0.000000
vn -0.011000 -0.671300 -0.741100
vn -0.959200 -0.282700 -0.001400
vn -0.010500 -0.999900 0.004100
vn -0.958900 -0.283700 -0.001400
vn 0.955100 -0.296100 -0.011300
vn -0.003300 -0.853400 0.521300
vn -0.959000 -0.283300 0.000000
vn 0.004300 0.001600 -1.000000
vn -0.020500 0.054700 0.998300
vn -0.950500 -0.310800 -0.005100
vn 0.944100 -0.329600 -0.011000
vn 0.000000 0.056200 0.998400
vn 0.056400 0.012100 -0.998300
vn 0.943800 -0.328600 0.035900
vn -0.926700 -0.373600 0.041400
vn -0.039000 -0.999200 -0.000600
vn 0.936500 -0.349000 0.035600
vn -0.033700 -0.999400 -0.000400
vn 0.921800 -0.387500 -0.010500
vn -0.960100 -0.279800 0.000000
vn -0.009100 -1.000000 0.003700
usemtl None
s off
f 6/1/1 2/2/1 49/3/1
f 6/4/2 7/5/2 3/6/2
f 8/7/3 4/8/3 36/9/3
f 8/10/4 5/11/4 1/12/4
f 49/13/5 2/14/5 3/15/5
f 7/16/6 6/17/6 47/18/6
f 9/19/7 10/20/7 25/21/7
f 50/22/8 11/23/8 12/24/8
f 10/25/9 12/26/9 28/27/9
f 17/28/10 23/29/10 24/30/10
f 16/31/11 15/32/11 30/33/11
f 19/34/12 14/35/12 13/36/12
f 18/37/13 16/38/13 29/39/13
f 40/40/14 20/41/14 13/42/14
f 9/43/15 17/44/15 18/45/15
f 8/10/16 19/34/16 20/46/16
f 11/23/17 18/37/17 31/47/17
f 35/48/18 5/49/18 20/41/18
f 24/50/19 23/51/19 21/52/19
f 15/53/20 21/54/20 23/55/20
f 16/38/21 18/37/21 24/56/21
f 15/32/22 16/31/22 22/57/22
f 9/19/18 27/58/18 32/59/18
f 26/60/17 31/47/17 39/61/17
f 17/62/14 32/59/14 30/63/14
f 31/47/13 29/39/13 37/64/13
f 29/65/11 30/33/11 38/66/11
f 36/67/23 33/68/23 45/69/23
f 27/58/24 25/21/24 33/70/24
f 11/23/25 26/60/25 28/71/25
f 5/49/26 35/48/26 33/70/26
f 1/72/27 33/73/27 36/74/27
f 37/75/11 38/66/11 13/76/11
f 39/61/13 37/64/13 14/77/13
f 34/78/17 39/61/17 19/79/17
f 27/58/18 35/48/18 40/40/18
f 32/59/14 40/40/14 38/80/14
f 26/60/28 34/78/28 36/9/28
f 28/81/16 36/81/16 42/81/16
f 45/82/29 43/83/29 44/84/29
f 36/9/30 46/85/30 44/86/30
f 33/70/31 25/21/31 43/87/31
f 25/88/32 28/89/32 44/90/32
f 7/91/33 50/22/33 48/92/33
f 50/93/6 47/18/6 9/94/6
f 48/95/34 53/96/34 54/97/34
f 47/98/35 49/3/35 10/20/35
f 54/99/36 53/100/36 52/101/36
f 49/3/37 54/102/37 51/103/37
f 48/92/38 12/24/38 52/104/38
f 12/105/39 10/106/39 51/107/39
f 47/98/40 6/1/40 49/3/40
f 2/108/41 6/4/41 3/6/41
f 34/78/28 8/7/28 36/9/28
f 4/109/42 8/10/42 1/12/42
f 48/110/36 49/13/36 3/15/36
f 50/93/6 7/16/6 47/18/6
f 27/58/43 9/19/43 25/21/43
f 48/92/44 50/22/44 12/24/44
f 25/111/29 10/25/29 28/27/29
f 18/112/10 17/28/10 24/30/10
f 29/65/11 16/31/11 30/33/11
f 20/46/45 19/34/45 13/36/45
f 31/47/13 18/37/13 29/39/13
f 38/80/14 40/40/14 13/42/14
f 11/113/15 9/43/15 18/45/15
f 5/11/16 8/10/16 20/46/16
f 26/60/17 11/23/17 31/47/17
f 40/40/18 35/48/18 20/41/18
f 22/114/46 24/50/46 21/52/46
f 17/62/20 15/53/20 23/55/20
f 22/115/21 16/38/21 24/56/21
f 21/116/22 15/32/22 22/57/22
f 17/62/18 9/19/18 32/59/18
f 34/78/17 26/60/17 39/61/17
f 15/53/14 17/62/14 30/63/14
f 39/61/13 31/47/13 37/64/13
f 37/75/11 29/65/11 38/66/11
f 46/117/23 36/67/23 45/69/23
f 35/48/26 27/58/26 33/70/26
f 12/24/47 11/23/47 28/71/47
f 1/118/48 5/49/48 33/70/48
f 4/119/49 1/72/49 36/74/49
f 14/120/11 37/75/11 13/76/11
f 19/79/13 39/61/13 14/77/13
f 8/7/17 34/78/17 19/79/17
f 32/59/18 27/58/18 40/40/18
f 30/63/14 32/59/14 38/80/14
f 28/71/50 26/60/50 36/9/50
f 41/81/16 28/81/16 42/81/16
f 46/121/51 45/82/51 44/84/51
f 28/71/30 36/9/30 44/86/30
f 45/122/31 33/70/31 43/87/31
f 43/123/32 25/88/32 44/90/32
f 3/124/52 7/91/52 48/92/52
f 11/112/6 50/93/6 9/94/6
f 49/125/34 48/95/34 54/97/34
f 9/19/53 47/98/53 10/20/53
f 51/126/54 54/99/54 52/101/54
f 10/20/37 49/3/37 51/103/37
f 53/127/38 48/92/38 52/104/38
f 52/128/39 12/105/39 51/107/39
