# Blender v2.66 (sub 1) OBJ File: ''
# www.blender.org
o Cube_Cube.001
v -0.285241 -0.397300 0.500000
v -0.285241 -0.500000 0.397300
v -0.285241 0.397300 0.500000
v -0.285241 0.500000 0.397300
v -0.285241 -0.397300 -0.500000
v -0.285241 -0.500000 -0.397300
v -0.285241 0.397300 -0.500000
v -0.285241 0.500000 -0.397300
v -0.500000 -0.397300 0.397300
v -0.397300 -0.500000 0.397300
v -0.397300 -0.397300 0.500000
v -0.500000 -0.397300 -0.397300
v -0.397300 -0.397300 -0.500000
v -0.397300 -0.500000 -0.397300
v 0.397300 -0.397300 -0.500000
v 0.500000 -0.397300 -0.397300
v 0.397300 -0.500000 -0.397300
v 0.500000 -0.397300 0.397300
v 0.397300 -0.397300 0.500000
v 0.397300 -0.500000 0.397300
v -0.397300 0.397300 0.500000
v -0.397300 0.500000 0.397300
v -0.500000 0.397300 0.397300
v -0.500000 0.397300 -0.397300
v -0.397300 0.500000 -0.397300
v -0.397300 0.397300 -0.500000
v 0.397300 0.397300 -0.500000
v 0.397300 0.500000 -0.397300
v 0.500000 0.397300 -0.397300
v 0.500000 0.397300 0.397300
v 0.397300 0.500000 0.397300
v 0.397300 0.397300 0.500000
v -0.397300 0.302220 0.500000
v -0.500000 0.302220 0.397300
v 0.500000 0.302220 -0.397300
v 0.397300 0.302220 -0.500000
v 0.286889 -0.500000 -0.397300
v 0.286889 0.500000 0.397300
v 0.286889 -0.397300 0.500000
v 0.286889 0.397300 -0.500000
v 0.286889 -0.500000 0.397300
v 0.286889 0.397300 0.500000
v 0.286889 -0.397300 -0.500000
v 0.286889 0.500000 -0.397300
v 0.397300 0.302220 0.500000
v 0.500000 0.302220 0.397300
v 0.286889 0.302220 0.500000
v 0.286889 0.302220 -0.500000
v -0.397300 -0.295428 0.500000
v 0.397300 -0.295428 -0.500000
v 0.397300 -0.295428 0.500000
v 0.500000 -0.295428 -0.397300
v -0.285241 0.302220 0.500000
v -0.285241 0.302220 -0.500000
v -0.397300 0.302220 -0.500000
v -0.500000 0.302220 -0.397300
v -0.500000 -0.295428 0.397300
v -0.397300 -0.295428 -0.500000
v -0.285241 -0.295428 -0.500000
v -0.285241 -0.295428 0.500000
v -0.500000 -0.397300 -0.281845
v 0.397300 0.500000 -0.281845
v 0.500000 0.397300 -0.281845
v 0.397300 -0.500000 -0.281845
v -0.285241 0.500000 -0.281845
v -0.397300 0.500000 -0.281845
v -0.500000 0.397300 -0.281845
v -0.397300 -0.500000 -0.281845
v 0.500000 -0.295428 0.397300
v -0.500000 -0.295428 -0.397300
v 0.286889 -0.295428 -0.500000
v 0.286889 -0.295428 0.500000
v 0.286889 0.500000 -0.281845
v 0.286889 -0.500000 -0.281845
v -0.500000 -0.295428 -0.281845
v 0.500000 -0.295428 -0.281845
v 0.500000 -0.397300 -0.281845
v -0.285241 -0.500000 -0.281845
v 0.500000 0.302220 -0.281845
v -0.500000 0.302220 -0.281845
v 0.397300 -0.500000 0.280921
v 0.500000 0.302220 0.280921
v -0.500000 -0.295428 0.280921
v -0.397300 0.500000 0.280921
v 0.500000 -0.397300 0.280921
v -0.285241 -0.500000 0.280921
v 0.500000 -0.295428 0.280921
v -0.500000 0.302220 0.280921
v 0.397300 0.500000 0.280921
v -0.397300 -0.500000 0.280921
v -0.500000 0.397300 0.280921
v -0.285241 0.500000 0.280921
v 0.500000 0.397300 0.280921
v -0.500000 -0.397300 0.280921
v 0.286889 -0.500000 0.280921
v 0.286889 0.500000 0.280921
v 0.286889 0.302220 0.500000
v 0.286889 0.302220 -0.500000
v -0.285241 0.302220 0.500000
v -0.285241 0.302220 -0.500000
v -0.285241 -0.295428 -0.500000
v -0.285241 -0.295428 0.500000
v -0.285241 0.500000 -0.281845
v 0.286889 -0.295428 -0.500000
v 0.286889 -0.295428 0.500000
v 0.286889 0.500000 -0.281845
v 0.286889 -0.500000 -0.281845
v -0.500000 -0.295428 -0.281845
v 0.500000 -0.295428 -0.281845
v -0.285241 -0.500000 -0.281845
v 0.500000 0.302220 -0.281845
v -0.500000 0.302220 -0.281845
v 0.500000 0.302220 0.280921
v -0.500000 -0.295428 0.280921
v -0.285241 -0.500000 0.280921
v 0.500000 -0.295428 0.280921
v -0.500000 0.302220 0.280921
v -0.285241 0.500000 0.280921
v 0.286889 -0.500000 0.280921
v 0.286889 0.500000 0.280921
vt 0.261676 0.070723
vt 0.261563 0.033874
vt 0.295062 0.033771
vt 0.853512 0.368007
vt 0.853394 0.329738
vt 0.886893 0.329635
vt 0.553753 0.258330
vt 0.591718 0.258213
vt 0.591831 0.295062
vt 0.227904 0.661908
vt 0.227792 0.625602
vt 0.261291 0.625499
vt 0.228012 0.401474
vt 0.227896 0.363509
vt 0.261511 0.401372
vt 0.262254 0.258858
vt 0.295175 0.070620
vt 0.294959 0.000000
vt 0.328833 0.033668
vt 0.363303 0.658468
vt 0.329635 0.624593
vt 0.363406 0.624697
vt 0.330436 0.363302
vt 0.364311 0.329635
vt 0.364208 0.363406
vt 0.295967 0.328833
vt 0.295864 0.295062
vt 0.329635 0.294959
vt 0.033771 0.034573
vt 0.000000 0.034676
vt 0.033668 0.000802
vt 0.591935 0.328833
vt 0.625602 0.294959
vt 0.624801 0.033668
vt 0.591029 0.033771
vt 0.590926 0.000000
vt 0.034676 0.329635
vt 0.000802 0.295967
vt 0.034573 0.295864
vt 0.553866 0.295179
vt 0.553969 0.328950
vt 0.227792 0.329738
vt 0.261291 0.329635
vt 0.586428 0.625381
vt 0.624697 0.625499
vt 0.586324 0.659152
vt 0.065037 0.034477
vt 0.064933 0.000706
vt 0.591141 0.070078
vt 0.854196 0.591029
vt 0.887695 0.590926
vt 0.887798 0.624697
vt 0.363519 0.587848
vt 0.329748 0.587745
vt 0.368008 0.034455
vt 0.329739 0.034573
vt 0.329635 0.000802
vt 0.262365 0.295165
vt 0.402173 0.363523
vt 0.000113 0.071525
vt 0.329524 0.258652
vt 0.402062 0.399829
vt 0.364096 0.399713
vt 0.553176 0.070195
vt 0.228594 0.886892
vt 0.228481 0.850044
vt 0.262093 0.886790
vt 0.000690 0.259661
vt 0.033884 0.071422
vt 0.328946 0.070516
vt 0.401372 0.624813
vt 0.000802 0.887591
vt 0.000689 0.850743
vt 0.032067 0.887495
vt 0.330325 0.399609
vt 0.000111 0.662607
vt 0.031377 0.662511
vt 0.034461 0.259557
vt 0.261402 0.661806
vt 0.065150 0.071326
vt 0.624912 0.069974
vt 0.295752 0.258755
vt 0.553064 0.033888
vt 0.401485 0.587965
vt 0.031954 0.850647
vt 0.625720 0.368706
vt 0.625602 0.330437
vt 0.656868 0.330341
vt 0.000000 0.330437
vt 0.031266 0.330341
vt 0.000104 0.364208
vt 0.261460 0.000103
vt 0.065838 0.295768
vt 0.065942 0.329539
vt 0.000000 0.626300
vt 0.031266 0.626204
vt 0.000220 0.402173
vt 0.031486 0.402077
vt 0.626404 0.591727
vt 0.657669 0.591632
vt 0.657773 0.625403
vt 0.368809 0.295746
vt 0.368913 0.329518
vt 0.656985 0.368610
vt 0.065727 0.259461
vt 0.228580 0.586531
vt 0.262079 0.586428
vt 0.368119 0.070762
vt 0.000000 0.000000
vt 0.625387 0.400515
vt 0.587118 0.400397
vt 0.587230 0.364090
vt 0.329850 0.070880
vt 0.368696 0.258898
vt 0.262469 0.328936
vt 0.657553 0.553666
vt 0.854079 0.553063
vt 0.854300 0.624800
vt 0.000788 0.587230
vt 0.032053 0.587134
vt 0.031369 0.364112
vt 0.626287 0.553762
vt 0.402277 0.329751
vt 0.887578 0.552961
vt 0.552961 0.000116
vt 0.401268 0.658585
vt 0.228697 0.624800
vt 0.262196 0.624697
vt 0.586541 0.588533
vt 0.625499 0.364208
vt 0.587333 0.330319
vt 0.624810 0.588650
vt 0.032171 0.625403
vt 0.330540 0.295864
vt 0.330644 0.329635
vt 0.330427 0.259015
vt 0.887011 0.367904
vt 0.000905 0.625499
vt 0.367904 0.000684
vt 0.261395 0.363406
vt 0.624593 0.659270
vt 0.261980 0.849941
vt 0.625489 0.258110
vt 0.626507 0.625499
vt 0.625602 0.330436
vt 0.999974 0.813634
vt 0.814918 0.814202
vt 0.814341 0.626066
vt 0.625602 0.626076
vt 0.813738 0.625499
vt 0.814341 0.822025
vt 0.625602 0.133108
vt 0.813738 0.132531
vt 0.814341 0.329058
vt 0.515294 0.855796
vt 0.330238 0.856364
vt 0.514691 0.659270
vt 0.814341 0.814769
vt 0.999397 0.814202
vt 0.999974 1.002337
vt 1.000000 0.329067
vt 0.814944 0.329635
vt 0.814341 0.133108
vt 0.999397 0.625499
vt 0.626205 0.822602
vt 0.626205 0.329635
vt 0.329635 0.659837
vt 0.814918 1.002905
vt 0.999397 0.132541
vn 0.000000 0.000000 1.000000
vn 1.000000 -0.000000 0.000000
vn 0.000000 1.000000 0.000000
vn 0.000000 0.000000 -1.000000
vn -1.000000 0.000000 0.000000
vn -0.577350 -0.577350 0.577350
vn -0.577350 -0.577350 -0.577350
vn 0.577350 -0.577350 -0.577350
vn 0.577350 -0.577350 0.577350
vn -0.577350 0.577350 0.577350
vn -0.577350 0.577350 -0.577350
vn 0.577350 0.577350 -0.577350
vn 0.577350 0.577350 0.577350
vn -0.707107 0.707107 0.000000
vn -0.707107 0.000000 -0.707107
vn -0.707107 -0.707107 -0.000000
vn -0.707107 0.000000 0.707107
vn 0.000000 0.707107 -0.707107
vn 0.707107 0.000000 -0.707107
vn 0.000000 -0.707107 -0.707107
vn 0.707107 0.707107 0.000000
vn 0.707107 -0.000000 0.707107
vn 0.707107 -0.707107 0.000000
vn -0.000000 0.707107 0.707107
vn 0.000000 -0.707107 0.707107
vn 0.000000 -1.000000 0.000000
vn 0.000000 0.000000 0.000000
usemtl Material.001
s off
f 60/1/1 49/2/1 11/3/1
f 87/4/2 69/5/2 18/6/2
f 65/7/3 8/8/3 25/9/3
f 71/10/4 50/11/4 15/12/4
f 75/13/5 70/14/5 61/15/5
f 72/16/1 60/1/1 1/17/1
f 9/18/6 10/19/6 11/3/6
f 12/20/7 13/21/7 14/22/7
f 15/23/8 16/24/8 17/25/8
f 18/26/9 19/27/9 20/28/9
f 21/29/10 22/30/10 23/31/10
f 24/32/11 25/9/11 26/33/11
f 27/34/12 28/35/12 29/36/12
f 30/37/13 31/38/13 32/39/13
f 66/40/14 25/9/14 67/41/14
f 58/42/15 13/43/15 70/14/15
f 90/44/16 10/45/16 94/46/16
f 33/47/17 21/29/17 34/48/17
f 44/49/18 28/35/18 27/34/18
f 52/50/19 16/51/19 15/52/19
f 6/53/20 14/22/20 5/54/20
f 89/55/21 31/56/21 30/57/21
f 51/58/22 19/27/22 18/26/22
f 64/59/23 17/25/23 16/24/23
f 4/60/24 22/30/24 21/29/24
f 41/61/25 20/28/25 19/27/25
f 74/62/26 37/63/26 17/25/26
f 73/64/3 44/49/3 8/8/3
f 58/65/4 59/66/4 13/67/4
f 25/9/18 8/8/18 26/33/18
f 37/63/20 6/53/20 5/54/20
f 38/68/24 4/60/24 3/69/24
f 10/19/25 2/70/25 1/17/25
f 68/71/26 14/22/26 6/53/26
f 26/72/4 7/73/4 55/74/4
f 17/25/20 37/63/20 43/75/20
f 7/73/4 40/76/4 48/77/4
f 31/38/24 38/68/24 42/78/24
f 59/66/4 71/10/4 43/79/4
f 42/78/1 3/69/1 53/80/1
f 8/8/18 44/49/18 40/81/18
f 51/58/1 72/16/1 39/82/1
f 62/83/3 28/35/3 44/49/3
f 78/84/26 6/53/26 37/63/26
f 3/69/1 21/29/1 33/47/1
f 55/74/4 54/85/4 58/65/4
f 93/86/2 30/87/2 46/88/2
f 26/89/15 55/90/15 24/91/15
f 49/2/17 33/47/17 57/92/17
f 2/70/25 41/61/25 39/82/25
f 32/39/22 45/93/22 46/94/22
f 40/76/4 27/95/4 36/96/4
f 67/97/5 24/91/5 80/98/5
f 29/99/19 35/100/19 36/101/19
f 84/102/14 66/40/14 91/103/14
f 82/104/2 46/88/2 69/5/2
f 32/39/1 42/78/1 47/105/1
f 83/106/5 75/13/5 94/107/5
f 89/55/3 62/83/3 73/64/3
f 31/56/3 89/55/3 96/108/3
f 53/109/27 60/109/27 102/109/27
f 41/110/26 95/111/26 81/112/26
f 38/113/3 96/108/3 92/114/3
f 11/3/17 49/2/17 9/18/17
f 90/44/26 68/71/26 78/84/26
f 75/109/27 83/109/27 114/109/27
f 45/93/22 51/58/22 69/115/22
f 53/80/1 33/47/1 49/2/1
f 35/100/2 79/116/2 76/117/2
f 92/114/3 65/7/3 66/40/3
f 35/100/19 52/50/19 50/118/19
f 91/119/5 67/97/5 88/120/5
f 48/77/4 36/96/4 50/11/4
f 55/90/15 58/42/15 56/121/15
f 87/109/27 76/109/27 109/109/27
f 80/98/5 56/121/5 75/13/5
f 45/93/1 47/105/1 72/16/1
f 29/99/2 63/122/2 79/116/2
f 48/109/27 71/109/27 104/109/27
f 95/111/26 74/62/26 64/59/26
f 81/112/23 64/59/23 77/123/23
f 52/50/2 76/117/2 77/124/2
f 28/35/21 62/83/21 63/125/21
f 14/22/16 68/71/16 12/20/16
f 68/71/16 90/44/16 61/126/16
f 57/127/5 83/106/5 9/128/5
f 96/109/27 73/109/27 106/109/27
f 10/45/26 90/44/26 86/129/26
f 20/130/23 81/112/23 85/131/23
f 63/122/2 93/86/2 82/104/2
f 2/132/26 86/129/26 95/111/26
f 95/109/27 86/109/27 115/109/27
f 34/133/5 88/120/5 57/127/5
f 22/134/14 84/102/14 23/135/14
f 4/136/3 92/114/3 84/102/3
f 76/117/2 87/4/2 85/137/2
f 23/138/5 91/119/5 34/133/5
f 62/83/21 89/55/21 93/139/21
f 74/109/27 95/109/27 119/109/27
f 65/109/27 92/109/27 118/109/27
f 78/109/27 74/109/27 107/109/27
f 73/109/27 65/109/27 103/109/27
f 86/109/27 78/109/27 110/109/27
f 82/109/27 87/109/27 116/109/27
f 92/109/27 96/109/27 120/109/27
f 54/109/27 48/109/27 98/109/27
f 83/109/27 88/109/27 117/109/27
f 59/109/27 54/109/27 100/109/27
f 60/109/27 72/109/27 105/109/27
f 76/109/27 79/109/27 111/109/27
f 80/109/27 75/109/27 108/109/27
f 71/109/27 59/109/27 101/109/27
f 72/109/27 47/109/27 97/109/27
f 88/109/27 80/109/27 112/109/27
f 79/109/27 82/109/27 113/109/27
f 47/109/27 53/109/27 99/109/27
f 1/17/1 60/1/1 11/3/1
f 85/137/2 87/4/2 18/6/2
f 66/40/3 65/7/3 25/9/3
f 43/79/4 71/10/4 15/12/4
f 70/14/5 12/140/5 61/15/5
f 39/82/1 72/16/1 1/17/1
f 25/9/14 24/32/14 67/41/14
f 13/43/15 12/140/15 70/14/15
f 10/45/16 9/141/16 94/46/16
f 21/29/17 23/31/17 34/48/17
f 40/81/18 44/49/18 27/34/18
f 50/118/19 52/50/19 15/52/19
f 14/22/20 13/21/20 5/54/20
f 93/139/21 89/55/21 30/57/21
f 69/115/22 51/58/22 18/26/22
f 77/123/23 64/59/23 16/24/23
f 3/69/24 4/60/24 21/29/24
f 39/82/25 41/61/25 19/27/25
f 64/59/26 74/62/26 17/25/26
f 65/7/3 73/64/3 8/8/3
f 59/66/4 5/142/4 13/67/4
f 8/8/18 7/143/18 26/33/18
f 43/75/20 37/63/20 5/54/20
f 42/78/24 38/68/24 3/69/24
f 11/3/25 10/19/25 1/17/25
f 78/84/26 68/71/26 6/53/26
f 7/73/4 54/85/4 55/74/4
f 15/23/20 17/25/20 43/75/20
f 54/85/4 7/73/4 48/77/4
f 32/39/24 31/38/24 42/78/24
f 5/142/4 59/66/4 43/79/4
f 47/105/1 42/78/1 53/80/1
f 7/143/18 8/8/18 40/81/18
f 19/27/1 51/58/1 39/82/1
f 73/64/3 62/83/3 44/49/3
f 74/62/26 78/84/26 37/63/26
f 53/80/1 3/69/1 33/47/1
f 54/85/4 59/66/4 58/65/4
f 82/104/2 93/86/2 46/88/2
f 55/90/15 56/121/15 24/91/15
f 33/47/17 34/48/17 57/92/17
f 1/17/25 2/70/25 39/82/25
f 30/37/22 32/39/22 46/94/22
f 48/77/4 40/76/4 36/96/4
f 24/91/5 56/121/5 80/98/5
f 27/144/19 29/99/19 36/101/19
f 66/40/14 67/41/14 91/103/14
f 87/4/2 82/104/2 69/5/2
f 45/93/1 32/39/1 47/105/1
f 75/13/5 61/15/5 94/107/5
f 96/108/3 89/55/3 73/64/3
f 38/113/3 31/56/3 96/108/3
f 99/109/27 53/109/27 102/109/27
f 20/130/26 41/110/26 81/112/26
f 4/136/3 38/113/3 92/114/3
f 49/2/17 57/92/17 9/18/17
f 86/129/26 90/44/26 78/84/26
f 108/109/27 75/109/27 114/109/27
f 46/94/22 45/93/22 69/115/22
f 60/1/1 53/80/1 49/2/1
f 52/50/2 35/100/2 76/117/2
f 84/102/3 92/114/3 66/40/3
f 36/101/19 35/100/19 50/118/19
f 67/97/5 80/98/5 88/120/5
f 71/10/4 48/77/4 50/11/4
f 58/42/15 70/14/15 56/121/15
f 116/109/27 87/109/27 109/109/27
f 56/121/5 70/14/5 75/13/5
f 51/58/1 45/93/1 72/16/1
f 35/100/2 29/99/2 79/116/2
f 98/109/27 48/109/27 104/109/27
f 81/112/26 95/111/26 64/59/26
f 85/131/23 81/112/23 77/123/23
f 16/51/2 52/50/2 77/124/2
f 29/36/21 28/35/21 63/125/21
f 68/71/16 61/126/16 12/20/16
f 90/44/16 94/46/16 61/126/16
f 83/106/5 94/107/5 9/128/5
f 120/109/27 96/109/27 106/109/27
f 2/132/26 10/45/26 86/129/26
f 18/145/23 20/130/23 85/131/23
f 79/116/2 63/122/2 82/104/2
f 41/110/26 2/132/26 95/111/26
f 119/109/27 95/109/27 115/109/27
f 88/120/5 83/106/5 57/127/5
f 84/102/14 91/103/14 23/135/14
f 22/134/3 4/136/3 84/102/3
f 77/124/2 76/117/2 85/137/2
f 91/119/5 88/120/5 34/133/5
f 63/125/21 62/83/21 93/139/21
f 107/109/27 74/109/27 119/109/27
f 103/109/27 65/109/27 118/109/27
f 110/109/27 78/109/27 107/109/27
f 106/109/27 73/109/27 103/109/27
f 115/109/27 86/109/27 110/109/27
f 113/109/27 82/109/27 116/109/27
f 118/109/27 92/109/27 120/109/27
f 100/109/27 54/109/27 98/109/27
f 114/109/27 83/109/27 117/109/27
f 101/109/27 59/109/27 100/109/27
f 102/109/27 60/109/27 105/109/27
f 109/109/27 76/109/27 111/109/27
f 112/109/27 80/109/27 108/109/27
f 104/109/27 71/109/27 101/109/27
f 105/109/27 72/109/27 97/109/27
f 117/109/27 88/109/27 112/109/27
f 111/109/27 79/109/27 113/109/27
f 97/109/27 47/109/27 99/109/27
usemtl Gloe
f 115/146/26 110/147/26 107/148/26
f 97/149/1 99/150/1 102/151/1
f 100/152/4 98/153/4 104/154/4
f 117/155/5 112/156/5 114/157/5
f 120/158/3 106/159/3 103/160/3
f 111/161/2 113/162/2 116/163/2
f 119/164/26 115/146/26 107/148/26
f 105/165/1 97/149/1 102/151/1
f 101/166/4 100/152/4 104/154/4
f 112/156/5 108/167/5 114/157/5
f 118/168/3 120/158/3 103/160/3
f 109/169/2 111/161/2 116/163/2
