# Blender v2.74 (sub 0) OBJ File: ''
# www.blender.org
o Cylinder
v 0.000000 -0.060824 -0.323407
v 0.000000 0.060782 -0.350000
v 0.161703 -0.060824 -0.280079
v 0.175000 0.060782 -0.303109
v 0.280079 -0.060824 -0.161703
v 0.303109 0.060782 -0.175000
v 0.323407 -0.060824 0.000000
v 0.350000 0.060782 0.000000
v 0.280079 -0.060824 0.161703
v 0.303109 0.060782 0.175000
v 0.161703 -0.060824 0.280079
v 0.175000 0.060782 0.303109
v 0.000000 -0.060824 0.323407
v 0.000000 0.060782 0.350000
v -0.161703 -0.060824 0.280079
v -0.175000 0.060782 0.303109
v -0.280079 -0.060824 0.161704
v -0.303109 0.060782 0.175000
v -0.323407 -0.060824 0.000000
v -0.350000 0.060782 0.000000
v -0.280079 -0.060824 -0.161703
v -0.303109 0.060782 -0.175000
v -0.161704 -0.060824 -0.280078
v -0.175000 0.060782 -0.303109
v 0.000000 -0.060235 -0.290886
v 0.000000 0.061287 -0.322152
v 0.145444 -0.060235 -0.251915
v 0.161076 0.061287 -0.278992
v 0.251915 -0.060235 -0.145444
v 0.278992 0.061287 -0.161076
v 0.290886 -0.060235 0.000000
v 0.322152 0.061287 0.000000
v 0.251915 -0.060235 0.145444
v 0.278992 0.061287 0.161077
v 0.145444 -0.060235 0.251915
v 0.161077 0.061287 0.278992
v 0.000000 -0.060235 0.290886
v 0.000000 0.061287 0.322152
v -0.145444 -0.060235 0.251915
v -0.161076 0.061287 0.278992
v -0.251915 -0.060235 0.145444
v -0.278992 0.061287 0.161077
v -0.290886 -0.060235 0.000000
v -0.322152 0.061287 0.000000
v -0.251915 -0.060235 -0.145444
v -0.278992 0.061287 -0.161076
v -0.145444 -0.060235 -0.251915
v -0.161077 0.061287 -0.278992
v 0.093874 0.189176 -0.350636
v 0.256468 0.189176 -0.256762
v 0.350342 0.189176 -0.094168
v 0.350342 0.189176 0.093580
v 0.256468 0.189176 0.256174
v 0.093874 0.189176 0.350048
v -0.093874 0.189176 0.350048
v -0.256468 0.189176 0.256174
v -0.350342 0.189176 0.093580
v -0.350342 0.189176 -0.094168
v -0.256469 0.189176 -0.256762
v -0.093874 0.189176 -0.350636
vt 0.127153 0.499406
vt 0.129795 0.256848
vt 0.190033 0.255507
vt 0.182814 0.498168
vt 0.197253 0.498162
vt 0.250272 0.256850
vt 0.252914 0.499406
vt 0.319829 0.256850
vt 0.317186 0.499406
vt 0.380067 0.255504
vt 0.372847 0.498162
vt 0.577320 0.498151
vt 0.570100 0.255499
vt 0.630338 0.256855
vt 0.632981 0.499404
vt 0.699895 0.256855
vt 0.697253 0.499404
vt 0.760133 0.255499
vt 0.752914 0.498151
vt 0.562881 0.001248
vt 0.570100 0.243903
vt 0.509862 0.242553
vt 0.507220 0.000000
vt 0.440305 0.242553
vt 0.442948 0.000000
vt 0.380067 0.243903
vt 0.387286 0.001248
vt 0.007219 0.498168
vt 0.000000 0.255507
vt 0.060238 0.256848
vt 0.062881 0.499406
vt 0.768621 0.500602
vt 0.760133 0.257507
vt 0.815579 0.256259
vt 0.818686 0.499476
vt 0.116362 0.998878
vt 0.119468 0.755661
vt 0.174913 0.756904
vt 0.166426 1.000000
vt 0.058552 0.998878
vt 0.055446 0.755661
vt 0.008488 1.000000
vt 0.000000 0.756904
vt 0.496428 0.998869
vt 0.499535 0.755653
vt 0.554980 0.756887
vt 0.546492 0.999984
vt 0.438619 0.998869
vt 0.435512 0.755653
vt 0.388555 0.999984
vt 0.380067 0.756887
vt 0.701582 0.998872
vt 0.704688 0.755656
vt 0.760133 0.756895
vt 0.751646 0.999991
vt 0.643772 0.998872
vt 0.640666 0.755656
vt 0.593708 0.999991
vt 0.585220 0.756895
vt 0.876495 0.499476
vt 0.879602 0.256259
vt 0.935047 0.257507
vt 0.926559 0.500602
vt 0.760133 0.580013
vt 0.792269 0.529669
vt 0.801098 0.537654
vt 0.772193 0.582935
vt 0.215316 0.000000
vt 0.847931 0.500602
vt 0.851162 0.511510
vt 0.284941 0.000722
vt 0.912203 0.500602
vt 0.908971 0.511510
vt 0.354566 0.000000
vt 0.967864 0.529669
vt 0.959036 0.537654
vt 0.595462 0.000000
vt 1.000000 0.580013
vt 0.987940 0.582935
vt 0.665087 0.000727
vt 1.000000 0.638145
vt 0.987940 0.635222
vt 0.734712 0.000000
vt 0.967864 0.688489
vt 0.959035 0.680504
vt 0.544599 0.499405
vt 0.912203 0.717555
vt 0.908971 0.706647
vt 0.474974 0.498681
vt 0.847931 0.717555
vt 0.851162 0.706647
vt 0.405349 0.499405
vt 0.792269 0.688489
vt 0.801098 0.680504
vt 0.025421 0.000000
vt 0.760133 0.638145
vt 0.772193 0.635222
vt 0.095046 0.000719
vt 0.164671 0.000000
vt 0.307530 0.757385
vt 0.297240 0.756187
vt 0.307530 0.499406
vt 0.777936 0.000727
vt 0.209895 0.500087
vt 0.217554 0.499406
vt 0.217554 0.757929
vt 0.190230 0.757918
vt 0.182572 0.757236
vt 0.190230 0.499406
vt 0.157191 0.500131
vt 0.286950 0.500606
vt 0.297240 0.499406
vt 0.297240 0.757394
vt 0.348979 0.757382
vt 0.338617 0.756578
vt 0.348979 0.499406
vt 0.087566 0.499406
vt 0.369704 0.500211
vt 0.380067 0.499406
vt 0.380067 0.757400
vt 0.266370 0.757375
vt 0.256081 0.756174
vt 0.266370 0.499406
vt 0.017941 0.500131
vt 0.217554 0.500091
vt 0.225213 0.499406
vt 0.225213 0.757931
vt 0.942705 0.258506
vt 0.935047 0.257819
vt 0.942705 0.000000
vt 0.537178 0.500125
vt 0.245791 0.500611
vt 0.256081 0.499406
vt 0.256080 0.757391
vt 0.317892 0.757385
vt 0.307530 0.756576
vt 0.317892 0.499406
vt 0.467553 0.499406
vt 0.328255 0.500215
vt 0.338617 0.499406
vt 0.338617 0.757389
vt 0.245791 0.757386
vt 0.235502 0.756181
vt 0.245791 0.499406
vt 0.397928 0.500125
vt 0.174913 0.500094
vt 0.182572 0.499406
vt 0.182572 0.757916
vt 0.202236 0.757926
vt 0.194578 0.757240
vt 0.202236 0.499406
vt 0.742193 0.500126
vt 0.225213 0.500609
vt 0.235502 0.499406
vt 0.235502 0.757377
vt 0.359341 0.757399
vt 0.348979 0.756592
vt 0.359341 0.499406
vt 0.672568 0.499404
vt 0.317892 0.500211
vt 0.328255 0.499406
vt 0.328255 0.757380
vt 0.286950 0.757395
vt 0.276661 0.756193
vt 0.286950 0.499406
vt 0.602943 0.500126
vt 0.562442 0.500088
vt 0.570100 0.499405
vt 0.570100 0.757912
vt 0.209895 0.757933
vt 0.202236 0.757251
vt 0.209895 0.499406
vt 0.917186 0.000727
vt 0.266370 0.500604
vt 0.276661 0.499406
vt 0.276661 0.757380
vt 0.585220 0.757395
vt 0.574857 0.756593
vt 0.585220 0.499404
vt 0.847561 0.000000
vt 0.359341 0.500207
vt 0.369704 0.499406
vt 0.369704 0.757391
vn 0.000000 -0.736000 -0.677000
vn 0.000000 0.176300 -0.984300
vn 0.492000 0.176400 -0.852500
vn 0.338500 -0.736000 -0.586300
vn 0.852200 0.176600 -0.492400
vn 0.586300 -0.736000 -0.338500
vn 0.984200 0.176800 -0.000400
vn 0.677000 -0.736000 0.000000
vn 0.852500 0.177000 0.491800
vn 0.586300 -0.736000 0.338500
vn 0.492300 0.177200 0.852200
vn 0.338500 -0.736000 0.586300
vn 0.000000 0.177300 0.984200
vn 0.000000 -0.736000 0.677000
vn -0.492300 0.177200 0.852200
vn -0.338500 -0.736000 0.586300
vn -0.852500 0.177000 0.491800
vn -0.586300 -0.736000 0.338500
vn -0.984200 0.176800 -0.000400
vn -0.677000 -0.736000 0.000000
vn -0.852200 0.176600 -0.492400
vn -0.586300 -0.736000 -0.338500
vn -0.492000 0.176400 -0.852500
vn -0.338500 -0.736000 -0.586300
vn -0.368300 -0.676300 0.637900
vn -0.413300 0.563300 0.715400
vn 0.000000 0.563400 0.826200
vn 0.000000 -0.676300 0.736600
vn -0.637900 -0.676300 0.368300
vn -0.715800 0.563200 0.412700
vn -0.736600 -0.676300 0.000000
vn -0.826300 0.563100 -0.000500
vn -0.637900 -0.676300 -0.368300
vn -0.715500 0.563000 -0.413600
vn -0.368300 -0.676300 -0.637900
vn -0.413000 0.562900 -0.715900
vn 0.000000 -0.676300 -0.736600
vn 0.000000 0.562900 -0.826500
vn 0.368300 -0.676300 -0.637900
vn 0.413000 0.562900 -0.715900
vn 0.637900 -0.676300 -0.368300
vn 0.715500 0.563000 -0.413600
vn 0.736600 -0.676300 0.000000
vn 0.826300 0.563100 -0.000500
vn 0.637900 -0.676300 0.368300
vn 0.715800 0.563200 0.412700
vn 0.368300 -0.676300 0.637900
vn 0.413300 0.563300 0.715400
vn 0.199000 0.959300 -0.200400
vn 0.271600 0.959500 -0.074100
vn 0.271300 0.959800 0.071300
vn 0.198400 0.960100 0.197000
vn 0.072600 0.960200 0.269500
vn -0.072600 0.960200 0.269500
vn -0.198400 0.960100 0.197000
vn -0.271300 0.959800 0.071300
vn -0.271600 0.959500 -0.074100
vn -0.199000 0.959300 -0.200400
vn -0.072900 0.959100 -0.273400
vn 0.072900 0.959100 -0.273400
usemtl Material.001
s 1
f 1/1/1 2/2/2 4/3/3 3/4/4
f 3/5/4 4/3/3 6/6/5 5/7/6
f 5/7/6 6/6/5 8/8/7 7/9/8
f 7/9/8 8/8/7 10/10/9 9/11/10
f 9/12/10 10/13/9 12/14/11 11/15/12
f 11/15/12 12/14/11 14/16/13 13/17/14
f 13/17/14 14/16/13 16/18/15 15/19/16
f 15/20/16 16/21/15 18/22/17 17/23/18
f 17/23/18 18/22/17 20/24/19 19/25/20
f 19/25/20 20/24/19 22/26/21 21/27/22
f 21/28/22 22/29/21 24/30/23 23/31/24
f 23/31/24 24/30/23 2/2/2 1/1/1
f 27/32/25 28/33/26 26/34/27 25/35/28
f 29/36/29 30/37/30 28/38/26 27/39/25
f 31/40/31 32/41/32 30/37/30 29/36/29
f 33/42/33 34/43/34 32/41/32 31/40/31
f 35/44/35 36/45/36 34/46/34 33/47/33
f 37/48/37 38/49/38 36/45/36 35/44/35
f 39/50/39 40/51/40 38/49/38 37/48/37
f 41/52/41 42/53/42 40/54/40 39/55/39
f 43/56/43 44/57/44 42/53/42 41/52/41
f 45/58/45 46/59/46 44/57/44 43/56/43
f 47/60/47 48/61/48 46/62/46 45/63/45
f 25/35/28 26/34/27 48/61/48 47/60/47
f 1/64/1 3/65/4 27/66/25 25/67/28
f 6/6/5 4/3/3 50/68/49
f 3/65/4 5/69/6 29/70/29 27/66/25
f 8/8/7 6/6/5 51/71/50
f 5/69/6 7/72/8 31/73/31 29/70/29
f 10/10/9 8/8/7 52/74/51
f 7/72/8 9/75/10 33/76/33 31/73/31
f 12/14/11 10/13/9 53/77/52
f 9/75/10 11/78/12 35/79/35 33/76/33
f 14/16/13 12/14/11 54/80/53
f 11/78/12 13/81/14 37/82/37 35/79/35
f 16/18/15 14/16/13 55/83/54
f 13/81/14 15/84/16 39/85/39 37/82/37
f 18/22/17 16/21/15 56/86/55
f 15/84/16 17/87/18 41/88/41 39/85/39
f 20/24/19 18/22/17 57/89/56
f 17/87/18 19/90/20 43/91/43 41/88/41
f 22/26/21 20/24/19 58/92/57
f 19/90/20 21/93/22 45/94/45 43/91/43
f 24/30/23 22/29/21 59/95/58
f 21/93/22 23/96/24 47/97/47 45/94/45
f 2/2/2 24/30/23 60/98/59
f 23/96/24 1/64/1 25/67/28 47/97/47
f 4/3/3 2/2/2 49/99/60
f 2/100/2 26/101/27 49/102/60
f 26/34/27 28/33/26 49/103/60
f 28/104/26 4/105/3 49/106/60
f 4/107/3 28/108/26 50/109/49
f 28/38/26 30/37/30 50/110/49
f 30/111/30 6/112/5 50/113/49
f 6/114/5 30/115/30 51/116/50
f 30/37/30 32/41/32 51/117/50
f 32/118/32 8/119/7 51/120/50
f 8/121/7 32/122/32 52/123/51
f 32/41/32 34/43/34 52/124/51
f 34/125/34 10/126/9 52/127/51
f 10/128/9 34/129/34 53/130/52
f 34/46/34 36/45/36 53/131/52
f 36/132/36 12/133/11 53/134/52
f 12/135/11 36/136/36 54/137/53
f 36/45/36 38/49/38 54/138/53
f 38/139/38 14/140/13 54/141/53
f 14/142/13 38/143/38 55/144/54
f 38/49/38 40/51/40 55/145/54
f 40/146/40 16/147/15 55/148/54
f 16/149/15 40/150/40 56/151/55
f 40/54/40 42/53/42 56/152/55
f 42/153/42 18/154/17 56/155/55
f 18/156/17 42/157/42 57/158/56
f 42/53/42 44/57/44 57/159/56
f 44/160/44 20/161/19 57/162/56
f 20/163/19 44/164/44 58/165/57
f 44/57/44 46/59/46 58/166/57
f 46/167/46 22/168/21 58/169/57
f 22/170/21 46/171/46 59/172/58
f 46/62/46 48/61/48 59/173/58
f 48/174/48 24/175/23 59/176/58
f 24/177/23 48/178/48 60/179/59
f 48/61/48 26/34/27 60/180/59
f 26/181/27 2/182/2 60/183/59
