# Blender v2.74 (sub 0) OBJ File: 'border.blend'
# www.blender.org
o Plane
v -57.500000 0.000000 57.500000
v 57.500000 0.000000 57.500000
v -57.500000 0.000000 -57.500000
v 57.500000 0.000000 -57.500000
v -57.500000 8.000000 -57.500000
v -57.500000 8.000000 57.500000
v 57.500000 8.000000 57.500000
v 57.500000 8.000000 -57.500000
v -53.331345 8.000000 -53.331345
v -53.331345 8.000000 53.331345
v 53.331345 8.000000 53.331345
v 53.331345 8.000000 -53.331345
v 22.703867 0.000000 50.049278
v 0.000000 0.000000 -50.049278
v -45.407734 0.000000 -50.049278
v 50.049278 0.000000 45.407734
v 0.000000 8.000000 -50.049278
v -22.703867 8.000000 -50.049278
v -50.049278 0.000000 -45.407734
v -50.049278 8.000000 -22.703867
v -50.049278 0.000000 0.000000
v 50.049278 0.000000 -22.703867
v -50.049278 0.000000 22.703867
v -50.049278 8.000000 0.000000
v 50.049278 8.000000 0.000000
v -50.049278 8.000000 45.407734
v -50.049278 8.000000 -45.407734
v 50.049278 0.000000 -45.407734
v 50.049278 8.000000 -22.703867
v 50.049278 0.000000 0.000000
v 22.703867 0.000000 -50.049278
v 45.407734 8.000000 -50.049278
v 45.407734 0.000000 -50.049278
v 50.049278 8.000000 45.407734
v 22.703867 8.000000 -50.049278
v -22.703867 0.000000 50.049278
v -22.703867 8.000000 50.049278
v 0.000000 8.000000 50.049278
v 0.000000 0.000000 50.049278
v 50.049278 0.000000 22.703867
v -50.049278 0.000000 45.407734
v -45.407734 8.000000 50.049278
v 45.407734 8.000000 50.049278
v -45.407734 8.000000 -50.049278
v -50.049278 8.000000 22.703867
v -50.049278 0.000000 -22.703867
v 50.049278 0.000000 -22.703867
v 50.049278 8.000000 22.703867
v 50.049278 8.000000 -22.703867
v 50.049278 8.000000 0.000000
v 50.049278 0.000000 0.000000
v 50.049278 0.000000 -45.407734
v 50.049278 8.000000 -45.407734
v 45.407734 0.000000 50.049278
v 50.049278 8.000000 -22.703867
v 50.049278 0.000000 -22.703867
v 50.049278 0.000000 0.000000
v 50.049278 8.000000 -45.407734
v 50.049278 8.000000 0.000000
v 50.049278 8.000000 22.703867
v 50.049278 0.000000 22.703867
v 22.703867 8.000000 50.049278
v 22.703867 0.000000 50.049278
v 22.703867 8.000000 50.049278
v 0.000000 8.000000 50.049278
v 0.000000 0.000000 50.049278
v 50.049278 0.000000 22.703867
v 50.049278 8.000000 22.703867
v 50.049278 8.000000 45.407734
v 50.049278 0.000000 45.407734
v -45.407734 0.000000 50.049278
v 45.407734 0.000000 50.049278
v 45.407734 8.000000 50.049278
v -22.703867 0.000000 -50.049278
v 22.703867 8.000000 50.049278
v 22.703867 0.000000 50.049278
v 45.407734 0.000000 50.049278
v 50.049278 0.000000 45.407734
v 50.049278 8.000000 45.407734
v 45.407734 8.000000 50.049278
vt 0.205321 0.500000
vt 0.000000 0.500000
vt 0.000000 0.000000
vt 0.205321 0.000000
vt 0.410642 0.000000
vt 0.615963 0.000000
vt 0.615963 0.500000
vt 0.410642 0.500000
vt 0.821284 0.500000
vt 0.821284 0.000000
vt 0.585773 0.895249
vt 0.568871 0.859209
vt 0.568871 0.755943
vt 0.568871 0.652678
vt 0.568871 0.549412
vt 0.568871 0.446146
vt 0.585773 0.410107
vt 0.607241 0.391146
vt 0.607241 0.914209
vt 0.077279 0.425035
vt 0.053376 0.446146
vt 0.036473 0.410107
vt 0.544968 0.425035
vt 0.428045 0.425035
vt 0.311123 0.425035
vt 0.194201 0.425035
vt 0.015005 0.391146
vt 0.544968 0.880321
vt 0.053376 0.859209
vt 0.077279 0.880321
vt 0.036473 0.895249
vt 0.053376 0.549412
vt 0.053376 0.652678
vt 0.053376 0.755943
vt 0.015005 0.914209
vt 0.194201 0.880321
vt 0.311123 0.880321
vt 0.428045 0.880321
vt 0.625000 0.000000
vt 0.625000 1.000000
vt 0.000000 1.000000
vn 1.000000 0.000000 0.000000
vn 0.000000 0.000000 -1.000000
vn -1.000000 0.000000 0.000000
vn 0.000000 0.000000 1.000000
vn 0.000000 -1.000000 0.000000
vn 0.707100 0.000000 -0.707100
vn -0.707100 0.000000 0.707100
vn 0.707100 0.000000 0.707100
vn -0.707100 0.000000 -0.707100
usemtl Material.002
s off
f 1/1/1 3/2/1 5/3/1 6/4/1
f 2/5/2 1/6/2 6/7/2 7/8/2
f 4/8/3 2/1/3 7/4/3 8/5/3
f 3/9/4 4/7/4 8/6/4 5/10/4
f 11/11/5 34/12/5 48/13/5 25/14/5 29/15/5 58/16/5 12/17/5 8/18/5 7/19/5
f 44/20/5 27/21/5 9/22/5
f 12/17/5 32/23/5 35/24/5 17/25/5 18/26/5 44/20/5 9/22/5 5/27/5 8/18/5
f 58/16/5 32/23/5 12/17/5
f 43/28/5 34/12/5 11/11/5
f 26/29/5 42/30/5 10/31/5
f 9/22/5 27/21/5 20/32/5 24/33/5 45/34/5 26/29/5 10/31/5 6/35/5 5/27/5
f 10/31/5 42/30/5 37/36/5 38/37/5 62/38/5 43/28/5 11/11/5 7/19/5 6/35/5
f 30/3/4 51/3/4 47/39/4 22/39/4
f 22/39/4 47/39/4 49/40/4 29/40/4
f 29/40/4 49/40/4 50/41/4 25/41/4
f 26/41/6 42/40/6 71/39/6 41/3/6
f 58/39/7 32/3/7 33/41/7 28/40/7
f 71/40/2 42/39/2 37/3/2 36/41/2
f 46/40/1 20/39/1 24/3/1 21/41/1
f 31/40/4 35/39/4 17/3/4 14/41/4
f 14/40/4 17/39/4 18/3/4 74/41/4
f 33/40/4 32/39/4 35/3/4 31/41/4
f 19/39/8 15/3/8 44/41/8 27/40/8
f 74/40/4 18/39/4 44/3/4 15/41/4
f 23/40/1 45/39/1 26/3/1 41/41/1
f 19/40/1 27/39/1 20/3/1 46/41/1
f 21/40/1 24/39/1 45/3/1 23/41/1
f 36/40/2 37/39/2 38/3/2 39/41/2
f 25/41/4 50/41/4 51/3/4 30/3/4
f 51/3/3 50/41/3 49/40/3 47/39/3
f 22/3/4 56/3/4 52/39/4 28/39/4
f 28/39/4 52/39/4 53/40/4 58/40/4
f 58/40/4 53/40/4 55/41/4 29/41/4
f 29/41/4 55/41/4 56/3/4 22/3/4
f 56/3/3 55/41/3 53/40/3 52/39/3
f 40/3/4 61/3/4 57/39/4 30/39/4
f 30/39/4 57/39/4 59/40/4 25/40/4
f 25/40/4 59/40/4 60/41/4 48/41/4
f 48/41/4 60/41/4 61/3/4 40/3/4
f 61/3/3 60/41/3 59/40/3 57/39/3
f 39/40/4 66/40/4 63/41/4 13/41/4
f 13/41/4 63/41/4 64/3/4 62/3/4
f 62/3/4 64/3/4 65/39/4 38/39/4
f 38/39/4 65/39/4 66/40/4 39/40/4
f 66/40/2 65/39/2 64/3/2 63/41/2
f 16/3/4 70/3/4 67/39/4 40/39/4
f 40/39/4 67/39/4 68/40/4 48/40/4
f 48/40/4 68/40/4 69/41/4 34/41/4
f 34/41/4 69/41/4 70/3/4 16/3/4
f 70/3/3 69/41/3 68/40/3 67/39/3
f 13/40/4 76/40/4 72/41/4 54/41/4
f 54/41/4 72/41/4 73/3/4 43/3/4
f 43/3/4 73/3/4 75/39/4 62/39/4
f 62/39/4 75/39/4 76/40/4 13/40/4
f 76/40/2 75/39/2 73/3/2 72/41/2
f 43/41/4 80/41/4 77/3/4 54/3/4
f 54/3/4 77/3/4 78/39/4 16/39/4
f 16/39/4 78/39/4 79/40/4 34/40/4
f 34/40/4 79/40/4 80/41/4 43/41/4
f 80/41/9 79/40/9 78/39/9 77/3/9
