# Blender v2.74 (sub 0) OBJ File: 'tron.blend'
# www.blender.org
o Cylinder.001_Cylinder.004
v -0.064103 0.493104 0.000000
v 0.064104 0.493104 -0.000000
v -0.064103 0.348677 -0.348677
v 0.064103 0.348677 -0.348677
v -0.064104 -0.000000 -0.493104
v 0.064103 -0.000000 -0.493104
v -0.064104 -0.348677 -0.348677
v 0.064103 -0.348677 -0.348677
v -0.064104 -0.493104 0.000000
v 0.064103 -0.493104 0.000000
v -0.064103 -0.348677 0.348677
v 0.064103 -0.348677 0.348677
v -0.064103 0.000000 0.493104
v 0.064104 0.000000 0.493104
v -0.064103 0.348677 0.348677
v 0.064104 0.348677 0.348677
v -0.064103 0.384621 0.000000
v 0.064104 0.384621 -0.000000
v -0.064103 0.271971 -0.271971
v 0.064103 0.271971 -0.271971
v -0.064104 -0.000000 -0.384621
v 0.064103 -0.000000 -0.384621
v -0.064104 -0.271971 -0.271971
v 0.064103 -0.271971 -0.271971
v -0.064104 -0.384621 0.000000
v 0.064103 -0.384621 0.000000
v -0.064103 -0.271971 0.271971
v 0.064103 -0.271971 0.271971
v -0.064103 0.000000 0.384621
v 0.064104 0.000000 0.384621
v -0.064103 0.271971 0.271971
v 0.064104 0.271971 0.271971
vt 0.674363 0.333333
vt 0.814028 0.333333
vt 0.814028 0.666667
vt 0.337181 0.000000
vt 0.435939 0.000000
vt 0.435940 0.333333
vt 0.575604 0.000000
vt 0.575604 0.333333
vt 0.674363 0.000000
vt 0.814028 0.000000
vt 0.337181 0.333333
vt 0.435939 0.666667
vt 0.575604 0.666667
vt 0.674363 0.666667
vt 0.337181 0.666667
vt 0.446120 0.666667
vt 0.446120 1.000000
vt 0.922967 0.000000
vt 1.000000 0.000000
vt 1.000000 0.333333
vt 0.922967 0.333333
vt 0.108939 0.615920
vt 0.185972 0.615920
vt 0.185972 0.949253
vt 0.000000 0.615920
vt 0.108939 0.949253
vt 0.891061 0.666667
vt 1.000000 0.666667
vt 0.891061 0.333333
vt 0.523153 0.666667
vt 0.523153 1.000000
vt 0.000000 0.398159
vt 0.098758 0.307960
vt 0.114121 0.341834
vt 0.337181 0.217760
vt 0.300091 0.203729
vt 0.300092 0.104231
vt 0.238423 0.307960
vt 0.223060 0.341835
vt 0.238423 0.000000
vt 0.337181 0.090199
vt 0.337181 0.398159
vt 0.300092 0.412190
vt 0.223060 0.033876
vt 0.114121 0.033874
vt 0.337181 0.525720
vt 0.300091 0.511689
vt 0.000000 0.090199
vt 0.098758 0.000000
vt 0.238423 0.615920
vt 0.223060 0.582045
vt 0.037090 0.104231
vt 0.037089 0.203729
vt 0.098758 0.615920
vt 0.114121 0.582044
vt 0.000000 0.217761
vt 0.000000 0.525720
vt 0.037089 0.511689
vt 0.114121 0.274084
vt 0.223060 0.274085
vt 0.037090 0.412191
vt 0.337181 1.000000
vt 0.000000 0.949253
vn 0.000000 0.923900 -0.382700
vn 0.000000 0.382700 -0.923900
vn 0.000000 -0.382700 -0.923900
vn -0.000000 -0.923900 -0.382700
vn 0.000000 -0.923900 0.382700
vn -0.000000 -0.382700 0.923900
vn 0.000000 0.382700 0.923900
vn 0.000000 0.923900 0.382700
vn -1.000000 0.000000 0.000000
vn 1.000000 0.000000 -0.000000
usemtl None
s off
f 2/1/1 4/2/1 3/3/1
f 4/4/2 6/5/2 5/6/2
f 6/5/3 8/7/3 7/8/3
f 8/7/4 10/9/4 9/1/4
f 10/9/5 12/10/5 11/2/5
f 12/11/6 14/6/6 13/12/6
f 14/6/7 16/8/7 15/13/7
f 16/8/8 2/1/8 1/14/8
f 20/15/5 18/16/5 17/17/5
f 22/18/6 20/19/6 19/20/6
f 24/10/7 22/18/7 21/21/7
f 26/22/8 24/23/8 23/24/8
f 28/25/1 26/22/1 25/26/1
f 30/27/2 28/3/2 27/2/2
f 32/28/3 30/27/3 29/29/3
f 18/16/4 32/30/4 31/31/4
f 1/32/9 3/33/9 19/34/9
f 2/35/10 18/36/10 20/37/10
f 5/38/9 21/39/9 19/34/9
f 6/40/10 4/41/10 20/37/10
f 5/38/9 7/42/9 23/43/9
f 6/40/10 22/44/10 24/45/10
f 9/46/9 25/47/9 23/43/9
f 10/48/10 8/49/10 24/45/10
f 9/46/9 11/50/9 27/51/9
f 10/48/10 26/52/10 28/53/10
f 13/54/9 29/55/9 27/51/9
f 14/33/10 12/56/10 28/53/10
f 13/54/9 15/57/9 31/58/9
f 14/33/10 30/59/10 32/60/10
f 1/32/9 17/61/9 31/58/9
f 2/35/10 16/38/10 32/60/10
f 1/14/1 2/1/1 3/3/1
f 3/11/2 4/4/2 5/6/2
f 5/6/3 6/5/3 7/8/3
f 7/8/4 8/7/4 9/1/4
f 9/1/5 10/9/5 11/2/5
f 11/15/6 12/11/6 13/12/6
f 13/12/7 14/6/7 15/13/7
f 15/13/8 16/8/8 1/14/8
f 19/62/5 20/15/5 17/17/5
f 21/21/6 22/18/6 19/20/6
f 23/2/7 24/10/7 21/21/7
f 25/26/8 26/22/8 23/24/8
f 27/63/1 28/25/1 25/26/1
f 29/29/2 30/27/2 27/2/2
f 31/20/3 32/28/3 29/29/3
f 17/17/4 18/16/4 31/31/4
f 17/61/9 1/32/9 19/34/9
f 4/41/10 2/35/10 20/37/10
f 3/33/9 5/38/9 19/34/9
f 22/44/10 6/40/10 20/37/10
f 21/39/9 5/38/9 23/43/9
f 8/49/10 6/40/10 24/45/10
f 7/42/9 9/46/9 23/43/9
f 26/52/10 10/48/10 24/45/10
f 25/47/9 9/46/9 27/51/9
f 12/56/10 10/48/10 28/53/10
f 11/50/9 13/54/9 27/51/9
f 30/59/10 14/33/10 28/53/10
f 29/55/9 13/54/9 31/58/9
f 16/38/10 14/33/10 32/60/10
f 15/57/9 1/32/9 31/58/9
f 18/36/10 2/35/10 32/60/10
