# Blender v2.66 (sub 1) OBJ File: '4cubesv4.blend'
# www.blender.org
o Cube.017_Cube.018
v 0.100000 0.100000 0.500000
v 0.100000 0.100000 0.100000
v 0.500000 0.100000 0.100000
v 0.500000 0.100000 0.500000
v 0.100000 0.500000 0.500000
v 0.100000 0.500000 0.100000
v 0.500000 0.500000 0.100000
v 0.500000 0.500000 0.500000
v -0.500000 0.100000 0.500000
v -0.500000 0.100000 0.100000
v -0.100000 0.100000 0.100000
v -0.100000 0.100000 0.500000
v -0.500000 0.500000 0.500000
v -0.500000 0.500000 0.100000
v -0.100000 0.500000 0.100000
v -0.100000 0.500000 0.500000
v 0.100000 -0.500000 0.500000
v 0.100000 -0.500000 0.100000
v 0.500000 -0.500000 0.100000
v 0.500000 -0.500000 0.500000
v 0.100000 -0.100000 0.500000
v 0.100000 -0.100000 0.100000
v 0.500000 -0.100000 0.100000
v 0.500000 -0.100000 0.500000
v -0.500000 -0.500000 0.500000
v -0.500000 -0.500000 0.100000
v -0.100000 -0.500000 0.100000
v -0.100000 -0.500000 0.500000
v -0.500000 -0.100000 0.500000
v -0.500000 -0.100000 0.100000
v -0.100000 -0.100000 0.100000
v -0.100000 -0.100000 0.500000
v 0.100000 0.100000 -0.100000
v 0.100000 0.100000 -0.500000
v 0.500000 0.100000 -0.500000
v 0.500000 0.100000 -0.100000
v 0.100000 0.500000 -0.100000
v 0.100000 0.500000 -0.500000
v 0.500000 0.500000 -0.500000
v 0.500000 0.500000 -0.100000
v -0.500000 0.100000 -0.100000
v -0.500000 0.100000 -0.500000
v -0.100000 0.100000 -0.500000
v -0.100000 0.100000 -0.100000
v -0.500000 0.500000 -0.100000
v -0.500000 0.500000 -0.500000
v -0.100000 0.500000 -0.500000
v -0.100000 0.500000 -0.100000
v 0.100000 -0.500000 -0.100000
v 0.100000 -0.500000 -0.500000
v 0.500000 -0.500000 -0.500000
v 0.500000 -0.500000 -0.100000
v 0.100000 -0.100000 -0.100000
v 0.100000 -0.100000 -0.500000
v 0.500000 -0.100000 -0.500000
v 0.500000 -0.100000 -0.100000
v -0.500000 -0.500000 -0.100000
v -0.500000 -0.500000 -0.500000
v -0.100000 -0.500000 -0.500000
v -0.100000 -0.500000 -0.100000
v -0.500000 -0.100000 -0.100000
v -0.500000 -0.100000 -0.500000
v -0.100000 -0.100000 -0.500000
v -0.100000 -0.100000 -0.100000
v -0.250000 -0.100000 -0.100000
v -0.250000 -0.250000 -0.100000
v -0.250000 -0.250000 0.100000
v -0.250000 -0.100000 0.100000
v -0.250000 -0.100000 0.250000
v -0.250000 0.100000 0.250000
v -0.250000 0.100000 0.100000
v -0.250000 0.100000 -0.100000
v -0.250000 0.100000 -0.250000
v -0.250000 -0.100000 -0.250000
v -0.250000 0.250000 0.100000
v -0.250000 0.250000 -0.100000
v -0.100000 -0.250000 -0.100000
v -0.100000 -0.250000 0.100000
v 0.100000 -0.250000 0.100000
v 0.100000 -0.250000 0.250000
v -0.100000 -0.250000 0.250000
v -0.100000 -0.250000 -0.250000
v 0.100000 -0.250000 -0.250000
v 0.100000 -0.250000 -0.100000
v 0.250000 -0.250000 -0.100000
v 0.250000 -0.250000 0.100000
v 0.100000 -0.100000 0.250000
v 0.250000 -0.100000 0.250000
v 0.250000 0.100000 0.250000
v 0.100000 0.100000 0.250000
v 0.100000 0.250000 0.250000
v -0.100000 0.250000 0.250000
v -0.100000 0.100000 0.250000
v -0.100000 -0.100000 0.250000
v 0.100000 0.250000 -0.100000
v 0.100000 0.250000 -0.250000
v -0.100000 0.250000 -0.250000
v -0.100000 0.250000 -0.100000
v 0.100000 0.250000 0.100000
v 0.250000 0.250000 0.100000
v 0.250000 0.250000 -0.100000
v -0.100000 0.250000 0.100000
v -0.100000 0.100000 -0.250000
v 0.100000 0.100000 -0.250000
v 0.250000 0.100000 -0.250000
v 0.250000 -0.100000 -0.250000
v 0.100000 -0.100000 -0.250000
v -0.100000 -0.100000 -0.250000
v 0.250000 -0.100000 -0.100000
v 0.250000 0.100000 -0.100000
v 0.250000 0.100000 0.100000
v 0.250000 -0.100000 0.100000
v 0.100000 0.100000 0.100000
v -0.100000 0.100000 0.100000
v 0.100000 -0.100000 0.100000
v -0.100000 -0.100000 0.100000
v 0.100000 0.100000 -0.100000
v -0.100000 0.100000 -0.100000
v 0.100000 -0.100000 -0.100000
v -0.100000 -0.100000 -0.100000
vt 0.260172 0.218545
vt 0.291393 0.249765
vt 0.176917 0.218545
vt 0.218545 0.260172
vt 0.187324 0.291393
vt 0.187324 0.145696
vt 0.218545 0.176917
vt 0.145696 0.187324
vt 0.291393 0.187324
vt 0.249765 0.291393
vt 0.249765 0.145697
vt 0.031221 0.072848
vt 0.000000 0.041628
vt 0.072848 0.031221
vt 0.104069 0.000000
vt 0.145696 0.041628
vt 0.114476 0.072848
vt 0.145696 0.104069
vt 0.072848 0.114476
vt 0.104069 0.145696
vt 0.041628 0.000000
vt 0.041628 0.145696
vt 0.000000 0.104069
vt 0.176917 0.072848
vt 0.218545 0.031221
vt 0.187324 0.000000
vt 0.249765 0.000000
vt 0.260172 0.072848
vt 0.291393 0.041628
vt 0.218545 0.114476
vt 0.291393 0.104069
vt 0.249765 0.145696
vt 0.072848 0.260172
vt 0.000000 0.249765
vt 0.031221 0.218545
vt 0.145696 0.249765
vt 0.104069 0.291393
vt 0.072848 0.176917
vt 0.104069 0.145697
vt 0.000000 0.187324
vt 0.041628 0.291393
vt 0.364241 0.322614
vt 0.395462 0.291393
vt 0.405869 0.364241
vt 0.364241 0.405869
vt 0.333021 0.437089
vt 0.322614 0.364241
vt 0.291393 0.333021
vt 0.333021 0.291393
vt 0.437089 0.395462
vt 0.395462 0.437089
vt 0.437089 0.333021
vt 0.291393 0.395462
vt 0.405869 0.218545
vt 0.322614 0.218545
vt 0.364241 0.176917
vt 0.333021 0.145697
vt 0.364241 0.260172
vt 0.395462 0.145696
vt 0.437089 0.187324
vt 0.437089 0.249765
vt 0.217580 0.926052
vt 0.173427 0.926187
vt 0.173292 0.882035
vt 0.000135 0.896662
vt 0.000000 0.852509
vt 0.044152 0.852374
vt 0.909630 0.527595
vt 0.953782 0.527731
vt 0.953647 0.571883
vt 0.044152 0.808086
vt 0.044288 0.852238
vt 0.000135 0.852374
vt 0.129139 0.926187
vt 0.129004 0.882034
vt 0.173292 0.926051
vt 0.909494 0.882034
vt 0.953647 0.881899
vt 0.953782 0.926051
vt 0.044152 0.719510
vt 0.044288 0.763663
vt 0.000135 0.763798
vt 0.044153 0.896662
vt 0.044288 0.940814
vt 0.000135 0.940950
vt 0.953647 0.601409
vt 0.953782 0.645561
vt 0.909630 0.645697
vt 0.099343 0.881899
vt 0.099479 0.926051
vt 0.055326 0.926187
vt 0.044152 0.409494
vt 0.044288 0.453647
vt 0.000000 0.409630
vt 0.000135 0.630934
vt 0.000000 0.586782
vt 0.044152 0.586646
vt 0.118237 0.379969
vt 0.118101 0.335816
vt 0.162254 0.335681
vt 0.247240 0.881899
vt 0.291393 0.882034
vt 0.291258 0.926187
vt 0.044153 0.453782
vt 0.044288 0.497935
vt 0.000135 0.498070
vt 0.118101 0.291528
vt 0.162254 0.291393
vt 0.118237 0.335681
vt 0.909494 0.881764
vt 0.909630 0.837611
vt 0.000135 0.719510
vt 0.000000 0.675358
vt 0.044152 0.675222
vt 0.044152 0.763798
vt 0.044288 0.807951
vt 0.000135 0.808086
vt 0.953782 0.763933
vt 0.953647 0.808086
vt 0.909494 0.807950
vt 0.000000 0.586511
vt 0.000135 0.542358
vt 0.044288 0.542494
vt 0.044152 0.498070
vt 0.044288 0.542223
vt 0.000000 0.498206
vt 0.909494 0.763662
vt 0.909630 0.719510
vt 0.953782 0.719645
vt 0.000135 0.675222
vt 0.000000 0.631070
vt 0.044152 0.630934
vt 0.145697 0.249765
vt 0.114476 0.218545
vt 0.217444 0.881899
vt 0.044288 0.896526
vt 0.909494 0.571748
vt 0.000000 0.808221
vt 0.173156 0.881899
vt 0.909630 0.926187
vt 0.000000 0.719646
vt 0.000000 0.896797
vt 0.909494 0.601544
vt 0.055191 0.882034
vt 0.000135 0.453782
vt 0.044288 0.630799
vt 0.162389 0.379833
vt 0.247105 0.926052
vt 0.000000 0.453918
vt 0.162389 0.335546
vt 0.953782 0.837747
vt 0.044288 0.719375
vt 0.000000 0.763933
vt 0.909630 0.763798
vt 0.044153 0.586646
vt 0.953647 0.763798
vt 0.044288 0.675087
vt 0.173653 0.409494
vt 0.173292 0.291754
vt 0.291393 0.409133
vt 0.672931 0.645697
vt 0.555191 0.645335
vt 0.673292 0.527957
vt 0.791393 0.881538
vt 0.673653 0.881899
vt 0.673292 0.764159
vt 0.673653 0.527595
vt 0.673292 0.409855
vt 0.791032 0.409494
vt 0.909133 1.000000
vt 0.791393 0.999639
vt 0.791754 0.881899
vt 0.173292 0.764159
vt 0.291032 0.763798
vt 0.291393 0.881538
vt 0.409855 0.145696
vt 0.409494 0.027956
vt 0.527595 0.145335
vt 0.909133 0.527595
vt 0.791393 0.527234
vt 0.909494 0.409855
vt 0.909494 0.881538
vt 0.791393 0.764159
vt 0.437089 0.409855
vt 0.554829 0.409494
vt 0.555191 0.527234
vt 0.673653 0.409494
vt 0.673292 0.291754
vt 0.791032 0.291393
vt 0.437451 0.881899
vt 0.555191 0.882260
vt 0.554829 1.000000
vt 0.555191 0.763437
vt 0.437451 0.763798
vt 0.554829 0.645697
vt 0.673292 0.645335
vt 0.791032 0.645697
vt 0.555552 0.409494
vt 0.555191 0.291754
vt 0.672931 0.291393
vt 0.173292 0.527957
vt 0.291032 0.527595
vt 0.291393 0.645335
vt 0.909494 0.409133
vt 0.791754 0.409494
vt 0.791393 0.291754
vt 0.673292 0.646058
vt 0.673653 0.763798
vt 0.409494 0.672931
vt 0.291754 0.673292
vt 0.409133 0.555191
vt 0.291393 0.909133
vt 0.291754 0.791393
vt 0.409133 0.909494
vt 0.555552 0.263798
vt 0.555191 0.146058
vt 0.672931 0.145696
vt 0.791754 0.645697
vt 0.791393 0.527957
vt 0.999639 0.145696
vt 0.881899 0.145335
vt 0.882260 0.027595
vt 0.791393 0.763437
vt 0.909494 0.646058
vt 0.173292 0.763437
vt 0.055552 0.763798
vt 0.172931 0.645697
vt 0.055191 0.645335
vt 0.055552 0.527595
vt 0.291754 0.555191
vt 0.291393 0.437451
vt 0.409133 0.437089
vt 0.055552 0.881899
vt 0.055191 0.764159
vt 0.172931 0.763798
vt 0.791032 1.000000
vt 0.673292 0.999639
vt 0.437089 0.881538
vt 0.555191 0.764159
vt 0.673292 0.763437
vt 0.555552 0.763798
vt 0.437451 0.263798
vt 0.437089 0.146058
vt 0.555191 0.263436
vt 0.527957 0.145696
vt 0.527595 0.027956
vt 0.645335 0.027595
vt 0.645697 0.027957
vt 0.763436 0.027595
vt 0.763798 0.145335
vt 0.791393 0.173653
vt 0.673292 0.291032
vt 0.672931 0.763798
vt 0.673292 0.881538
vt 0.555552 0.881899
vt 0.000361 0.409494
vt 0.000000 0.291754
vt 0.118101 0.409133
vt 0.055191 0.409855
vt 0.172931 0.409494
vt 0.555191 0.409133
vt 0.437451 0.409494
vt 0.437089 0.291754
vt 0.173292 0.409855
vt 0.291032 0.409494
vt 0.291393 0.527234
vt 0.672931 1.000000
vt 0.555191 0.999639
vt 0.764159 0.027595
vt 0.881899 0.027957
vt 0.291754 0.145696
vt 0.291393 0.027957
vt 0.409494 0.145335
vt 0.672931 0.527595
vt 0.291393 0.763437
vt 0.173653 0.763798
vt 0.173292 0.646058
vt 0.437451 0.645697
vt 0.437089 0.527957
vt 0.554829 0.527595
vt 0.791754 0.291393
vt 0.909133 0.173292
vt 0.409133 0.673292
vt 0.409494 0.791032
vt 0.291032 0.291393
vt 0.555552 0.527595
vt 0.791032 0.763798
vt 0.909494 0.882260
vt 0.173653 0.881899
vt 0.527234 0.027595
vt 0.909133 0.763798
vt 0.437451 0.527595
vt 0.791393 0.409133
vt 0.437089 0.999639
vt 0.437089 0.646058
vt 0.673292 0.409133
vt 0.173653 0.645697
vt 0.909133 0.291393
vt 0.291393 0.555552
vt 0.409494 0.791754
vt 0.673292 0.263436
vt 0.909494 0.645335
vt 1.000000 0.027957
vt 0.055191 0.646058
vt 0.409494 0.554829
vt 0.173292 0.881538
vt 0.791393 0.882260
vt 0.554829 0.881899
vt 0.555191 0.646058
vt 0.554829 0.145696
vt 0.645697 0.145335
vt 0.646058 0.145696
vt 0.673653 0.173292
vt 0.117740 0.291393
vt 0.173292 0.527234
vt 0.554829 0.291393
vt 0.173653 0.527595
vt 0.673292 0.882260
vt 0.881538 0.145696
vt 0.409133 0.027595
vt 0.291032 0.645697
vt 0.909494 0.291032
vt 0.291393 0.673653
vn -1.000000 -0.000000 -0.000000
vn 0.000000 0.000000 -1.000000
vn 0.000000 0.000000 0.000000
vn 1.000000 -0.000000 0.000000
vn -0.000000 0.000000 1.000000
vn -0.000000 -1.000000 -0.000000
vn 0.000000 1.000000 0.000000
usemtl InnerGray
s off
f 68/1/1 69/2/1 72/3/1
f 71/4/1 75/5/1 72/3/1
f 74/6/1 65/7/1 73/8/1
f 65/7/1 67/9/1 72/3/1
f 69/2/1 70/10/1 71/4/1
f 65/7/1 66/11/1 67/9/1
f 104/12/2 105/13/2 107/14/2
f 107/14/2 83/15/2 82/16/2
f 108/17/2 74/18/2 103/19/2
f 74/18/2 73/20/2 103/19/2
f 105/13/2 106/21/2 107/14/2
f 103/19/2 97/22/2 96/23/2
f 111/24/3 112/25/3 100/18/3
f 111/24/4 89/16/4 88/26/4
f 112/25/4 86/27/4 109/28/4
f 86/27/4 85/29/4 109/28/4
f 110/30/4 101/6/4 100/18/4
f 109/28/4 106/31/4 105/32/4
f 87/33/5 89/34/5 90/35/5
f 81/36/5 80/37/5 87/33/5
f 93/38/5 70/39/5 69/8/5
f 90/35/5 91/40/5 93/38/5
f 91/40/5 92/22/5 93/38/5
f 87/33/5 88/41/5 89/34/5
f 84/42/6 85/43/6 79/44/6
f 78/45/6 67/46/6 77/47/6
f 82/48/6 83/49/6 84/42/6
f 79/44/6 80/50/6 81/51/6
f 85/43/6 86/52/6 79/44/6
f 67/46/6 66/53/6 77/47/6
f 95/54/7 102/55/7 99/56/7
f 102/55/7 92/9/7 91/57/7
f 98/58/3 76/49/3 95/54/3
f 76/49/7 75/2/7 102/55/7
f 99/56/7 100/59/7 101/60/7
f 95/54/7 96/61/7 97/43/7
f 99/62/4 91/63/4 90/64/4
f 100/65/5 99/66/5 113/67/5
f 89/68/7 111/69/7 113/70/7
f 75/71/5 71/72/5 114/73/5
f 92/74/1 102/75/1 93/76/1
f 70/77/7 93/78/7 114/79/7
f 80/80/4 79/81/4 115/82/4
f 79/83/5 86/84/5 112/85/5
f 88/86/6 87/87/6 115/88/6
f 67/89/5 78/90/5 116/91/5
f 78/92/1 81/93/1 116/94/1
f 69/95/6 68/96/6 116/97/6
f 96/98/4 95/99/4 117/100/4
f 101/101/2 110/102/2 117/103/2
f 110/104/7 105/105/7 104/106/7
f 97/107/1 103/108/1 98/109/1
f 76/78/2 98/110/2 118/111/2
f 73/112/7 72/113/7 118/114/7
f 84/115/4 83/116/4 107/117/4
f 85/118/2 84/119/2 119/120/2
f 106/121/6 109/122/6 119/123/6
f 82/124/1 77/125/1 108/126/1
f 65/127/2 120/128/2 77/129/2
f 65/130/6 74/131/6 108/132/6
f 69/2/1 71/4/1 72/3/1
f 75/5/1 76/133/1 72/3/1
f 65/7/1 72/3/1 73/8/1
f 67/9/1 68/1/1 72/3/1
f 108/17/2 104/12/2 107/14/2
f 108/17/2 107/14/2 82/16/2
f 104/12/2 108/17/2 103/19/2
f 104/12/2 103/19/2 96/23/2
f 112/25/4 110/30/4 100/18/4
f 112/25/4 111/24/4 88/26/4
f 110/30/4 112/25/4 109/28/4
f 110/30/4 109/28/4 105/32/4
f 94/134/5 87/33/5 90/35/5
f 94/134/5 81/36/5 87/33/5
f 94/134/5 93/38/5 69/8/5
f 94/134/5 90/35/5 93/38/5
f 78/45/6 84/42/6 79/44/6
f 84/42/6 78/45/6 77/47/6
f 77/47/6 82/48/6 84/42/6
f 78/45/6 79/44/6 81/51/6
f 101/60/7 95/54/7 99/56/7
f 99/56/7 102/55/7 91/57/7
f 76/49/7 102/55/7 95/54/7
f 98/58/7 95/54/7 97/43/7
f 113/135/4 99/62/4 90/64/4
f 111/136/5 100/65/5 113/67/5
f 90/137/7 89/68/7 113/70/7
f 102/138/5 75/71/5 114/73/5
f 102/75/1 114/139/1 93/76/1
f 71/140/7 70/77/7 114/79/7
f 87/141/4 80/80/4 115/82/4
f 115/142/5 79/83/5 112/85/5
f 112/143/6 88/86/6 115/88/6
f 68/144/5 67/89/5 116/91/5
f 81/93/1 94/145/1 116/94/1
f 94/146/6 69/95/6 116/97/6
f 104/147/4 96/98/4 117/100/4
f 95/148/2 101/101/2 117/103/2
f 117/149/7 110/104/7 104/106/7
f 103/108/1 118/150/1 98/109/1
f 72/151/2 76/78/2 118/111/2
f 103/152/7 73/112/7 118/114/7
f 119/153/4 84/115/4 107/117/4
f 109/154/2 85/118/2 119/120/2
f 107/155/6 106/121/6 119/123/6
f 77/125/1 120/122/1 108/126/1
f 66/156/2 65/127/2 77/129/2
f 120/157/6 65/130/6 108/132/6
usemtl OuterGray
f 5/158/1 6/159/1 1/160/1
f 6/161/2 7/162/2 2/163/2
f 7/164/4 8/165/4 4/166/4
f 8/167/5 5/168/5 1/169/5
f 1/170/6 2/171/6 3/172/6
f 8/173/7 7/174/7 6/175/7
f 13/176/1 14/177/1 9/178/1
f 14/179/2 15/180/2 10/181/2
f 15/182/4 16/172/4 12/183/4
f 16/184/5 13/185/5 9/186/5
f 9/187/6 10/188/6 11/189/6
f 16/190/7 15/191/7 14/192/7
f 21/193/1 22/194/1 17/195/1
f 22/196/2 23/167/2 18/197/2
f 23/198/4 24/199/4 20/200/4
f 24/201/5 21/202/5 17/203/5
f 17/204/6 18/205/6 19/206/6
f 24/207/7 23/197/7 21/208/7
f 29/209/1 30/210/1 25/211/1
f 30/212/2 31/213/2 26/214/2
f 31/215/4 32/216/4 28/217/4
f 32/218/5 29/219/5 25/179/5
f 25/220/6 26/221/6 27/222/6
f 32/223/7 31/218/7 30/224/7
f 37/225/1 38/226/1 33/227/1
f 38/227/2 39/228/2 35/229/2
f 39/230/4 40/231/4 36/232/4
f 40/233/5 37/234/5 33/235/5
f 33/236/6 34/237/6 35/165/6
f 40/238/7 39/194/7 38/239/7
f 45/240/1 46/241/1 41/161/1
f 46/242/2 47/243/2 42/244/2
f 47/245/4 48/246/4 44/247/4
f 48/248/5 45/249/5 41/250/5
f 41/251/6 42/189/6 43/252/6
f 48/253/7 47/254/7 46/255/7
f 53/256/1 54/257/1 49/258/1
f 54/229/2 55/259/2 51/260/2
f 55/261/4 56/262/4 52/263/4
f 56/264/5 53/265/5 49/266/5
f 49/267/6 50/268/6 51/255/6
f 56/250/7 55/269/7 54/270/7
f 61/271/1 62/272/1 57/273/1
f 62/274/2 63/186/2 58/168/2
f 63/275/4 64/276/4 60/277/4
f 64/278/5 61/279/5 57/280/5
f 57/281/6 58/251/6 59/282/6
f 64/283/7 63/284/7 62/213/7
f 6/159/1 2/285/1 1/160/1
f 7/162/2 3/286/2 2/163/2
f 3/287/4 7/164/4 4/166/4
f 4/180/5 8/167/5 1/169/5
f 4/288/6 1/170/6 3/172/6
f 5/289/7 8/173/7 6/175/7
f 14/177/1 10/290/1 9/178/1
f 15/180/2 11/205/2 10/181/2
f 11/291/4 15/182/4 12/183/4
f 12/292/5 16/184/5 9/186/5
f 12/293/6 9/187/6 11/189/6
f 13/294/7 16/190/7 14/192/7
f 22/194/1 18/295/1 17/195/1
f 23/167/2 19/219/2 18/197/2
f 19/296/4 23/198/4 20/200/4
f 20/297/5 24/201/5 17/203/5
f 20/298/6 17/204/6 19/206/6
f 23/197/7 22/223/7 21/208/7
f 30/210/1 26/299/1 25/211/1
f 31/213/2 27/300/2 26/214/2
f 27/301/4 31/215/4 28/217/4
f 28/302/5 32/218/5 25/179/5
f 28/303/6 25/220/6 27/222/6
f 29/291/7 32/223/7 30/224/7
f 38/226/1 34/304/1 33/227/1
f 34/201/2 38/227/2 35/229/2
f 35/305/4 39/230/4 36/232/4
f 36/306/5 40/233/5 33/235/5
f 36/307/6 33/236/6 35/165/6
f 37/308/7 40/238/7 38/239/7
f 46/241/1 42/309/1 41/161/1
f 47/243/2 43/310/2 42/244/2
f 43/311/4 47/245/4 44/247/4
f 44/312/5 48/248/5 41/250/5
f 44/313/6 41/251/6 43/252/6
f 45/239/7 48/253/7 46/255/7
f 54/257/1 50/314/1 49/258/1
f 50/315/2 54/229/2 51/260/2
f 51/316/4 55/261/4 52/263/4
f 52/317/5 56/264/5 49/266/5
f 52/318/6 49/267/6 51/255/6
f 53/319/7 56/250/7 54/270/7
f 62/272/1 58/320/1 57/273/1
f 63/186/2 59/198/2 58/168/2
f 59/321/4 63/275/4 60/277/4
f 60/162/5 64/278/5 57/280/5
f 60/322/6 57/281/6 59/282/6
f 61/323/7 64/283/7 62/213/7
