# Blender v2.74 (sub 0) OBJ File: 'hamer.blend'
# www.blender.org
o Cube_Cube.001
v -0.110464 -0.098033 -0.983626
v -0.110464 -0.125000 -0.770142
v -0.137431 -0.098033 -0.770142
v 0.085602 -0.098033 -0.983626
v 0.112569 -0.098033 -0.770142
v 0.085601 -0.125000 -0.770142
v 0.112568 -0.098033 0.781979
v 0.085600 -0.125000 0.781979
v -0.137432 -0.098033 0.781978
v -0.110465 -0.125000 0.781979
v -0.137431 0.098033 -0.770142
v -0.110464 0.125000 -0.770142
v -0.110464 0.098033 -0.983626
v 0.085602 0.098033 -0.983626
v 0.085601 0.125000 -0.770142
v 0.112569 0.098033 -0.770142
v 0.112568 0.098033 0.781979
v 0.085600 0.125000 0.781979
v -0.110465 0.125000 0.781979
v -0.137432 0.098033 0.781978
v 0.099842 -0.098033 0.882717
v 0.065459 -0.077891 0.995462
v 0.085600 -0.112275 0.882717
v -0.110465 -0.112275 0.882717
v -0.090323 -0.077891 0.995462
v -0.124707 -0.098033 0.882717
v 0.085600 0.112275 0.882717
v 0.065459 0.077891 0.995462
v 0.099842 0.098033 0.882717
v -0.124707 0.098033 0.882717
v -0.090323 0.077891 0.995462
v -0.110465 0.112275 0.882717
v 0.085601 0.125000 -0.474720
v 0.112569 0.098033 -0.474720
v 0.085601 -0.125000 -0.474720
v 0.112569 -0.098033 -0.474720
v -0.110464 0.125000 -0.474720
v -0.137431 0.098033 -0.474720
v -0.110464 -0.125000 -0.474720
v -0.137431 -0.098033 -0.474720
v 0.085601 0.125000 -0.622431
v 0.112569 -0.098033 -0.622431
v -0.137431 0.098033 -0.622431
v -0.110464 -0.125000 -0.622431
v 0.112569 0.098033 -0.622431
v 0.085601 -0.125000 -0.622431
v -0.110464 0.125000 -0.622431
v -0.137431 -0.098033 -0.622431
v -0.082725 -0.070294 -1.004538
v 0.057863 -0.070294 -1.004538
v -0.082725 0.070294 -1.004538
v 0.057863 0.070294 -1.004538
v -0.268390 -0.382993 -0.461367
v -0.268390 0.402535 -0.461367
v -0.268389 0.402535 -0.854131
v -0.268389 -0.382993 -0.854131
v -0.214772 0.402535 -0.407749
v -0.214772 -0.382993 -0.407749
v -0.214771 0.509771 -0.461367
v -0.214771 0.509771 -0.854131
v -0.214771 0.402535 -0.907749
v -0.214771 -0.382993 -0.907749
v -0.214771 -0.490229 -0.854131
v -0.214771 -0.490229 -0.461367
v -0.110464 -0.125000 -0.407749
v 0.177992 -0.382993 -0.407749
v 0.085601 -0.125000 -0.407749
v -0.137431 -0.098033 -0.407749
v 0.112569 -0.098033 -0.407749
v 0.177992 0.402535 -0.407749
v -0.137431 0.098033 -0.407749
v -0.110464 0.125000 -0.407749
v 0.112569 0.098033 -0.407749
v 0.085601 0.125000 -0.407749
v 0.177992 0.509771 -0.461367
v 0.177993 0.509771 -0.854131
v -0.120048 -0.098033 -0.907749
v -0.110464 -0.107617 -0.907749
v 0.177993 -0.382993 -0.907749
v 0.085602 -0.107617 -0.907749
v -0.120048 0.098033 -0.907749
v 0.177993 0.402535 -0.907749
v -0.110464 0.107617 -0.907749
v 0.095186 -0.098033 -0.907749
v 0.085602 0.107617 -0.907749
v 0.095186 0.098033 -0.907749
v 0.177993 -0.490229 -0.854131
v 0.177992 -0.490229 -0.461367
v 0.231610 0.402535 -0.461367
v 0.231610 -0.382993 -0.461367
v 0.231611 0.402535 -0.854131
v 0.231611 -0.382993 -0.854131
v -0.137431 0.098033 -0.770142
v -0.137431 0.098033 -0.622431
v -0.137431 -0.098033 -0.622431
v -0.137431 -0.098033 -0.770142
v -0.137431 0.098033 -0.474720
v -0.137431 -0.098033 -0.474720
v -0.110464 0.125000 -0.770142
v -0.110464 0.125000 -0.622431
v -0.110464 -0.125000 -0.622431
v -0.110464 -0.125000 -0.770142
v -0.110464 0.125000 -0.474720
v -0.110464 -0.125000 -0.474720
v 0.085601 0.125000 -0.622431
v 0.085601 0.125000 -0.770142
v 0.085601 -0.125000 -0.770142
v 0.085601 -0.125000 -0.622431
v 0.085601 0.125000 -0.474720
v 0.085601 -0.125000 -0.474720
v 0.112569 0.098033 -0.770142
v 0.112569 0.098033 -0.622431
v 0.112569 -0.098033 -0.622431
v 0.112569 -0.098033 -0.770142
v 0.112569 0.098033 -0.474720
v 0.112569 -0.098033 -0.474720
vt 0.471291 0.473374
vt 0.264035 0.473374
vt 0.264035 0.276916
vt 0.500663 0.696652
vt 0.573942 0.650438
vt 0.581063 0.663927
vt 0.500663 0.500194
vt 0.573942 0.552368
vt 0.708070 0.696652
vt 0.708070 0.500194
vt 0.632831 0.538879
vt 0.581063 0.538879
vt 0.632831 0.663927
vt 0.639951 0.650438
vt 0.639951 0.552368
vt 0.264035 0.723471
vt 0.264035 0.527013
vt 0.471371 0.527013
vt 0.530036 0.276916
vt 0.737292 0.276916
vt 0.737292 0.473374
vt 0.336076 0.147122
vt 0.341138 0.149519
vt 0.292349 0.223277
vt 0.292349 0.026819
vt 0.336076 0.098087
vt 0.444674 0.149519
vt 0.341138 0.095690
vt 0.499756 0.223277
vt 0.499756 0.026819
vt 0.449735 0.147122
vt 0.444674 0.095690
vt 0.449735 0.098087
vt 0.499756 0.000000
vt 0.528070 0.026819
vt 0.264035 0.026819
vt 0.292349 0.000000
vt 0.500663 0.276916
vt 0.528957 0.250097
vt 0.471291 0.276916
vt 0.472370 0.250097
vt 0.528070 0.223277
vt 0.499756 0.250097
vt 0.292349 0.250097
vt 0.264035 0.223277
vt 0.530036 0.473374
vt 0.528957 0.500194
vt 0.500663 0.473374
vt 0.472370 0.500194
vt 0.472107 0.750291
vt 0.264771 0.750290
vt 0.763711 0.250097
vt 0.556374 0.250097
vt 0.557110 0.223277
vt 0.500412 0.527013
vt 0.500412 0.723471
vt 0.471371 0.723471
vt 0.557110 0.026819
vt 0.264771 0.500194
vt 0.472107 0.500194
vt 0.556374 0.000000
vt 0.763711 0.000000
vt 0.764446 0.026819
vt 0.764446 0.223277
vt 0.764446 0.106192
vt 0.816215 0.106192
vt 0.816215 0.180022
vt 0.117777 0.892946
vt 0.117777 0.943401
vt 0.014241 0.943401
vt 0.249794 0.809293
vt 0.249794 0.883152
vt 0.146258 0.883152
vt 0.816215 0.107604
vt 0.867983 0.107604
vt 0.867983 0.735740
vt 0.632681 0.794722
vt 0.640005 0.780847
vt 0.677125 0.780847
vt 0.014241 0.010276
vt 0.014241 0.116848
vt 0.000000 0.117023
vt 0.117777 0.010276
vt 0.132017 0.117023
vt 0.117777 0.116848
vt 0.264035 0.750290
vt 0.305167 0.750290
vt 0.305167 0.828212
vt 0.816215 0.881988
vt 0.816215 0.932583
vt 0.764447 0.932583
vt 0.132017 0.882977
vt 0.146258 0.989724
vt 0.249794 0.989724
vt 0.264035 0.882977
vt 0.138737 0.056506
vt 0.146258 0.056599
vt 0.146258 0.107053
vt 0.867983 0.883400
vt 0.867983 0.989592
vt 0.816215 0.989592
vt 0.764446 0.000000
vt 0.816214 0.000000
vt 0.249794 0.107053
vt 0.264035 0.106878
vt 0.264035 0.735258
vt 0.125298 0.943494
vt 0.132017 0.190882
vt 0.249794 0.056599
vt 0.257315 0.056506
vt 0.006720 0.943494
vt 0.000000 0.893122
vt 0.014241 0.892946
vt 0.146258 0.809293
vt 0.000000 0.264742
vt 0.117777 0.264566
vt 0.107141 1.000000
vt 0.024877 1.000000
vt 0.239158 0.000000
vt 0.156894 0.000000
vt 0.862665 0.000000
vt 0.867983 0.057009
vt 0.816215 0.057009
vt 0.769765 0.989592
vt 0.764446 0.253852
vt 0.816215 0.253852
vt 0.249794 0.735434
vt 0.146258 0.735434
vt 0.816215 0.735740
vt 0.867983 0.809570
vt 0.264035 0.809118
vt 0.132017 0.264742
vt 0.132017 0.893122
vt 0.132017 0.735258
vt 0.132017 0.106878
vt 0.014241 0.264566
vt 0.000000 0.190882
vt 0.117777 0.190707
vt 0.014241 0.190707
vt 0.816215 0.809570
vt 0.132017 0.809118
vt 0.764446 0.180022
vt 0.640005 0.710527
vt 0.677125 0.710527
vt 0.028889 0.000000
vt 0.235146 1.000000
vt 0.160906 1.000000
vt 0.632681 0.696652
vt 0.684449 0.696652
vt 0.708070 0.569305
vt 0.759838 0.569305
vt 0.759838 0.643136
vt 0.514904 0.877857
vt 0.514904 0.803998
vt 0.618440 0.803998
vt 0.867983 0.466960
vt 0.919751 0.466960
vt 0.919751 0.500434
vt 0.877162 0.250188
vt 0.867983 0.181381
vt 0.882223 0.181205
vt 0.985759 0.250125
vt 0.985759 0.181205
vt 1.000000 0.181381
vt 0.618440 0.877857
vt 0.632681 0.878032
vt 0.623502 0.946839
vt 0.509843 0.946839
vt 0.500663 0.878032
vt 0.514904 0.946777
vt 0.919751 0.319299
vt 0.867983 0.319299
vt 0.867983 0.250188
vt 0.514904 0.696652
vt 0.514904 0.730139
vt 0.500663 0.730314
vt 1.000000 0.107521
vt 0.882223 0.033487
vt 0.867983 0.033662
vt 0.867983 0.000175
vt 0.985759 0.000000
vt 0.985759 0.033487
vt 0.708070 0.716966
vt 0.759838 0.716966
vt 0.759838 0.750440
vt 0.618440 0.730139
vt 0.867983 0.393130
vt 1.000000 0.033662
vt 0.632681 0.730314
vt 0.618440 0.696652
vt 0.867983 0.107522
vt 0.985759 0.107346
vt 0.882223 0.107346
vt 0.919751 0.393130
vt 0.632681 0.804173
vt 0.708070 0.643136
vt 0.500663 0.804173
vt 0.684449 0.794722
vt 0.264035 0.828212
vt 0.764447 0.881988
vt 0.816215 0.883400
vt 0.821533 0.000000
vt 0.810897 0.989592
vt 0.103129 0.000000
vt 0.867983 0.500434
vt 0.882223 0.250125
vt 0.990821 0.250188
vt 0.618440 0.946777
vt 0.919751 0.250188
vt 0.759838 0.500194
vt 0.500663 0.696827
vt 0.882223 0.000000
vt 0.708070 0.750440
vt 1.000000 0.000175
vt 0.632681 0.696827
vn -1.000000 0.000000 -0.000000
vn -0.000000 0.000000 1.000000
vn 0.000000 1.000000 0.000000
vn 1.000000 0.000000 0.000000
vn -0.000000 0.000000 -1.000000
vn -0.666700 -0.333300 -0.666700
vn 0.666700 -0.333300 -0.666700
vn 0.666700 -0.333300 0.666700
vn -0.666700 -0.333300 0.666700
vn -0.666700 0.333300 -0.666700
vn 0.666700 0.333300 -0.666700
vn 0.666700 0.333300 0.666700
vn -0.666700 0.333300 0.666700
vn 0.000000 0.447200 -0.894400
vn 0.707100 0.000000 -0.707100
vn 0.000000 -0.447200 -0.894400
vn -0.707100 0.000000 -0.707100
vn 0.894400 0.447200 0.000000
vn 0.707100 0.000000 0.707100
vn 0.894400 -0.447200 0.000000
vn -0.000000 0.447200 0.894400
vn -0.707100 0.000000 0.707100
vn -0.000000 -0.447200 0.894400
vn -0.894400 0.447200 -0.000000
vn -0.894400 -0.447200 -0.000000
vn 0.000000 -1.000000 -0.000000
vn -0.924400 0.376900 -0.057500
vn -0.924400 -0.376900 -0.057500
vn -0.923900 -0.382700 0.000000
vn 0.376900 -0.924400 0.057500
vn 0.383400 -0.897300 0.218800
vn -0.383400 -0.897300 0.218800
vn 0.382700 0.923900 0.000000
vn 0.376900 0.924400 -0.057500
vn -0.376900 0.924400 -0.057500
vn 0.924400 0.376900 0.057500
vn 0.924400 -0.376900 0.057500
vn 0.923900 -0.382700 0.000000
vn -0.610100 0.610100 -0.505400
vn -0.245700 0.245700 -0.937700
vn -0.245700 -0.245700 -0.937700
vn -0.610100 -0.610100 -0.505400
vn -0.376900 -0.924400 -0.057500
vn 0.610100 -0.610100 -0.505400
vn 0.924400 -0.376900 -0.057500
vn 0.376900 -0.924400 -0.057500
vn -0.487500 0.487500 0.724300
vn -0.487500 -0.487500 0.724300
vn 0.487500 -0.487500 0.724300
vn -0.924400 -0.376900 0.057500
vn -0.897300 -0.383400 0.218800
vn -0.897300 0.383400 0.218800
vn 0.610100 0.610100 -0.505400
vn 0.924400 0.376900 -0.057500
vn -0.383400 0.897300 0.218800
vn -0.376900 0.924400 0.057500
vn 0.376900 0.924400 0.057500
vn 0.923900 0.382700 0.000000
vn 0.897300 -0.383400 0.218800
vn 0.383400 0.897300 0.218800
vn 0.897300 0.383400 0.218800
vn -0.376900 -0.924400 0.057500
vn -0.382700 0.923900 0.000000
vn 0.382700 -0.923900 0.000000
vn 0.487500 0.487500 0.724300
vn -0.923900 0.382700 0.000000
vn -0.924400 0.376900 0.057500
vn -0.382700 -0.923900 0.000000
vn 0.245700 0.245700 -0.937700
vn 0.245700 -0.245700 -0.937700
vn -0.549100 0.227500 0.804200
vn 0.586300 0.251300 -0.770100
vn -0.251300 0.586300 -0.770100
vn 0.586300 -0.251300 -0.770100
vn -0.586300 -0.251300 -0.770100
vn -0.251300 -0.586300 -0.770100
vn -0.227500 -0.549100 0.804200
vn 0.549100 0.227500 0.804200
vn -0.227500 0.549100 0.804200
vn 0.549100 -0.227500 0.804200
vn 0.227500 -0.549100 0.804200
vn -0.549100 -0.227500 0.804200
vn 0.251300 0.586300 -0.770100
vn -0.586300 0.251300 -0.770100
vn 0.251300 -0.586300 -0.770100
vn 0.227500 0.549100 0.804200
usemtl Rubbert
s off
f 54/1/1 55/2/1 56/3/1
f 70/4/2 74/5/2 73/6/2
f 70/4/2 57/7/2 72/8/2
f 66/9/2 70/4/2 73/6/2
f 58/10/2 68/11/2 71/12/2
f 69/13/2 67/14/2 66/9/2
f 57/7/2 71/12/2 72/8/2
f 58/10/2 65/15/2 68/11/2
f 65/15/2 58/10/2 66/9/2
f 76/16/3 60/17/3 59/18/3
f 90/19/4 92/20/4 91/21/4
f 86/22/5 85/23/5 82/24/5
f 79/25/5 84/26/5 86/22/5
f 85/23/5 83/27/5 82/24/5
f 79/25/5 80/28/5 84/26/5
f 61/29/5 82/24/5 83/27/5
f 62/30/5 61/29/5 81/31/5
f 79/25/5 62/30/5 78/32/5
f 62/30/5 77/33/5 78/32/5
f 62/30/6 63/34/6 56/35/6
f 79/25/7 92/36/7 87/37/7
f 90/19/8 66/38/8 88/39/8
f 58/38/9 53/40/9 64/41/9
f 55/42/10 60/43/10 61/29/10
f 82/24/11 76/44/11 91/45/11
f 89/46/12 75/47/12 70/48/12
f 57/48/13 59/49/13 54/1/13
f 82/24/14 61/29/14 60/43/14
f 79/25/15 82/24/15 91/45/15
f 87/37/16 63/34/16 62/30/16
f 56/35/17 55/42/17 61/29/17
f 89/50/18 91/51/18 76/16/18
f 90/19/19 89/46/19 70/48/19
f 92/52/20 90/53/20 88/54/20
f 57/55/21 70/56/21 75/57/21
f 58/38/22 57/48/22 54/1/22
f 66/42/23 58/35/23 64/58/23
f 60/17/24 55/59/24 54/60/24
f 53/61/25 56/62/25 63/63/25
f 88/54/26 64/58/26 63/63/26
f 53/40/1 54/1/1 56/3/1
f 74/5/2 70/4/2 72/8/2
f 69/13/2 66/9/2 73/6/2
f 57/7/2 58/10/2 71/12/2
f 67/14/2 65/15/2 66/9/2
f 75/57/3 76/16/3 59/18/3
f 89/46/4 90/19/4 91/21/4
f 82/24/5 79/25/5 86/22/5
f 81/31/5 61/29/5 83/27/5
f 77/33/5 62/30/5 81/31/5
f 80/28/5 79/25/5 78/32/5
f 76/44/14 82/24/14 60/43/14
f 92/36/15 79/25/15 91/45/15
f 79/25/16 87/37/16 62/30/16
f 62/30/17 56/35/17 61/29/17
f 75/57/18 89/50/18 76/16/18
f 66/38/19 90/19/19 70/48/19
f 87/64/20 92/52/20 88/54/20
f 59/18/21 57/55/21 75/57/21
f 53/40/22 58/38/22 54/1/22
f 88/54/23 66/42/23 64/58/23
f 59/18/24 60/17/24 54/60/24
f 64/58/25 53/61/25 63/63/25
f 87/64/26 88/54/26 63/63/26
usemtl Wood.001
s 1
f 11/65/27 3/66/28 48/67/29
f 8/68/30 23/69/31 24/70/32
f 41/71/33 15/72/34 12/73/35
f 17/74/36 7/75/37 36/76/38
f 13/77/39 51/78/40 49/79/41
f 1/80/42 2/81/43 3/82/28
f 4/83/44 5/84/45 6/85/46
f 31/86/47 25/87/48 22/88/49
f 9/89/50 26/90/51 30/91/52
f 11/92/27 12/73/35 13/93/39
f 14/94/53 15/72/34 16/95/54
f 30/96/52 32/97/55 19/98/56
f 15/72/34 14/94/53 13/93/39
f 5/99/45 4/100/44 14/101/53
f 6/85/46 2/81/43 1/80/42
f 11/65/27 13/102/39 1/103/42
f 18/104/57 17/105/36 34/106/58
f 21/107/59 23/69/31 8/68/30
f 6/85/46 5/84/45 42/108/38
f 18/104/57 27/109/60 29/110/61
f 19/98/56 32/97/55 27/109/60
f 26/111/51 9/112/50 10/113/62
f 47/114/63 12/73/35 11/92/27
f 10/113/62 9/112/50 40/115/29
f 35/116/64 8/68/30 10/113/62
f 21/107/59 22/117/49 23/69/31
f 24/70/32 25/118/48 26/111/51
f 27/109/60 28/119/65 29/110/61
f 30/96/52 31/120/47 32/97/55
f 22/121/49 21/122/59 29/123/61
f 28/119/65 27/109/60 32/97/55
f 31/124/47 30/91/52 26/90/51
f 22/117/49 25/118/48 24/70/32
f 21/122/59 7/75/37 17/74/36
f 38/125/66 40/126/29 9/89/50
f 18/104/57 33/127/33 37/128/63
f 34/129/58 36/76/38 42/130/38
f 33/127/33 34/106/58 45/131/58
f 35/116/64 36/132/38 7/133/37
f 37/128/63 38/134/66 20/135/67
f 39/136/68 40/115/29 48/137/29
f 46/138/64 35/116/64 39/136/68
f 44/139/68 48/137/29 3/82/28
f 37/128/63 33/127/33 41/71/33
f 45/140/58 42/130/38 5/99/45
f 35/116/64 46/138/64 42/108/38
f 47/114/63 43/141/66 38/134/66
f 43/142/66 48/67/29 40/126/29
f 6/85/46 46/138/64 44/139/68
f 41/71/33 45/131/58 16/95/54
f 52/143/69 50/144/70 49/79/41
f 4/83/44 1/80/42 49/145/41
f 14/94/53 52/146/69 51/147/40
f 14/148/53 4/149/44 50/144/70
f 96/150/36 93/151/37 94/152/38
f 106/153/62 105/154/68 100/155/64
f 115/156/29 116/157/66 69/158/71
f 77/159/72 96/160/36 102/161/57
f 80/162/73 107/163/56 114/164/67
f 99/165/30 93/166/37 81/167/74
f 86/168/75 111/169/50 106/153/62
f 85/170/76 106/153/62 99/165/30
f 114/171/67 111/172/50 86/173/75
f 102/161/57 107/163/56 80/162/73
f 93/151/37 96/150/36 77/10/72
f 74/174/77 109/175/68 115/176/29
f 113/177/66 114/164/67 107/163/56
f 93/166/37 99/165/30 100/155/64
f 104/178/33 98/179/58 68/180/78
f 67/181/79 110/182/63 104/178/33
f 98/183/58 97/184/38 71/185/80
f 103/186/64 109/175/68 74/174/77
f 116/157/66 115/156/29 112/187/29
f 115/176/29 109/175/68 105/154/68
f 116/188/66 110/182/63 67/181/79
f 97/189/38 103/186/64 72/190/81
f 95/191/58 98/179/58 104/178/33
f 110/182/63 108/192/63 101/193/33
f 95/191/58 101/193/33 102/161/57
f 100/155/64 105/154/68 109/175/68
f 113/194/66 112/187/29 111/172/50
f 113/177/66 108/192/63 110/182/63
f 94/195/38 100/155/64 103/186/64
f 95/196/58 94/152/38 97/184/38
f 101/193/33 108/192/63 107/163/56
f 112/197/29 105/154/68 106/153/62
f 43/142/66 11/65/27 48/67/29
f 10/113/62 8/68/30 24/70/32
f 47/114/63 41/71/33 12/73/35
f 34/129/58 17/74/36 36/76/38
f 1/198/42 13/77/39 49/79/41
f 28/199/65 31/86/47 22/88/49
f 20/200/67 9/89/50 30/91/52
f 20/135/67 30/96/52 19/98/56
f 12/73/35 15/72/34 13/93/39
f 16/201/54 5/99/45 14/101/53
f 4/83/44 6/85/46 1/80/42
f 3/66/28 11/65/27 1/103/42
f 33/127/33 18/104/57 34/106/58
f 7/133/37 21/107/59 8/68/30
f 46/138/64 6/85/46 42/108/38
f 17/105/36 18/104/57 29/110/61
f 18/104/57 19/98/56 27/109/60
f 24/70/32 26/111/51 10/113/62
f 43/141/66 47/114/63 11/92/27
f 39/136/68 10/113/62 40/115/29
f 39/136/68 35/116/64 10/113/62
f 28/202/65 22/121/49 29/123/61
f 31/120/47 28/119/65 32/97/55
f 25/203/48 31/124/47 26/90/51
f 23/69/31 22/117/49 24/70/32
f 29/123/61 21/122/59 17/74/36
f 20/200/67 38/125/66 9/89/50
f 19/98/56 18/104/57 37/128/63
f 45/140/58 34/129/58 42/130/38
f 41/71/33 33/127/33 45/131/58
f 8/68/30 35/116/64 7/133/37
f 19/98/56 37/128/63 20/135/67
f 44/139/68 39/136/68 48/137/29
f 44/139/68 46/138/64 39/136/68
f 2/81/43 44/139/68 3/82/28
f 47/114/63 37/128/63 41/71/33
f 16/201/54 45/140/58 5/99/45
f 36/132/38 35/116/64 42/108/38
f 37/128/63 47/114/63 38/134/66
f 38/125/66 43/142/66 40/126/29
f 2/81/43 6/85/46 44/139/68
f 15/72/34 41/71/33 16/95/54
f 51/78/40 52/143/69 49/79/41
f 50/204/70 4/83/44 49/145/41
f 13/93/39 14/94/53 51/147/40
f 52/143/69 14/148/53 50/144/70
f 95/196/58 96/150/36 94/152/38
f 99/165/30 106/153/62 100/155/64
f 73/205/82 115/156/29 69/158/71
f 78/206/83 77/159/72 102/161/57
f 84/207/84 80/162/73 114/164/67
f 83/208/85 99/165/30 81/167/74
f 85/170/76 86/168/75 106/153/62
f 83/208/85 85/170/76 99/165/30
f 84/209/84 114/171/67 86/173/75
f 78/206/83 102/161/57 80/162/73
f 81/210/74 93/151/37 77/10/72
f 73/211/82 74/174/77 115/176/29
f 108/192/63 113/177/66 107/163/56
f 94/195/38 93/166/37 100/155/64
f 65/212/86 104/178/33 68/180/78
f 65/212/86 67/181/79 104/178/33
f 68/213/78 98/183/58 71/185/80
f 72/190/81 103/186/64 74/174/77
f 113/194/66 116/157/66 112/187/29
f 112/197/29 115/176/29 105/154/68
f 69/214/71 116/188/66 67/181/79
f 71/215/80 97/189/38 72/190/81
f 101/193/33 95/191/58 104/178/33
f 104/178/33 110/182/63 101/193/33
f 96/160/36 95/191/58 102/161/57
f 103/186/64 100/155/64 109/175/68
f 114/171/67 113/194/66 111/172/50
f 116/188/66 113/177/66 110/182/63
f 97/189/38 94/195/38 103/186/64
f 98/183/58 95/196/58 97/184/38
f 102/161/57 101/193/33 107/163/56
f 111/169/50 112/197/29 106/153/62
