# Blender v2.74 (sub 0) OBJ File: 'blackcube.blend'
# www.blender.org
o LOWRES_Cube.004
v -0.500000 -0.296665 0.500000
v -0.500000 -0.500000 0.296665
v -0.296665 -0.500000 0.500000
v -0.296665 0.500000 0.500000
v -0.500000 0.500000 0.296665
v -0.500000 0.296665 0.500000
v -0.296665 -0.500000 -0.500000
v -0.500000 -0.500000 -0.296665
v -0.500000 -0.296665 -0.500000
v -0.296665 0.500000 -0.500000
v -0.500000 0.296665 -0.500000
v -0.500000 0.500000 -0.296665
v 0.296665 -0.500000 0.500000
v 0.500000 -0.500000 0.296665
v 0.500000 -0.296665 0.500000
v 0.296665 0.500000 0.500000
v 0.500000 0.296665 0.500000
v 0.500000 0.500000 0.296665
v 0.500000 -0.500000 -0.296665
v 0.296665 -0.500000 -0.500000
v 0.500000 -0.296665 -0.500000
v 0.500000 0.500000 -0.296665
v 0.500000 0.296665 -0.500000
v 0.296665 0.500000 -0.500000
vt 0.666667 0.598888
vt 0.598888 0.666667
vt 0.333333 0.401112
vt 0.265555 0.333333
vt 0.067778 0.666667
vt 0.000000 0.734445
vt 0.333333 0.932222
vt 0.000000 0.067778
vt 0.067778 0.000000
vt 0.333333 0.265555
vt 0.598888 0.000000
vt 0.666667 0.067778
vt 0.401112 0.333333
vt 0.666667 0.666667
vt 0.265555 0.000000
vt 0.333333 0.000000
vt 0.333333 0.067778
vt 0.333333 0.598889
vt 0.401112 0.666667
vt 0.333333 0.666667
vt 0.666667 0.000000
vt 0.666667 0.401112
vt 0.598888 0.333333
vt 0.666667 0.333333
vt 0.265555 0.666667
vt 0.333333 0.333333
vt 1.000000 0.265555
vt 0.932222 0.333333
vt 0.000000 0.401112
vt 0.067778 0.333333
vt 0.000000 0.598889
vt 0.067778 1.000000
vt 0.000000 0.932222
vt 0.265555 1.000000
vt 0.333333 0.734445
vt 0.000000 0.265555
vt 0.401111 0.000000
vt 0.666667 0.265555
vt 0.932222 0.000000
vt 1.000000 0.067778
vt 0.734445 0.000000
vt 0.734445 0.333333
vn 0.000000 -1.000000 0.000000
vn 1.000000 0.000000 0.000000
vn 0.000000 1.000000 0.000000
vn 0.000000 0.000000 1.000000
vn 0.000000 0.000000 -1.000000
vn -0.577400 -0.577400 0.577400
vn -0.577400 0.577400 0.577400
vn -0.577400 -0.577400 -0.577400
vn -0.577400 0.577400 -0.577400
vn 0.577400 -0.577400 0.577400
vn 0.577400 0.577400 0.577400
vn 0.577400 -0.577400 -0.577400
vn 0.577400 0.577400 -0.577400
vn -1.000000 0.000000 0.000000
usemtl Material.002
s off
f 3/1/1 2/2/1 20/3/1
f 23/4/2 22/3/2 15/5/2
f 16/6/3 18/5/3 10/7/3
f 17/8/4 16/9/4 1/10/4
f 11/11/5 10/12/5 21/13/5
f 1/14/6 2/2/6 3/1/6
f 4/15/7 5/16/7 6/17/7
f 7/18/8 8/19/8 9/20/8
f 10/12/9 11/11/9 12/21/9
f 13/22/10 14/23/10 15/24/10
f 16/20/11 17/25/11 18/18/11
f 19/13/12 20/3/12 21/26/12
f 22/3/13 23/4/13 24/26/13
f 6/27/14 5/28/14 9/12/14
f 14/23/1 13/22/1 3/1/1
f 3/1/1 19/13/1 14/23/1
f 8/19/1 7/18/1 20/3/1
f 20/3/1 2/2/1 8/19/1
f 20/3/1 19/13/1 3/1/1
f 19/29/2 21/30/2 23/4/2
f 23/4/2 14/31/2 19/29/2
f 18/18/2 17/25/2 15/5/2
f 15/5/2 22/3/2 18/18/2
f 15/5/2 14/31/2 23/4/2
f 5/32/3 4/33/3 16/6/3
f 16/6/3 12/34/3 5/32/3
f 22/25/3 24/35/3 10/7/3
f 10/7/3 18/5/3 22/25/3
f 10/7/3 12/34/3 16/6/3
f 13/30/4 15/36/4 17/8/4
f 17/8/4 3/4/4 13/30/4
f 4/15/4 6/17/4 1/10/4
f 1/10/4 16/9/4 4/15/4
f 1/10/4 3/4/4 17/8/4
f 7/17/5 9/37/5 11/11/5
f 11/11/5 20/10/5 7/17/5
f 24/38/5 23/23/5 21/13/5
f 21/13/5 10/12/5 24/38/5
f 21/13/5 20/10/5 11/11/5
f 2/39/14 1/40/14 6/27/14
f 6/27/14 8/41/14 2/39/14
f 12/42/14 11/38/14 9/12/14
f 9/12/14 5/28/14 12/42/14
f 9/12/14 8/41/14 6/27/14
