# Blender v2.74 (sub 0) OBJ File: 'needle2.blend'
# www.blender.org
mtllib needle1.mtl
o LowRes_Cylinder.001
v 0.001077 0.250794 -0.023966
v 0.001077 0.250794 0.016034
v 0.177853 0.177570 -0.023966
v 0.177853 0.177570 0.016034
v 0.251077 0.000794 -0.023966
v 0.251077 0.000794 0.016034
v 0.177853 -0.175983 -0.023966
v 0.177853 -0.175983 0.016034
v 0.001077 -0.249206 -0.023966
v 0.001077 -0.249206 0.016034
v -0.175700 -0.175983 -0.023966
v -0.175700 -0.175983 0.016034
v -0.248923 0.000794 -0.023966
v -0.248923 0.000794 0.016034
v -0.175700 0.177570 -0.023966
v -0.175700 0.177570 0.016034
v 0.001077 0.040864 -0.166165
v 0.029411 0.029128 -0.166165
v 0.041147 0.000794 -0.166165
v 0.029411 -0.027540 -0.166165
v 0.001077 -0.039277 -0.166165
v -0.027257 -0.027540 -0.166165
v -0.038993 0.000794 -0.166165
v -0.027257 0.029128 -0.166165
v 0.001077 0.097303 -0.252791
v 0.069320 0.069036 -0.252791
v 0.097587 0.000794 -0.252791
v 0.069320 -0.067449 -0.252791
v 0.001077 -0.095716 -0.252791
v -0.067166 -0.067449 -0.252791
v -0.095433 0.000794 -0.252791
v -0.067166 0.069036 -0.252791
v 0.001077 -0.000547 -0.941511
v 0.002010 -0.000933 -0.941511
v 0.002397 -0.001867 -0.941511
v 0.002010 -0.002801 -0.941511
v 0.001077 -0.003187 -0.941511
v 0.000143 -0.002801 -0.941511
v -0.000243 -0.001867 -0.941511
v 0.000143 -0.000933 -0.941511
vt 0.571591 0.914387
vt 0.492908 0.913689
vt 0.499321 0.855208
vt 0.441988 0.940317
vt 0.382841 0.923146
vt 0.412843 0.878593
vt 0.329689 0.922184
vt 0.336313 0.877218
vt 0.275653 0.924205
vt 0.258425 0.876982
vt 0.224550 0.938863
vt 0.812235 0.914479
vt 0.731609 0.914882
vt 0.728939 0.856685
vt 0.327490 0.978185
vt 0.237451 0.965553
vt 0.651387 0.914856
vt 0.576647 0.856774
vt 0.652748 0.857261
vt 0.638821 0.647477
vt 0.620500 0.516894
vt 0.651053 0.516772
vt 0.651949 0.647509
vt 0.665060 0.647453
vt 0.807204 0.855071
vt 0.173433 0.877943
vt 0.335690 0.660797
vt 0.349349 0.661074
vt 0.362980 0.661247
vt 0.376576 0.661333
vt 0.492499 0.880480
vt 0.625714 0.647353
vt 0.624344 0.016954
vt 0.681606 0.516819
vt 0.678158 0.647310
vt 0.315990 0.524921
vt 0.347110 0.524911
vt 0.379965 0.525166
vt 0.412797 0.525613
vt 0.443523 0.526211
vt 0.589551 0.517112
vt 0.480051 0.024394
vt 0.462227 0.045489
vt 0.432415 0.046821
vt 0.655184 0.016935
vt 0.712229 0.517036
vt 0.686023 0.016913
vt 0.374538 0.037391
vt 0.403117 0.044889
vt 0.492500 0.038543
vt 0.593650 0.016893
vt 0.418853 0.966331
vt 0.390196 0.661335
vt 0.390381 0.023517
vt 0.436074 0.016893
vt 0.716712 0.016893
vn 0.382700 0.923900 0.000000
vn 0.923900 0.382700 0.000000
vn 0.923900 -0.382700 0.000000
vn 0.382700 -0.923900 0.000000
vn -0.382700 -0.923900 0.000000
vn -0.923900 -0.382700 0.000000
vn 0.000000 -0.000000 1.000000
vn -0.382700 0.923900 0.000000
vn -0.923900 0.382700 0.000000
vn -0.226300 0.546300 -0.806500
vn -0.327900 0.791500 0.515700
vn -0.546300 0.226300 -0.806500
vn -0.546300 -0.226300 -0.806500
vn -0.226300 -0.546300 -0.806500
vn 0.226300 -0.546300 -0.806500
vn 0.546300 -0.226300 -0.806500
vn 0.546300 0.226300 -0.806500
vn 0.226300 0.546300 -0.806500
vn -0.379400 0.916000 -0.130100
vn -0.791500 0.327900 0.515700
vn -0.791500 -0.327900 0.515700
vn -0.327900 -0.791500 0.515700
vn 0.327900 -0.791500 0.515700
vn 0.791500 -0.327900 0.515700
vn 0.791500 0.327900 0.515700
vn 0.327900 0.791500 0.515700
vn 0.000100 0.000000 -1.000000
vn -0.916300 0.379500 -0.128100
vn -0.916600 -0.379700 -0.125200
vn -0.379800 -0.916800 -0.123200
vn 0.379800 -0.916800 -0.123200
vn 0.916600 -0.379700 -0.125200
vn 0.916300 0.379500 -0.128100
vn 0.379400 0.916000 -0.130100
vn 0.000200 0.000000 -1.000000
vn -0.000100 0.000000 -1.000000
vn -0.000300 0.000000 -1.000000
vn 0.000000 0.000000 -1.000000
usemtl None
s off
f 2/1/1 4/2/1 3/3/1
f 4/4/2 6/5/2 5/6/2
f 6/5/3 8/7/3 7/8/3
f 8/7/4 10/9/4 9/10/4
f 9/10/5 10/9/5 12/11/5
f 12/12/6 14/13/6 13/14/6
f 4/4/7 16/15/7 14/16/7
f 16/17/8 2/1/8 1/18/8
f 14/13/9 16/17/9 15/19/9
f 15/19/10 1/18/10 17/20/10
f 17/20/11 25/21/11 32/22/11
f 15/19/12 24/23/12 23/24/12
f 11/25/13 13/14/13 23/24/13
f 11/26/14 22/27/14 21/28/14
f 7/8/15 9/10/15 21/28/15
f 7/8/16 20/29/16 19/30/16
f 3/31/17 5/6/17 19/30/17
f 3/3/18 18/32/18 17/20/18
f 32/22/19 25/21/19 33/33/19
f 24/23/20 32/22/20 31/34/20
f 22/35/21 23/24/21 31/34/21
f 22/27/22 30/36/22 29/37/22
f 21/28/23 29/37/23 28/38/23
f 20/29/24 28/38/24 27/39/24
f 19/30/25 27/39/25 26/40/25
f 17/20/26 18/32/26 26/41/26
f 33/42/27 35/43/27 36/44/27
f 31/34/28 32/22/28 40/45/28
f 30/46/29 31/34/29 39/47/29
f 29/37/30 30/36/30 38/48/30
f 29/37/31 37/49/31 36/44/31
f 28/38/32 36/44/32 35/43/32
f 27/39/33 35/43/33 34/50/33
f 26/41/34 34/51/34 33/33/34
f 1/18/1 2/1/1 3/3/1
f 3/31/2 4/4/2 5/6/2
f 5/6/3 6/5/3 7/8/3
f 7/8/4 8/7/4 9/10/4
f 11/26/5 9/10/5 12/11/5
f 11/25/6 12/12/6 13/14/6
f 8/7/7 6/5/7 4/4/7
f 12/11/7 10/9/7 8/7/7
f 4/4/7 14/16/7 12/11/7
f 4/4/7 2/52/7 16/15/7
f 12/11/7 8/7/7 4/4/7
f 15/19/8 16/17/8 1/18/8
f 13/14/9 14/13/9 15/19/9
f 24/23/10 15/19/10 17/20/10
f 24/23/11 17/20/11 32/22/11
f 13/14/12 15/19/12 23/24/12
f 22/35/13 11/25/13 23/24/13
f 9/10/14 11/26/14 21/28/14
f 20/29/15 7/8/15 21/28/15
f 5/6/16 7/8/16 19/30/16
f 18/53/17 3/31/17 19/30/17
f 1/18/18 3/3/18 17/20/18
f 40/45/19 32/22/19 33/33/19
f 23/24/20 24/23/20 31/34/20
f 30/46/21 22/35/21 31/34/21
f 21/28/22 22/27/22 29/37/22
f 20/29/23 21/28/23 28/38/23
f 19/30/24 20/29/24 27/39/24
f 18/53/25 19/30/25 26/40/25
f 25/21/26 17/20/26 26/41/26
f 39/54/35 40/55/35 33/42/35
f 33/42/36 38/48/36 39/54/36
f 33/42/36 36/44/36 37/49/36
f 33/42/37 34/50/37 35/43/37
f 37/49/38 38/48/38 33/42/38
f 39/47/28 31/34/28 40/45/28
f 38/56/29 30/46/29 39/47/29
f 37/49/30 29/37/30 38/48/30
f 28/38/31 29/37/31 36/44/31
f 27/39/32 28/38/32 35/43/32
f 26/40/33 27/39/33 34/50/33
f 25/21/34 26/41/34 33/33/34
